<svg width="753" height="751" viewBox="0 0 753 751" fill="none" xmlns="http://www.w3.org/2000/svg">
<mask id="mask0_1473_1509" style="mask-type:luminance" maskUnits="userSpaceOnUse" x="0" y="0" width="753" height="752">
<path d="M0 751L753 751L753 6.10352e-05L-6.56545e-05 0.000126865L-2.88846e-07 747.696L0 751Z" fill="white"/>
</mask>
<g mask="url(#mask0_1473_1509)">
<g filter="url(#filter0_d_1473_1509)">
<path d="M389.141 358.214L-290.429 86.2982L390.124 -373.446L389.141 358.214Z" fill="#2056AD"/>
</g>
<g filter="url(#filter1_f_1473_1509)">
<path d="M333.631 261.537L-803.639 321.234L813.121 -770.963L333.631 261.537Z" fill="#1F4C95"/>
</g>
<g style="mix-blend-mode:difference" filter="url(#filter2_df_1473_1509)">
<path d="M433.097 300.777C395.093 259.365 343.331 245.005 317.483 268.703C291.635 292.402 301.489 345.185 339.493 386.597C377.497 428.01 429.259 442.37 455.107 418.671C480.955 394.973 471.101 342.19 433.097 300.777Z" fill="#1F4C95"/>
</g>
<path d="M388.621 357.404L1069.57 625.857L391.366 1089.06L388.621 357.404Z" fill="#1E4C95"/>
</g>
<circle cx="398.594" cy="359.454" r="192.477" stroke="#CEEA4D" stroke-width="5"/>
<path d="M438.927 300.686H363.276C361.313 300.686 360.331 301.868 360.331 304.247V341.798L366.42 333.279C366.92 332.314 367.984 331.799 369.665 331.799H437.696C440.391 331.799 441.722 330.401 441.722 327.606V303.931C441.722 301.768 440.791 300.67 438.927 300.67" fill="#CEEA4D"/>
<path d="M438.927 415.802H363.276C361.313 415.802 360.331 414.621 360.331 412.241V374.69L366.42 383.209C366.92 384.174 367.984 384.673 369.665 384.673H437.696C440.391 384.673 441.722 386.07 441.722 388.866V412.541C441.722 414.704 440.791 415.802 438.927 415.802Z" fill="#CEEA4D"/>
<path d="M431.723 361.464L375.055 344.427C374.789 344.36 374.539 344.56 374.539 344.826V356.472C374.539 356.672 374.406 356.838 374.207 356.872L331.465 356.123C331.032 356.206 331.032 356.838 331.465 356.921L386.036 373.143C386.285 373.193 386.518 372.993 386.518 372.744V362.428C386.518 362.162 386.768 361.963 387.018 362.029L431.49 361.979C431.739 362.046 431.989 361.846 431.989 361.58V361.846C432.006 361.663 431.873 361.497 431.706 361.447" fill="#CEEA4D"/>
<rect x="259.438" y="162.476" width="86.025" height="86.025" rx="43.0125" fill="#FEFEFE"/>
<rect x="259.438" y="162.476" width="86.025" height="86.025" rx="43.0125" stroke="#1F4C95" stroke-width="4"/>
<path d="M302.449 195.876C302.384 195.876 302.319 195.864 302.257 195.84C302.057 195.761 301.926 195.568 301.926 195.353V193.455H299.713C299.424 193.455 299.189 193.222 299.189 192.932C299.189 191.911 299.574 190.936 300.271 190.189L302.066 188.266C302.212 188.109 302.44 188.058 302.641 188.137C302.84 188.215 302.972 188.409 302.972 188.623V190.521H305.186C305.474 190.521 305.709 190.755 305.709 191.044C305.709 192.066 305.325 193.041 304.627 193.788L302.832 195.71C302.731 195.818 302.592 195.876 302.45 195.876H302.449ZM300.281 192.41H302.449C302.737 192.41 302.972 192.644 302.972 192.933V194.027L303.862 193.074C304.257 192.651 304.517 192.128 304.617 191.568H302.449C302.16 191.568 301.925 191.334 301.925 191.044V189.95L301.035 190.903C300.64 191.327 300.38 191.849 300.281 192.41Z" fill="#1F4C95"/>
<path d="M304.251 203.499C303.715 203.499 303.194 203.315 302.772 202.968C302.234 202.526 301.926 201.874 301.926 201.179V199.967C301.926 199.678 302.16 199.443 302.45 199.443C302.739 199.443 302.973 199.677 302.973 199.967V201.179C302.973 201.56 303.143 201.918 303.438 202.161C303.737 202.407 304.127 202.505 304.508 202.429C309.433 201.457 313.009 197.103 313.009 192.076C313.009 189.199 311.871 186.509 309.804 184.504C307.738 182.5 305.015 181.448 302.129 181.529C296.715 181.69 292.226 186.044 291.91 191.44C291.652 195.824 294.173 199.959 298.182 201.73C298.446 201.847 298.565 202.157 298.448 202.421C298.331 202.685 298.022 202.803 297.758 202.687C293.352 200.739 290.583 196.194 290.864 191.379C291.212 185.446 296.146 180.66 302.097 180.484C305.268 180.384 308.262 181.551 310.533 183.754C312.804 185.957 314.056 188.914 314.056 192.076C314.056 197.601 310.125 202.386 304.71 203.455C304.559 203.485 304.406 203.5 304.254 203.5L304.251 203.499Z" fill="#1F4C95"/>
<path d="M302.448 200.49C297.758 200.49 293.942 196.677 293.942 191.989C293.942 187.302 297.758 183.489 302.448 183.489C307.139 183.489 310.955 187.302 310.955 191.989C310.955 195.005 309.334 197.821 306.723 199.34C306.474 199.486 306.153 199.402 306.008 199.152C305.863 198.903 305.948 198.582 306.197 198.437C308.487 197.104 309.908 194.634 309.908 191.989C309.908 187.878 306.562 184.534 302.448 184.534C298.335 184.534 294.988 187.878 294.988 191.989C294.988 196.1 298.335 199.445 302.448 199.445C302.737 199.445 302.972 199.678 302.972 199.968C302.972 200.257 302.738 200.491 302.448 200.491V200.49Z" fill="#1F4C95"/>
<path d="M276.084 217.5H273.24V209.28H276.084C278.736 209.28 279.372 210.696 279.372 213.252C279.372 215.856 278.796 217.5 276.084 217.5ZM277.992 213.252C277.992 211.452 277.74 210.444 276.084 210.444H274.572V216.324H276.084C277.74 216.324 277.992 215.052 277.992 213.252ZM280.771 217.5V211.5H282.079V217.5H280.771ZM280.771 210.48V209.1H282.079V210.48H280.771ZM288.106 213.348V216.084C288.13 216.444 288.286 216.588 288.634 216.636L288.598 217.632C287.866 217.632 287.446 217.536 287.002 217.188C287.002 217.188 286.042 217.632 285.07 217.632C283.882 217.632 283.282 216.972 283.282 215.724C283.282 214.452 283.978 214.02 285.262 213.912L286.81 213.78V213.348C286.81 212.688 286.522 212.484 285.934 212.484C285.13 212.484 283.678 212.604 283.678 212.604L283.63 211.68C283.63 211.68 284.938 211.368 286.042 211.368C287.506 211.368 288.106 211.98 288.106 213.348ZM286.81 214.704L285.418 214.836C284.866 214.884 284.59 215.148 284.59 215.688C284.59 216.228 284.818 216.564 285.322 216.564C286.006 216.564 286.81 216.3 286.81 216.3V214.704ZM292.22 220.284C290.408 220.284 289.46 219.924 289.46 218.556C289.46 217.944 289.76 217.572 290.372 217.104C290.12 216.936 289.976 216.6 289.976 216.228C289.976 215.952 290.408 215.268 290.408 215.268C289.964 215.004 289.544 214.548 289.544 213.468C289.544 211.956 290.564 211.38 291.944 211.38C292.496 211.38 293.168 211.536 293.168 211.536L295.028 211.488V212.544L294.032 212.484C294.188 212.688 294.356 213 294.356 213.468C294.356 215.1 293.504 215.544 291.908 215.544C291.788 215.544 291.488 215.52 291.38 215.496C291.38 215.496 291.212 215.904 291.212 216.06C291.212 216.444 291.344 216.516 292.508 216.528C294.404 216.54 294.992 216.936 294.992 218.316C294.992 219.732 293.828 220.284 292.22 220.284ZM292.4 217.656C292.028 217.656 291.224 217.584 291.224 217.584C290.888 217.86 290.744 218.064 290.744 218.436C290.744 218.988 291.14 219.216 292.232 219.216C293.204 219.216 293.684 218.976 293.684 218.388C293.684 217.74 293.372 217.668 292.4 217.656ZM291.944 214.536C292.748 214.536 293.06 214.2 293.06 213.468C293.06 212.748 292.748 212.4 291.944 212.4C291.176 212.4 290.84 212.748 290.84 213.468C290.84 214.2 291.176 214.536 291.944 214.536ZM297.361 217.5H296.053V211.5H297.349V211.872C297.349 211.872 298.225 211.368 299.005 211.368C300.673 211.368 301.081 212.316 301.081 214.284V217.5H299.785V214.32C299.785 213.12 299.629 212.532 298.717 212.532C298.021 212.532 297.361 212.844 297.361 212.844V217.5ZM304.992 211.368C306.996 211.368 307.668 212.52 307.668 214.464C307.668 216.456 307.056 217.632 304.992 217.632C302.94 217.632 302.316 216.456 302.316 214.464C302.316 212.52 302.988 211.368 304.992 211.368ZM304.992 216.528C306.108 216.528 306.348 215.856 306.348 214.464C306.348 213.072 306.048 212.472 304.992 212.472C303.936 212.472 303.636 213.072 303.636 214.464C303.636 215.856 303.876 216.528 304.992 216.528ZM303.396 209.736L303.708 210.588L306.636 209.652L306.228 208.524L303.396 209.736ZM313.155 211.644L313.131 212.736C313.131 212.736 311.715 212.544 310.995 212.544C310.275 212.544 309.951 212.712 309.951 213.204C309.951 213.6 310.203 213.708 311.379 213.912C312.819 214.164 313.335 214.524 313.335 215.724C313.335 217.128 312.447 217.632 310.959 217.632C310.131 217.632 308.739 217.368 308.739 217.368L308.787 216.276C308.787 216.276 310.227 216.468 310.839 216.468C311.703 216.468 312.039 216.288 312.039 215.76C312.039 215.34 311.835 215.208 310.647 215.016C309.327 214.8 308.655 214.512 308.655 213.24C308.655 211.884 309.711 211.38 310.899 211.38C311.775 211.38 313.155 211.644 313.155 211.644ZM317.82 212.616H316.164V215.256C316.164 216.156 316.2 216.468 316.824 216.468C317.16 216.468 317.808 216.432 317.808 216.432L317.868 217.476C317.868 217.476 317.064 217.632 316.644 217.632C315.288 217.632 314.868 217.128 314.868 215.4V212.616H314.1V211.5H314.868V209.76H316.164V211.5H317.82V212.616ZM318.893 217.5V211.5H320.201V217.5H318.893ZM318.893 210.48V209.1H320.201V210.48H318.893ZM324.031 211.368C324.667 211.368 325.831 211.596 325.831 211.596L325.783 212.628C325.783 212.628 324.835 212.532 324.379 212.532C323.131 212.532 322.843 213.036 322.843 214.416C322.843 215.952 323.095 216.468 324.391 216.468C324.847 216.468 325.795 216.372 325.795 216.372L325.831 217.416C325.831 217.416 324.619 217.632 324.007 217.632C322.159 217.632 321.523 216.72 321.523 214.416C321.523 212.268 322.243 211.368 324.031 211.368ZM329.425 211.368C331.429 211.368 332.101 212.52 332.101 214.464C332.101 216.456 331.489 217.632 329.425 217.632C327.373 217.632 326.749 216.456 326.749 214.464C326.749 212.52 327.421 211.368 329.425 211.368ZM329.425 216.528C330.541 216.528 330.781 215.856 330.781 214.464C330.781 213.072 330.481 212.472 329.425 212.472C328.369 212.472 328.069 213.072 328.069 214.464C328.069 215.856 328.309 216.528 329.425 216.528Z" fill="#1F4C95"/>
<rect x="439.624" y="162.476" width="86.025" height="86.025" rx="43.0125" fill="#E3EAC2"/>
<rect x="439.624" y="162.476" width="86.025" height="86.025" rx="43.0125" stroke="#1F4C95" stroke-width="4"/>
<path d="M476.789 191.59H471.024C470.73 191.59 470.49 191.352 470.49 191.056V185.296C470.49 185.002 470.729 184.762 471.024 184.762H476.789C477.084 184.762 477.324 185.001 477.324 185.296V191.056C477.324 191.35 477.085 191.59 476.789 191.59ZM471.559 190.523H476.255V185.831H471.559V190.523Z" fill="#1F4C95"/>
<path d="M476.789 193.754H471.024C470.73 193.754 470.49 193.515 470.49 193.219V191.055C470.49 190.76 470.729 190.521 471.024 190.521H476.789C477.084 190.521 477.324 190.759 477.324 191.055V193.219C477.324 193.514 477.085 193.754 476.789 193.754ZM471.559 192.686H476.255V191.589H471.559V192.686Z" fill="#1F4C95"/>
<path d="M475.523 185.83H472.292C471.997 185.83 471.757 185.591 471.757 185.295V183.131C471.757 182.836 471.996 182.596 472.292 182.596H475.523C475.818 182.596 476.058 182.835 476.058 183.131V185.295C476.058 185.59 475.819 185.83 475.523 185.83ZM472.826 184.762H474.99V183.666H472.826V184.762Z" fill="#1F4C95"/>
<path d="M473.907 183.666C473.613 183.666 473.373 183.427 473.373 183.132V180.701C473.373 180.407 473.612 180.167 473.907 180.167C474.203 180.167 474.442 180.406 474.442 180.701V183.132C474.442 183.426 474.203 183.666 473.907 183.666Z" fill="#1F4C95"/>
<path d="M485.518 191.59H479.755C479.46 191.59 479.22 191.352 479.22 191.056V185.296C479.22 185.002 479.459 184.762 479.755 184.762H485.518C485.813 184.762 486.053 185.001 486.053 185.296V191.056C486.053 191.35 485.814 191.59 485.518 191.59ZM480.29 190.523H484.985V185.831H480.29V190.523Z" fill="#1F4C95"/>
<path d="M485.518 193.754H479.755C479.46 193.754 479.22 193.515 479.22 193.219V191.055C479.22 190.76 479.459 190.521 479.755 190.521H485.518C485.813 190.521 486.053 190.759 486.053 191.055V193.219C486.053 193.514 485.814 193.754 485.518 193.754ZM480.29 192.686H484.985V191.589H480.29V192.686Z" fill="#1F4C95"/>
<path d="M484.252 185.83H481.021C480.726 185.83 480.486 185.591 480.486 185.295V183.131C480.486 182.836 480.725 182.596 481.021 182.596H484.252C484.547 182.596 484.787 182.835 484.787 183.131V185.295C484.787 185.59 484.548 185.83 484.252 185.83ZM481.555 184.762H483.719V183.666H481.555V184.762Z" fill="#1F4C95"/>
<path d="M482.636 183.666C482.342 183.666 482.102 183.427 482.102 183.132V180.701C482.102 180.407 482.341 180.167 482.636 180.167C482.932 180.167 483.171 180.406 483.171 180.701V183.132C483.171 183.426 482.932 183.666 482.636 183.666Z" fill="#1F4C95"/>
<path d="M494.248 191.59H488.483C488.189 191.59 487.949 191.352 487.949 191.056V185.296C487.949 185.002 488.188 184.762 488.483 184.762H494.248C494.543 184.762 494.783 185.001 494.783 185.296V191.056C494.783 191.35 494.544 191.59 494.248 191.59ZM489.018 190.523H493.714V185.831H489.018V190.523Z" fill="#1F4C95"/>
<path d="M494.248 193.754H488.483C488.189 193.754 487.949 193.515 487.949 193.219V191.055C487.949 190.76 488.188 190.521 488.483 190.521H494.248C494.543 190.521 494.783 190.759 494.783 191.055V193.219C494.783 193.514 494.544 193.754 494.248 193.754ZM489.018 192.686H493.714V191.589H489.018V192.686Z" fill="#1F4C95"/>
<path d="M492.981 185.83H489.75C489.455 185.83 489.215 185.591 489.215 185.295V183.131C489.215 182.836 489.454 182.596 489.75 182.596H492.981C493.276 182.596 493.516 182.835 493.516 183.131V185.295C493.516 185.59 493.277 185.83 492.981 185.83ZM490.284 184.762H492.448V183.666H490.284V184.762Z" fill="#1F4C95"/>
<path d="M491.365 183.666C491.071 183.666 490.831 183.427 490.831 183.132V180.701C490.831 180.407 491.07 180.167 491.365 180.167C491.661 180.167 491.9 180.406 491.9 180.701V183.132C491.9 183.426 491.661 183.666 491.365 183.666Z" fill="#1F4C95"/>
<path d="M483.945 203.809H481.327C481.032 203.809 480.792 203.571 480.792 203.275V193.219C480.792 192.925 481.031 192.685 481.327 192.685H483.945C484.239 192.685 484.479 192.924 484.479 193.219V203.275C484.479 203.569 484.24 203.809 483.945 203.809ZM481.861 202.742H483.41V193.754H481.861V202.742Z" fill="#1F4C95"/>
<path d="M478.788 203.809H476.17C475.876 203.809 475.636 203.571 475.636 203.275V201.082L472.219 197.668C472.119 197.567 472.063 197.432 472.063 197.291V193.219C472.063 192.925 472.302 192.685 472.598 192.685H475.216C475.51 192.685 475.75 192.924 475.75 193.219V195.986L479.167 199.4C479.267 199.5 479.323 199.636 479.323 199.777V203.274C479.323 203.568 479.084 203.808 478.788 203.808V203.809ZM476.705 202.742H478.253V199.999L474.837 196.585C474.736 196.485 474.681 196.349 474.681 196.208V193.754H473.132V197.07L476.549 200.484C476.649 200.584 476.705 200.72 476.705 200.861V202.741V202.742Z" fill="#1F4C95"/>
<path d="M489.101 203.809H486.483C486.189 203.809 485.949 203.571 485.949 203.275V199.778C485.949 199.636 486.006 199.5 486.105 199.401L489.521 195.987V193.221C489.521 192.926 489.76 192.686 490.056 192.686H492.674C492.968 192.686 493.209 192.925 493.209 193.221V197.292C493.209 197.434 493.152 197.57 493.052 197.669L489.636 201.083V203.276C489.636 203.571 489.397 203.811 489.101 203.811V203.809ZM487.018 202.742H488.567V200.862C488.567 200.72 488.623 200.584 488.723 200.485L492.139 197.071V193.755H490.591V196.209C490.591 196.351 490.534 196.487 490.434 196.586L487.018 200V202.743V202.742Z" fill="#1F4C95"/>
<path d="M463.844 215.255H462.164V217.811H460.832V209.591H463.844C465.716 209.591 466.64 210.503 466.64 212.351C466.64 214.211 465.716 215.255 463.844 215.255ZM462.164 214.103H463.832C464.828 214.103 465.272 213.491 465.272 212.351C465.272 211.223 464.828 210.743 463.832 210.743H462.164V214.103ZM467.766 217.811V211.811H469.062V212.531C469.062 212.531 470.082 211.871 471.102 211.679V212.987C470.01 213.203 469.074 213.623 469.074 213.623V217.811H467.766ZM474.443 211.679C476.447 211.679 477.119 212.831 477.119 214.775C477.119 216.767 476.507 217.943 474.443 217.943C472.391 217.943 471.767 216.767 471.767 214.775C471.767 212.831 472.439 211.679 474.443 211.679ZM474.443 216.839C475.559 216.839 475.799 216.167 475.799 214.775C475.799 213.383 475.499 212.783 474.443 212.783C473.387 212.783 473.087 213.383 473.087 214.775C473.087 216.167 473.327 216.839 474.443 216.839ZM477.761 211.811H479.045L480.317 216.695H480.641L481.913 211.811H483.209L480.929 220.391H479.645L480.365 217.811H479.333L477.761 211.811ZM486.514 216.803C487.462 216.803 488.722 216.695 488.722 216.695L488.746 217.667C488.746 217.667 487.378 217.943 486.322 217.943C484.522 217.943 483.826 216.983 483.826 214.871C483.826 212.675 484.774 211.679 486.43 211.679C488.11 211.679 488.95 212.555 488.95 214.427L488.866 215.363H485.146C485.158 216.323 485.518 216.803 486.514 216.803ZM485.134 214.355H487.666C487.666 213.155 487.306 212.759 486.43 212.759C485.542 212.759 485.146 213.203 485.134 214.355ZM492.452 211.679C493.088 211.679 494.252 211.907 494.252 211.907L494.204 212.939C494.204 212.939 493.256 212.843 492.8 212.843C491.552 212.843 491.264 213.347 491.264 214.727C491.264 216.263 491.516 216.779 492.812 216.779C493.268 216.779 494.216 216.683 494.216 216.683L494.252 217.727C494.252 217.727 493.04 217.943 492.428 217.943C490.58 217.943 489.944 217.031 489.944 214.727C489.944 212.579 490.664 211.679 492.452 211.679ZM498.744 212.927H497.088V215.567C497.088 216.467 497.124 216.779 497.748 216.779C498.084 216.779 498.732 216.743 498.732 216.743L498.792 217.787C498.792 217.787 497.988 217.943 497.568 217.943C496.212 217.943 495.792 217.439 495.792 215.711V212.927H495.024V211.811H495.792V210.071H497.088V211.811H498.744V212.927ZM502.205 211.679C504.209 211.679 504.881 212.831 504.881 214.775C504.881 216.767 504.269 217.943 502.205 217.943C500.153 217.943 499.529 216.767 499.529 214.775C499.529 212.831 500.201 211.679 502.205 211.679ZM502.205 216.839C503.321 216.839 503.561 216.167 503.561 214.775C503.561 213.383 503.261 212.783 502.205 212.783C501.149 212.783 500.849 213.383 500.849 214.775C500.849 216.167 501.089 216.839 502.205 216.839ZM462.69 228.803C463.638 228.803 464.898 228.695 464.898 228.695L464.922 229.667C464.922 229.667 463.554 229.943 462.498 229.943C460.698 229.943 460.002 228.983 460.002 226.871C460.002 224.675 460.95 223.679 462.606 223.679C464.286 223.679 465.126 224.555 465.126 226.427L465.042 227.363H461.322C461.334 228.323 461.694 228.803 462.69 228.803ZM461.31 226.355H463.842C463.842 225.155 463.482 224.759 462.606 224.759C461.718 224.759 461.322 225.203 461.31 226.355ZM466.395 229.583V223.811H467.691V229.595C467.691 231.179 467.259 231.707 465.615 232.535L465.099 231.563C466.191 230.879 466.395 230.663 466.395 229.583ZM466.395 222.791V221.411H467.691V222.791H466.395ZM471.69 228.803C472.638 228.803 473.898 228.695 473.898 228.695L473.922 229.667C473.922 229.667 472.554 229.943 471.498 229.943C469.698 229.943 469.002 228.983 469.002 226.871C469.002 224.675 469.95 223.679 471.606 223.679C473.286 223.679 474.126 224.555 474.126 226.427L474.042 227.363H470.322C470.334 228.323 470.694 228.803 471.69 228.803ZM470.31 226.355H472.842C472.842 225.155 472.482 224.759 471.606 224.759C470.718 224.759 470.322 225.203 470.31 226.355ZM477.627 223.679C478.263 223.679 479.427 223.907 479.427 223.907L479.379 224.939C479.379 224.939 478.431 224.843 477.975 224.843C476.727 224.843 476.439 225.347 476.439 226.727C476.439 228.263 476.691 228.779 477.987 228.779C478.443 228.779 479.391 228.683 479.391 228.683L479.427 229.727C479.427 229.727 478.215 229.943 477.603 229.943C475.755 229.943 475.119 229.031 475.119 226.727C475.119 224.579 475.839 223.679 477.627 223.679ZM484.328 223.811H485.624V229.811H484.328V229.439C484.328 229.439 483.452 229.943 482.708 229.943C480.992 229.943 480.632 229.055 480.632 226.943V223.811H481.94V226.955C481.94 228.287 482.024 228.779 482.96 228.779C483.68 228.779 484.328 228.467 484.328 228.467V223.811ZM490.436 224.927H488.78V227.567C488.78 228.467 488.816 228.779 489.44 228.779C489.776 228.779 490.424 228.743 490.424 228.743L490.484 229.787C490.484 229.787 489.68 229.943 489.26 229.943C487.904 229.943 487.484 229.439 487.484 227.711V224.927H486.716V223.811H487.484V222.071H488.78V223.811H490.436V224.927ZM491.508 229.811V223.811H492.816V229.811H491.508ZM491.508 222.791V221.411H492.816V222.791H491.508ZM493.839 223.811H495.207L496.359 228.695H496.743L497.943 223.811H499.275L497.715 229.811H495.387L493.839 223.811ZM502.592 223.679C504.596 223.679 505.268 224.831 505.268 226.775C505.268 228.767 504.656 229.943 502.592 229.943C500.54 229.943 499.916 228.767 499.916 226.775C499.916 224.831 500.588 223.679 502.592 223.679ZM502.592 228.839C503.708 228.839 503.948 228.167 503.948 226.775C503.948 225.383 503.648 224.783 502.592 224.783C501.536 224.783 501.236 225.383 501.236 226.775C501.236 228.167 501.476 228.839 502.592 228.839Z" fill="#1F4C95"/>
<rect x="532.406" y="317.114" width="86.025" height="86.025" rx="43.0125" fill="#E1ECAC"/>
<rect x="532.406" y="317.114" width="86.025" height="86.025" rx="43.0125" stroke="#1F4C95" stroke-width="4"/>
<path d="M591.873 346.378H558.965C558.519 346.378 558.156 346.017 558.156 345.57V336.269C558.156 335.824 558.518 335.462 558.965 335.462H591.873C592.318 335.462 592.681 335.823 592.681 336.269V345.57C592.681 346.015 592.32 346.378 591.873 346.378ZM559.771 344.764H591.064V337.077H559.771V344.764Z" fill="#1F4C95"/>
<path d="M587.919 363.639H562.919C562.504 363.639 562.155 363.324 562.116 362.911L560.916 350.783H559.828C559.383 350.783 559.02 350.422 559.02 349.976V345.57C559.02 345.125 559.381 344.762 559.828 344.762H591.009C591.454 344.762 591.817 345.123 591.817 345.57V349.976C591.817 350.421 591.456 350.783 591.009 350.783H589.922L588.722 362.911C588.68 363.324 588.334 363.639 587.919 363.639ZM563.65 362.025H587.187L588.387 349.897C588.428 349.484 588.775 349.169 589.19 349.169H590.201V346.378H560.635V349.169H561.645C562.06 349.169 562.409 349.484 562.448 349.897L563.648 362.025H563.65Z" fill="#1F4C95"/>
<path d="M569.854 349.925H565.919C565.474 349.925 565.111 349.564 565.111 349.118V342.022C565.111 341.577 565.472 341.215 565.919 341.215H569.854C570.299 341.215 570.662 341.576 570.662 342.022V349.118C570.662 349.563 570.301 349.925 569.854 349.925ZM566.728 348.312H569.047V342.83H566.728V348.312Z" fill="#1F4C95"/>
<path d="M584.916 349.925H580.981C580.536 349.925 580.173 349.564 580.173 349.118V342.022C580.173 341.577 580.534 341.215 580.981 341.215H584.916C585.361 341.215 585.724 341.576 585.724 342.022V349.118C585.724 349.563 585.363 349.925 584.916 349.925ZM581.79 348.312H584.109V342.83H581.79V348.312Z" fill="#1F4C95"/>
<path d="M584.517 337.077H566.32C565.875 337.077 565.512 336.716 565.512 336.269V332.892C565.512 331.085 566.984 329.614 568.792 329.614H582.044C583.852 329.614 585.323 331.085 585.323 332.892V336.269C585.323 336.714 584.962 337.077 584.515 337.077H584.517ZM567.127 335.463H583.709V332.893C583.709 331.976 582.961 331.229 582.044 331.229H568.792C567.874 331.229 567.127 331.976 567.127 332.893V335.463Z" fill="#1F4C95"/>
<path d="M553.128 370.607V369.419H559.128V370.607H556.812V377.639H555.468V370.607H553.128ZM559.271 377.639V371.639H560.567V372.359C560.567 372.359 561.587 371.699 562.607 371.507V372.815C561.515 373.031 560.579 373.451 560.579 373.451V377.639H559.271ZM568.047 373.487V376.223C568.071 376.583 568.227 376.727 568.575 376.775L568.539 377.771C567.807 377.771 567.387 377.675 566.943 377.327C566.943 377.327 565.983 377.771 565.011 377.771C563.823 377.771 563.223 377.111 563.223 375.863C563.223 374.591 563.919 374.159 565.203 374.051L566.751 373.919V373.487C566.751 372.827 566.463 372.623 565.875 372.623C565.071 372.623 563.619 372.743 563.619 372.743L563.571 371.819C563.571 371.819 564.879 371.507 565.983 371.507C567.447 371.507 568.047 372.119 568.047 373.487ZM566.751 374.843L565.359 374.975C564.807 375.023 564.531 375.287 564.531 375.827C564.531 376.367 564.759 376.703 565.263 376.703C565.947 376.703 566.751 376.439 566.751 376.439V374.843ZM564.075 369.875L566.907 368.663L567.315 369.791L564.387 370.727L564.075 369.875ZM570.997 377.639H569.689V371.639H570.985V372.011C570.985 372.011 571.837 371.507 572.545 371.507C573.277 371.507 573.733 371.687 574.069 372.095C574.069 372.095 575.161 371.507 576.133 371.507C577.765 371.507 578.209 372.383 578.209 374.423V377.639H576.913V374.459C576.913 373.259 576.769 372.671 575.893 372.671C575.233 372.671 574.525 372.995 574.525 372.995C574.573 373.115 574.621 373.943 574.621 374.531V377.639H573.325V374.555C573.325 373.223 573.193 372.671 572.293 372.671C571.621 372.671 570.997 372.983 570.997 372.983V377.639ZM579.744 377.639V371.639H581.052V377.639H579.744ZM579.744 370.619V369.239H581.052V370.619H579.744ZM585.867 372.755H584.211V375.395C584.211 376.295 584.247 376.607 584.871 376.607C585.207 376.607 585.855 376.571 585.855 376.571L585.915 377.615C585.915 377.615 585.111 377.771 584.691 377.771C583.335 377.771 582.915 377.267 582.915 375.539V372.755H582.147V371.639H582.915V369.899H584.211V371.639H585.867V372.755ZM589.339 376.631C590.287 376.631 591.547 376.523 591.547 376.523L591.571 377.495C591.571 377.495 590.203 377.771 589.147 377.771C587.347 377.771 586.651 376.811 586.651 374.699C586.651 372.503 587.599 371.507 589.255 371.507C590.935 371.507 591.775 372.383 591.775 374.255L591.691 375.191H587.971C587.983 376.151 588.343 376.631 589.339 376.631ZM587.959 374.183H590.491C590.491 372.983 590.131 372.587 589.255 372.587C588.367 372.587 587.971 373.031 587.959 374.183ZM597.221 371.783L597.197 372.875C597.197 372.875 595.781 372.683 595.061 372.683C594.341 372.683 594.017 372.851 594.017 373.343C594.017 373.739 594.269 373.847 595.445 374.051C596.885 374.303 597.401 374.663 597.401 375.863C597.401 377.267 596.513 377.771 595.025 377.771C594.197 377.771 592.805 377.507 592.805 377.507L592.853 376.415C592.853 376.415 594.293 376.607 594.905 376.607C595.769 376.607 596.105 376.427 596.105 375.899C596.105 375.479 595.901 375.347 594.713 375.155C593.393 374.939 592.721 374.651 592.721 373.379C592.721 372.023 593.777 371.519 594.965 371.519C595.841 371.519 597.221 371.783 597.221 371.783Z" fill="#1F4C95"/>
<rect x="439.624" y="470.406" width="86.025" height="86.025" rx="43.0125" fill="#E6F991"/>
<rect x="439.624" y="470.406" width="86.025" height="86.025" rx="43.0125" stroke="#1F4C95" stroke-width="4"/>
<path d="M482.635 499.694C482.538 499.694 482.442 499.677 482.35 499.64C482.053 499.523 481.856 499.234 481.856 498.915V494.747H477.042C476.611 494.747 476.26 494.398 476.26 493.966C476.26 491.95 477.019 490.029 478.395 488.556L482.065 484.627C482.284 484.392 482.623 484.316 482.922 484.434C483.219 484.551 483.416 484.84 483.416 485.159V489.328H488.23C488.661 489.328 489.012 489.677 489.012 490.108C489.012 492.124 488.253 494.045 486.877 495.519L483.207 499.449C483.057 499.609 482.849 499.696 482.637 499.696L482.635 499.694ZM477.87 493.185H482.637C483.067 493.185 483.418 493.534 483.418 493.966V496.935L485.738 494.453C486.664 493.461 487.242 492.218 487.404 490.888H482.637C482.206 490.888 481.856 490.539 481.856 490.107V487.136L479.536 489.618C478.609 490.609 478.032 491.855 477.87 493.185Z" fill="#1F4C95"/>
<path d="M476.188 510.901H470.727C470.297 510.901 469.946 510.552 469.946 510.121V506.571L466.778 504.55C466.242 504.208 465.816 503.724 465.547 503.15L464.987 501.958C464.257 500.406 463.922 498.68 464.015 496.968L464.373 490.418C464.446 489.065 465.566 488.006 466.923 488.006C467.569 488.006 468.172 488.262 468.622 488.728C469.071 489.193 469.305 489.806 469.28 490.45L469.134 494.33C469.932 494.366 470.655 494.826 471.021 495.55L472.732 498.922L475.056 500.521C476.253 501.345 476.969 502.706 476.969 504.159V510.119C476.969 510.549 476.62 510.9 476.188 510.9V510.901ZM471.507 509.341H475.406V504.163C475.406 503.223 474.943 502.342 474.169 501.808L471.681 500.096C471.574 500.022 471.486 499.922 471.427 499.806L469.626 496.256C469.503 496.013 469.246 495.868 468.978 495.89C468.904 495.895 468.834 495.918 468.772 495.954C468.758 495.964 468.743 495.975 468.729 495.983C468.703 496.004 468.677 496.028 468.655 496.054C468.573 496.151 468.535 496.274 468.548 496.4C468.722 498.191 469.422 499.868 470.572 501.255L471.325 502.164C471.6 502.496 471.555 502.988 471.223 503.263C470.891 503.539 470.399 503.492 470.124 503.161L469.37 502.252C468.022 500.627 467.199 498.656 466.995 496.553C466.942 496.006 467.108 495.472 467.462 495.051C467.49 495.018 467.517 494.987 467.547 494.957L467.72 490.392C467.728 490.174 467.649 489.967 467.498 489.81C467.346 489.652 467.142 489.566 466.924 489.566C466.397 489.566 465.963 489.977 465.934 490.502L465.576 497.053C465.497 498.509 465.784 499.975 466.402 501.295L466.962 502.487C467.106 502.795 467.334 503.052 467.619 503.235L471.147 505.486C471.372 505.629 471.509 505.878 471.509 506.144V509.341H471.507Z" fill="#1F4C95"/>
<path d="M479.131 515.458H467.815C467.384 515.458 467.033 515.109 467.033 514.677V510.121C467.033 509.69 467.382 509.34 467.815 509.34H479.131C479.562 509.34 479.913 509.689 479.913 510.121V514.677C479.913 515.108 479.563 515.458 479.131 515.458ZM468.594 513.897H478.35V510.9H468.594V513.897Z" fill="#1F4C95"/>
<path d="M494.545 510.901H489.085C488.654 510.901 488.303 510.552 488.303 510.121V504.161C488.303 502.706 489.019 501.347 490.217 500.523L492.54 498.923L494.251 495.55C494.619 494.826 495.342 494.365 496.139 494.33L495.992 490.45C495.968 489.804 496.201 489.193 496.65 488.728C497.098 488.262 497.701 488.006 498.35 488.006C499.705 488.006 500.825 489.067 500.899 490.419L501.257 496.97C501.35 498.682 501.015 500.407 500.286 501.96L499.725 503.152C499.456 503.726 499.031 504.209 498.495 504.551L495.326 506.572V510.122C495.326 510.552 494.977 510.903 494.545 510.903V510.901ZM489.864 509.341H493.764V506.144C493.764 505.878 493.9 505.631 494.125 505.486L497.653 503.235C497.94 503.052 498.166 502.795 498.31 502.487L498.87 501.295C499.49 499.975 499.776 498.509 499.696 497.053L499.338 490.502C499.309 489.977 498.875 489.564 498.348 489.564C498.128 489.564 497.926 489.651 497.774 489.808C497.622 489.965 497.544 490.172 497.553 490.39L497.726 494.956C497.755 494.985 497.783 495.018 497.81 495.049C498.165 495.47 498.331 496.004 498.277 496.552C498.071 498.654 497.25 500.625 495.902 502.25L495.148 503.159C494.873 503.491 494.381 503.537 494.049 503.261C493.717 502.986 493.67 502.494 493.947 502.162L494.701 501.254C495.85 499.868 496.55 498.189 496.725 496.398C496.737 496.272 496.699 496.149 496.618 496.052C496.595 496.027 496.571 496.002 496.543 495.982C496.528 495.971 496.514 495.963 496.5 495.952C496.438 495.916 496.369 495.894 496.294 495.888C496.021 495.859 495.769 496.011 495.646 496.255L493.845 499.804C493.786 499.92 493.698 500.02 493.591 500.095L491.103 501.806C490.329 502.34 489.866 503.219 489.866 504.161V509.34L489.864 509.341Z" fill="#1F4C95"/>
<path d="M497.457 515.458H486.141C485.71 515.458 485.359 515.109 485.359 514.677V510.121C485.359 509.69 485.709 509.34 486.141 509.34H497.457C497.888 509.34 498.239 509.689 498.239 510.121V514.677C498.239 515.108 497.89 515.458 497.457 515.458ZM486.92 513.897H496.676V510.9H486.92V513.897Z" fill="#1F4C95"/>
<path d="M456.207 521.382L456.099 522.462C456.099 522.462 454.419 522.27 453.723 522.27C452.715 522.27 452.199 522.63 452.199 523.338C452.199 524.106 452.631 524.286 454.035 524.67C455.763 525.15 456.387 525.606 456.387 527.01C456.387 528.81 455.259 529.59 453.639 529.59C452.571 529.59 450.951 529.266 450.951 529.266L451.083 528.198C451.083 528.198 452.703 528.414 453.555 528.414C454.575 528.414 455.043 527.958 455.043 527.094C455.043 526.398 454.671 526.158 453.411 525.858C451.635 525.402 450.867 524.862 450.867 523.434C450.867 521.778 451.959 521.094 453.603 521.094C454.647 521.094 456.207 521.382 456.207 521.382ZM461.306 523.458H462.602V529.458H461.306V529.086C461.306 529.086 460.43 529.59 459.686 529.59C457.97 529.59 457.61 528.702 457.61 526.59V523.458H458.918V526.602C458.918 527.934 459.002 528.426 459.938 528.426C460.658 528.426 461.306 528.114 461.306 528.114V523.458ZM465.494 529.458H464.186V523.458H465.482V523.83C465.482 523.83 466.334 523.326 467.042 523.326C467.774 523.326 468.23 523.506 468.566 523.914C468.566 523.914 469.658 523.326 470.63 523.326C472.262 523.326 472.706 524.202 472.706 526.242V529.458H471.41V526.278C471.41 525.078 471.266 524.49 470.39 524.49C469.73 524.49 469.022 524.814 469.022 524.814C469.07 524.934 469.118 525.762 469.118 526.35V529.458H467.822V526.374C467.822 525.042 467.69 524.49 466.79 524.49C466.118 524.49 465.494 524.802 465.494 524.802V529.458ZM474.241 529.458V523.458H475.549V529.458H474.241ZM474.241 522.438V521.058H475.549V522.438H474.241ZM478.443 529.458H477.135V523.458H478.431V523.83C478.431 523.83 479.307 523.326 480.087 523.326C481.755 523.326 482.163 524.274 482.163 526.242V529.458H480.867V526.278C480.867 525.078 480.711 524.49 479.799 524.49C479.103 524.49 478.443 524.802 478.443 524.802V529.458ZM483.686 529.458V523.458H484.994V529.458H483.686ZM483.686 522.438V521.058H484.994V522.438H483.686ZM490.769 523.602L490.745 524.694C490.745 524.694 489.329 524.502 488.609 524.502C487.889 524.502 487.565 524.67 487.565 525.162C487.565 525.558 487.817 525.666 488.993 525.87C490.433 526.122 490.949 526.482 490.949 527.682C490.949 529.086 490.061 529.59 488.573 529.59C487.745 529.59 486.353 529.326 486.353 529.326L486.401 528.234C486.401 528.234 487.841 528.426 488.453 528.426C489.317 528.426 489.653 528.246 489.653 527.718C489.653 527.298 489.449 527.166 488.261 526.974C486.941 526.758 486.269 526.47 486.269 525.198C486.269 523.842 487.325 523.338 488.513 523.338C489.389 523.338 490.769 523.602 490.769 523.602ZM495.434 524.574H493.778V527.214C493.778 528.114 493.814 528.426 494.438 528.426C494.774 528.426 495.422 528.39 495.422 528.39L495.482 529.434C495.482 529.434 494.678 529.59 494.258 529.59C492.902 529.59 492.482 529.086 492.482 527.358V524.574H491.714V523.458H492.482V521.718H493.778V523.458H495.434V524.574ZM496.506 529.458V523.458H497.802V524.178C497.802 524.178 498.822 523.518 499.842 523.326V524.634C498.75 524.85 497.814 525.27 497.814 525.27V529.458H496.506ZM503.183 523.326C505.187 523.326 505.859 524.478 505.859 526.422C505.859 528.414 505.247 529.59 503.183 529.59C501.131 529.59 500.507 528.414 500.507 526.422C500.507 524.478 501.179 523.326 503.183 523.326ZM503.183 528.486C504.299 528.486 504.539 527.814 504.539 526.422C504.539 525.03 504.239 524.43 503.183 524.43C502.127 524.43 501.827 525.03 501.827 526.422C501.827 527.814 502.067 528.486 503.183 528.486ZM509.243 523.458H510.527L511.799 528.342H512.123L513.395 523.458H514.691L512.411 532.038H511.127L511.847 529.458H510.815L509.243 523.458ZM461.811 540.45C462.759 540.45 464.019 540.342 464.019 540.342L464.043 541.314C464.043 541.314 462.675 541.59 461.619 541.59C459.819 541.59 459.123 540.63 459.123 538.518C459.123 536.322 460.071 535.326 461.727 535.326C463.407 535.326 464.247 536.202 464.247 538.074L464.163 539.01H460.443C460.455 539.97 460.815 540.45 461.811 540.45ZM460.431 538.002H462.963C462.963 536.802 462.603 536.406 461.727 536.406C460.839 536.406 460.443 536.85 460.431 538.002ZM465.516 541.23V535.458H466.812V541.242C466.812 542.826 466.38 543.354 464.736 544.182L464.22 543.21C465.312 542.526 465.516 542.31 465.516 541.23ZM465.516 534.438V533.058H466.812V534.438H465.516ZM470.811 540.45C471.759 540.45 473.019 540.342 473.019 540.342L473.043 541.314C473.043 541.314 471.675 541.59 470.619 541.59C468.819 541.59 468.123 540.63 468.123 538.518C468.123 536.322 469.071 535.326 470.727 535.326C472.407 535.326 473.247 536.202 473.247 538.074L473.163 539.01H469.443C469.455 539.97 469.815 540.45 470.811 540.45ZM469.431 538.002H471.963C471.963 536.802 471.603 536.406 470.727 536.406C469.839 536.406 469.443 536.85 469.431 538.002ZM476.748 535.326C477.384 535.326 478.548 535.554 478.548 535.554L478.5 536.586C478.5 536.586 477.552 536.49 477.096 536.49C475.848 536.49 475.56 536.994 475.56 538.374C475.56 539.91 475.812 540.426 477.108 540.426C477.564 540.426 478.512 540.33 478.512 540.33L478.548 541.374C478.548 541.374 477.336 541.59 476.724 541.59C474.876 541.59 474.24 540.678 474.24 538.374C474.24 536.226 474.96 535.326 476.748 535.326ZM483.449 535.458H484.745V541.458H483.449V541.086C483.449 541.086 482.573 541.59 481.829 541.59C480.113 541.59 479.753 540.702 479.753 538.59V535.458H481.061V538.602C481.061 539.934 481.145 540.426 482.081 540.426C482.801 540.426 483.449 540.114 483.449 540.114V535.458ZM488.573 535.326C489.209 535.326 490.373 535.554 490.373 535.554L490.325 536.586C490.325 536.586 489.377 536.49 488.921 536.49C487.673 536.49 487.385 536.994 487.385 538.374C487.385 539.91 487.637 540.426 488.933 540.426C489.389 540.426 490.337 540.33 490.337 540.33L490.373 541.374C490.373 541.374 489.161 541.59 488.549 541.59C486.701 541.59 486.065 540.678 486.065 538.374C486.065 536.226 486.785 535.326 488.573 535.326ZM491.637 541.458V535.458H492.945V541.458H491.637ZM491.637 534.438V533.058H492.945V534.438H491.637ZM496.92 535.326C498.924 535.326 499.596 536.478 499.596 538.422C499.596 540.414 498.984 541.59 496.92 541.59C494.868 541.59 494.244 540.414 494.244 538.422C494.244 536.478 494.916 535.326 496.92 535.326ZM496.92 540.486C498.036 540.486 498.276 539.814 498.276 538.422C498.276 537.03 497.976 536.43 496.92 536.43C495.864 536.43 495.564 537.03 495.564 538.422C495.564 539.814 495.804 540.486 496.92 540.486ZM495.324 533.694L495.636 534.546L498.564 533.61L498.156 532.482L495.324 533.694ZM502.203 541.458H500.895V535.458H502.191V535.83C502.191 535.83 503.067 535.326 503.847 535.326C505.515 535.326 505.923 536.274 505.923 538.242V541.458H504.627V538.278C504.627 537.078 504.471 536.49 503.559 536.49C502.863 536.49 502.203 536.802 502.203 536.802V541.458Z" fill="#1F4C95"/>
<rect x="259.438" y="470.406" width="86.025" height="86.025" rx="43.0125" fill="#D6EC72"/>
<rect x="259.438" y="470.406" width="86.025" height="86.025" rx="43.0125" stroke="#1F4C95" stroke-width="4"/>
<path d="M295.315 515.431C292.607 515.431 290.404 513.23 290.404 510.524V503.737C290.404 503.35 290.718 503.035 291.106 503.035H299.523C299.91 503.035 300.225 503.349 300.225 503.737V510.524C300.225 513.23 298.022 515.431 295.315 515.431ZM291.807 504.437V510.524C291.807 512.457 293.381 514.029 295.315 514.029C297.249 514.029 298.822 512.457 298.822 510.524V504.437H291.809H291.807Z" fill="#1F4C95"/>
<path d="M301.19 504.437H289.44C289.053 504.437 288.738 504.124 288.738 503.735V501.514C288.738 501.127 289.052 500.812 289.44 500.812H301.19C301.577 500.812 301.892 501.126 301.892 501.514V503.735C301.892 504.122 301.578 504.437 301.19 504.437ZM290.141 503.035H300.488V502.216H290.141V503.035Z" fill="#1F4C95"/>
<path d="M297.137 502.217H293.491C293.104 502.217 292.789 501.904 292.789 501.515V490.189C292.789 489.803 293.103 489.487 293.491 489.487H297.137C297.524 489.487 297.839 489.801 297.839 490.189V501.515C297.839 501.902 297.525 502.217 297.137 502.217ZM294.193 500.815H296.437V490.891H294.193V500.815Z" fill="#1F4C95"/>
<path d="M298.412 490.891H292.216C292.001 490.891 291.798 490.791 291.664 490.624C291.531 490.454 291.482 490.236 291.534 490.026L292.755 484.945C292.831 484.63 293.112 484.408 293.437 484.408H297.191C297.516 484.408 297.797 484.63 297.873 484.945L299.094 490.026C299.144 490.236 299.096 490.454 298.964 490.624C298.83 490.791 298.628 490.891 298.412 490.891ZM293.106 489.489H297.522L296.638 485.81H293.99L293.106 489.489Z" fill="#1F4C95"/>
<path d="M309.086 515.431C306.354 515.431 304.131 513.21 304.131 510.479C304.131 507.748 306.354 505.527 309.086 505.527C311.819 505.527 314.042 507.748 314.042 510.479C314.042 513.21 311.819 515.431 309.086 515.431ZM309.086 506.927C307.127 506.927 305.534 508.52 305.534 510.478C305.534 512.435 307.127 514.028 309.086 514.028C311.045 514.028 312.639 512.435 312.639 510.478C312.639 508.52 311.045 506.927 309.086 506.927Z" fill="#1F4C95"/>
<path d="M309.086 513.062C307.66 513.062 306.5 511.903 306.5 510.478C306.5 509.052 307.66 507.893 309.086 507.893C310.512 507.893 311.672 509.052 311.672 510.478C311.672 511.903 310.512 513.062 309.086 513.062ZM309.086 509.296C308.434 509.296 307.902 509.827 307.902 510.479C307.902 511.131 308.434 511.662 309.086 511.662C309.738 511.662 310.27 511.131 310.27 510.479C310.27 509.827 309.738 509.296 309.086 509.296Z" fill="#1F4C95"/>
<path d="M310.767 507.755H307.405C307.018 507.755 306.703 507.441 306.703 507.053V494.359C306.703 493.972 307.017 493.657 307.405 493.657H310.767C311.154 493.657 311.469 493.971 311.469 494.359V507.053C311.469 507.44 311.155 507.755 310.767 507.755ZM308.106 506.353H310.065V495.061H308.106V506.353Z" fill="#1F4C95"/>
<path d="M311.757 495.061H306.411C306.223 495.061 306.045 494.986 305.913 494.852L302.214 491.119C302.012 490.914 301.954 490.607 302.071 490.344L304.497 484.825C304.609 484.571 304.861 484.406 305.139 484.406H306.795C307.182 484.406 307.497 484.72 307.497 485.108V488.019L308.347 489.492H309.827L310.677 488.019V485.108C310.677 484.721 310.991 484.406 311.379 484.406H313.03C313.308 484.406 313.56 484.571 313.672 484.825L316.103 490.344C316.22 490.608 316.162 490.916 315.959 491.121L312.255 494.854C312.123 494.988 311.945 495.062 311.757 495.062V495.061ZM306.705 493.659H311.465L314.626 490.472L312.571 485.808H312.078V488.205C312.078 488.328 312.045 488.449 311.985 488.554L310.84 490.54C310.714 490.757 310.483 490.891 310.233 490.891H307.941C307.691 490.891 307.458 490.757 307.334 490.54L306.188 488.554C306.125 488.449 306.094 488.328 306.094 488.205V485.808H305.599L303.548 490.472L306.705 493.659Z" fill="#1F4C95"/>
<path d="M285.322 526.875H283.642V529.431H282.31V521.211H285.322C287.194 521.211 288.118 522.123 288.118 523.971C288.118 525.831 287.194 526.875 285.322 526.875ZM283.642 525.723H285.31C286.306 525.723 286.75 525.111 286.75 523.971C286.75 522.843 286.306 522.363 285.31 522.363H283.642V525.723ZM289.244 529.431V523.431H290.54V524.151C290.54 524.151 291.56 523.491 292.58 523.299V524.607C291.488 524.823 290.552 525.243 290.552 525.243V529.431H289.244ZM297.216 523.431H298.512V529.431H297.216V529.059C297.216 529.059 296.34 529.563 295.596 529.563C293.88 529.563 293.52 528.675 293.52 526.563V523.431H294.828V526.575C294.828 527.907 294.912 528.399 295.848 528.399C296.568 528.399 297.216 528.087 297.216 528.087V523.431ZM302.496 528.423C303.444 528.423 304.704 528.315 304.704 528.315L304.728 529.287C304.728 529.287 303.36 529.563 302.304 529.563C300.504 529.563 299.808 528.603 299.808 526.491C299.808 524.295 300.756 523.299 302.412 523.299C304.092 523.299 304.932 524.175 304.932 526.047L304.848 526.983H301.128C301.14 527.943 301.5 528.423 302.496 528.423ZM301.116 525.975H303.648C303.648 524.775 303.288 524.379 302.412 524.379C301.524 524.379 301.128 524.823 301.116 525.975ZM308.985 523.299C310.617 523.299 311.313 524.103 311.313 526.347C311.313 528.831 310.533 529.563 308.385 529.563C307.749 529.563 306.189 529.419 306.189 529.419V520.935H307.485V523.659C307.485 523.659 308.313 523.299 308.985 523.299ZM308.385 528.399C309.717 528.399 309.981 527.811 309.981 526.347C309.981 524.991 309.633 524.463 308.829 524.463C308.193 524.463 307.485 524.703 307.485 524.703V528.351C307.485 528.351 308.145 528.399 308.385 528.399ZM317.063 525.279V528.015C317.087 528.375 317.243 528.519 317.591 528.567L317.555 529.563C316.823 529.563 316.403 529.467 315.959 529.119C315.959 529.119 314.999 529.563 314.027 529.563C312.839 529.563 312.239 528.903 312.239 527.655C312.239 526.383 312.935 525.951 314.219 525.843L315.767 525.711V525.279C315.767 524.619 315.479 524.415 314.891 524.415C314.087 524.415 312.635 524.535 312.635 524.535L312.587 523.611C312.587 523.611 313.895 523.299 314.999 523.299C316.463 523.299 317.063 523.911 317.063 525.279ZM315.767 526.635L314.375 526.767C313.823 526.815 313.547 527.079 313.547 527.619C313.547 528.159 313.775 528.495 314.279 528.495C314.963 528.495 315.767 528.231 315.767 528.231V526.635ZM322.893 523.575L322.869 524.667C322.869 524.667 321.453 524.475 320.733 524.475C320.013 524.475 319.689 524.643 319.689 525.135C319.689 525.531 319.941 525.639 321.117 525.843C322.557 526.095 323.073 526.455 323.073 527.655C323.073 529.059 322.185 529.563 320.697 529.563C319.869 529.563 318.477 529.299 318.477 529.299L318.525 528.207C318.525 528.207 319.965 528.399 320.577 528.399C321.441 528.399 321.777 528.219 321.777 527.691C321.777 527.271 321.573 527.139 320.385 526.947C319.065 526.731 318.393 526.443 318.393 525.171C318.393 523.815 319.449 523.311 320.637 523.311C321.513 523.311 322.893 523.575 322.893 523.575Z" fill="#1F4C95"/>
<rect x="168" y="311.735" width="86.025" height="86.025" rx="43.0125" fill="#CEEA4D"/>
<rect x="168" y="311.735" width="86.025" height="86.025" rx="43.0125" stroke="#1F4C95" stroke-width="4"/>
<path d="M211.011 347.898C210.922 347.898 210.833 347.882 210.749 347.849C210.473 347.741 210.293 347.475 210.293 347.181V343.343H205.861C205.465 343.343 205.142 343.022 205.142 342.624C205.142 340.768 205.84 338.999 207.107 337.643L210.486 334.026C210.688 333.809 211.002 333.74 211.275 333.848C211.551 333.956 211.731 334.221 211.731 334.516V338.354H216.163C216.559 338.354 216.882 338.675 216.882 339.072C216.882 340.929 216.184 342.697 214.917 344.054L211.538 347.671C211.4 347.819 211.207 347.898 211.013 347.898H211.011ZM206.622 341.905H211.011C211.408 341.905 211.731 342.226 211.731 342.624V345.36L213.866 343.074C214.72 342.161 215.251 341.014 215.402 339.79H211.013C210.617 339.79 210.293 339.469 210.293 339.071V336.335L208.158 338.621C207.305 339.534 206.773 340.68 206.622 341.905Z" fill="#1F4C95"/>
<path d="M211.01 353.996C210.89 353.996 210.773 353.966 210.664 353.907C210.341 353.731 202.746 349.53 199.947 344.633C199.885 344.525 199.853 344.401 199.853 344.277V332.418C199.853 332.022 200.174 331.699 200.572 331.699C201.984 331.699 203.386 331.524 204.741 331.18C206.095 330.842 207.414 330.333 208.664 329.663L210.669 328.581C210.881 328.467 211.139 328.467 211.35 328.581L213.362 329.663C214.602 330.329 215.921 330.838 217.282 331.179C218.64 331.524 220.042 331.699 221.454 331.699C221.85 331.699 222.173 332.02 222.173 332.418V344.277C222.173 344.402 222.14 344.525 222.077 344.633C219.273 349.53 211.677 353.731 211.355 353.907C211.247 353.966 211.129 353.996 211.01 353.996ZM201.289 344.083C203.633 348.002 209.52 351.587 211.01 352.452C212.499 351.587 218.388 348.002 220.736 344.083V333.122C219.448 333.073 218.172 332.889 216.932 332.574C215.458 332.206 214.027 331.653 212.682 330.931L211.011 330.032L209.345 330.931C207.987 331.656 206.558 332.209 205.092 332.575C203.854 332.89 202.579 333.073 201.292 333.124V344.084L201.289 344.083Z" fill="#1F4C95"/>
<path d="M211.01 356.998C210.89 356.998 210.772 356.967 210.664 356.909C210.263 356.689 200.816 351.466 197.343 345.39C197.281 345.282 197.249 345.158 197.249 345.034V330.218C197.249 329.822 197.571 329.499 197.968 329.499C199.745 329.499 201.511 329.28 203.221 328.846C204.927 328.419 206.59 327.777 208.164 326.935L210.671 325.585C210.882 325.471 211.14 325.471 211.352 325.585L213.865 326.937C215.428 327.775 217.089 328.418 218.803 328.847C220.514 329.281 222.281 329.502 224.057 329.502C224.453 329.502 224.776 329.824 224.776 330.221V345.037C224.776 345.163 224.743 345.285 224.681 345.393C221.203 351.467 211.756 356.692 211.355 356.912C211.247 356.971 211.129 357.001 211.01 357.001V356.998ZM198.685 344.84C201.667 349.872 209.292 354.462 211.008 355.453C212.724 354.464 220.35 349.872 223.338 344.84V330.924C221.684 330.872 220.045 330.641 218.452 330.237C216.625 329.781 214.852 329.095 213.184 328.2L211.011 327.031L208.843 328.198C207.163 329.097 205.39 329.782 203.572 330.237C201.981 330.641 200.34 330.872 198.688 330.924V344.84H198.685Z" fill="#1F4C95"/>
<path d="M211.008 360.71C210.89 360.71 210.773 360.681 210.663 360.621C210.165 360.349 198.425 353.856 194.12 346.324C193.923 345.978 194.044 345.541 194.388 345.344C194.731 345.148 195.171 345.267 195.368 345.611C199.471 352.791 211.236 359.296 211.354 359.361C211.7 359.552 211.829 359.988 211.638 360.336C211.508 360.575 211.261 360.71 211.008 360.71Z" fill="#1F4C95"/>
<path d="M211.008 360.71C210.755 360.71 210.508 360.575 210.378 360.336C210.187 359.989 210.314 359.552 210.663 359.361C210.78 359.296 222.545 352.791 226.656 345.611C226.854 345.266 227.293 345.147 227.637 345.344C227.98 345.541 228.1 345.98 227.904 346.324C223.591 353.856 211.852 360.347 211.353 360.621C211.244 360.681 211.126 360.71 211.008 360.71Z" fill="#1F4C95"/>
<path d="M227.28 328.211C224.93 328.211 222.592 327.92 220.333 327.346C218.068 326.779 215.871 325.93 213.803 324.822L211.008 323.319L208.222 324.822C206.138 325.935 203.942 326.784 201.688 327.347C199.433 327.92 197.095 328.213 194.744 328.213C194.348 328.213 194.025 327.891 194.025 327.494C194.025 327.096 194.346 326.775 194.744 326.775C196.976 326.775 199.194 326.498 201.336 325.954C203.479 325.42 205.565 324.613 207.542 323.556L210.668 321.871C210.879 321.757 211.137 321.757 211.349 321.871L214.484 323.557C216.447 324.61 218.532 325.416 220.685 325.954C222.83 326.5 225.049 326.775 227.28 326.775C227.677 326.775 228 327.096 228 327.494C228 327.891 227.678 328.213 227.28 328.213V328.211Z" fill="#1F4C95"/>
<path d="M185.372 366.49H186.764L184.748 374.71H182.132L180.116 366.49H181.508L183.14 373.534H183.74L185.372 366.49ZM189.83 373.702C190.778 373.702 192.038 373.594 192.038 373.594L192.062 374.566C192.062 374.566 190.694 374.842 189.638 374.842C187.838 374.842 187.142 373.882 187.142 371.77C187.142 369.574 188.09 368.578 189.746 368.578C191.426 368.578 192.266 369.454 192.266 371.326L192.182 372.262H188.462C188.474 373.222 188.834 373.702 189.83 373.702ZM188.45 371.254H190.982C190.982 370.054 190.622 369.658 189.746 369.658C188.858 369.658 188.462 370.102 188.45 371.254ZM193.523 374.71V368.71H194.819V369.43C194.819 369.43 195.839 368.77 196.859 368.578V369.886C195.767 370.102 194.831 370.522 194.831 370.522V374.71H193.523ZM197.859 374.71V368.71H199.167V374.71H197.859ZM197.859 367.69V366.31H199.167V367.69H197.859ZM202.326 369.826V374.71H201.03V369.826H200.334V368.71H201.03V368.326C201.03 366.598 201.474 366.082 202.722 366.082C203.13 366.082 204.018 366.202 204.018 366.202L204.006 367.27C204.006 367.27 203.418 367.246 203.046 367.246C202.494 367.246 202.326 367.51 202.326 368.338V368.71H203.91V369.826H202.326ZM204.902 374.71V368.71H206.21V374.71H204.902ZM204.902 367.69V366.31H206.21V367.69H204.902ZM210.041 368.578C210.677 368.578 211.841 368.806 211.841 368.806L211.793 369.838C211.793 369.838 210.845 369.742 210.389 369.742C209.141 369.742 208.853 370.246 208.853 371.626C208.853 373.162 209.105 373.678 210.401 373.678C210.857 373.678 211.805 373.582 211.805 373.582L211.841 374.626C211.841 374.626 210.629 374.842 210.017 374.842C208.169 374.842 207.533 373.93 207.533 371.626C207.533 369.478 208.253 368.578 210.041 368.578ZM217.545 370.558V373.294C217.569 373.654 217.725 373.798 218.073 373.846L218.037 374.842C217.305 374.842 216.885 374.746 216.441 374.398C216.441 374.398 215.481 374.842 214.509 374.842C213.321 374.842 212.721 374.182 212.721 372.934C212.721 371.662 213.417 371.23 214.701 371.122L216.249 370.99V370.558C216.249 369.898 215.961 369.694 215.373 369.694C214.569 369.694 213.117 369.814 213.117 369.814L213.069 368.89C213.069 368.89 214.377 368.578 215.481 368.578C216.945 368.578 217.545 369.19 217.545 370.558ZM216.249 371.914L214.857 372.046C214.305 372.094 214.029 372.358 214.029 372.898C214.029 373.438 214.257 373.774 214.761 373.774C215.445 373.774 216.249 373.51 216.249 373.51V371.914ZM221.432 368.578C222.068 368.578 223.232 368.806 223.232 368.806L223.184 369.838C223.184 369.838 222.236 369.742 221.78 369.742C220.532 369.742 220.244 370.246 220.244 371.626C220.244 373.162 220.496 373.678 221.792 373.678C222.248 373.678 223.196 373.582 223.196 373.582L223.232 374.626C223.232 374.626 222.02 374.842 221.408 374.842C219.56 374.842 218.924 373.93 218.924 371.626C218.924 369.478 219.644 368.578 221.432 368.578ZM224.496 374.71V368.71H225.804V374.71H224.496ZM224.496 367.69V366.31H225.804V367.69H224.496ZM229.779 368.578C231.783 368.578 232.455 369.73 232.455 371.674C232.455 373.666 231.843 374.842 229.779 374.842C227.727 374.842 227.103 373.666 227.103 371.674C227.103 369.73 227.775 368.578 229.779 368.578ZM229.779 373.738C230.895 373.738 231.135 373.066 231.135 371.674C231.135 370.282 230.835 369.682 229.779 369.682C228.723 369.682 228.423 370.282 228.423 371.674C228.423 373.066 228.663 373.738 229.779 373.738ZM228.183 366.946L228.495 367.798L231.423 366.862L231.015 365.734L228.183 366.946ZM235.062 374.71H233.754V368.71H235.05V369.082C235.05 369.082 235.926 368.578 236.706 368.578C238.374 368.578 238.782 369.526 238.782 371.494V374.71H237.486V371.53C237.486 370.33 237.33 369.742 236.418 369.742C235.722 369.742 235.062 370.054 235.062 370.054V374.71ZM192.473 380.71H193.757L195.029 385.594H195.353L196.625 380.71H197.921L195.641 389.29H194.357L195.077 386.71H194.045L192.473 380.71ZM203.812 380.578C204.448 380.578 205.612 380.806 205.612 380.806L205.564 381.838C205.564 381.838 204.616 381.742 204.16 381.742C202.912 381.742 202.624 382.246 202.624 383.626C202.624 385.162 202.876 385.678 204.172 385.678C204.628 385.678 205.576 385.582 205.576 385.582L205.612 386.626C205.612 386.626 204.4 386.842 203.788 386.842C201.94 386.842 201.304 385.93 201.304 383.626C201.304 381.478 202.024 380.578 203.812 380.578ZM206.877 386.71V380.71H208.185V386.71H206.877ZM206.877 379.69V378.31H208.185V379.69H206.877ZM212.171 385.702C213.119 385.702 214.379 385.594 214.379 385.594L214.403 386.566C214.403 386.566 213.035 386.842 211.979 386.842C210.179 386.842 209.483 385.882 209.483 383.77C209.483 381.574 210.431 380.578 212.087 380.578C213.767 380.578 214.607 381.454 214.607 383.326L214.523 384.262H210.803C210.815 385.222 211.175 385.702 212.171 385.702ZM210.791 383.254H213.323C213.323 382.054 212.963 381.658 212.087 381.658C211.199 381.658 210.803 382.102 210.791 383.254ZM215.865 386.71V380.71H217.161V381.43C217.161 381.43 218.181 380.77 219.201 380.578V381.886C218.109 382.102 217.173 382.522 217.173 382.522V386.71H215.865ZM220.201 386.71V380.71H221.497V381.43C221.497 381.43 222.517 380.77 223.537 380.578V381.886C222.445 382.102 221.509 382.522 221.509 382.522V386.71H220.201ZM226.89 385.702C227.838 385.702 229.098 385.594 229.098 385.594L229.122 386.566C229.122 386.566 227.754 386.842 226.698 386.842C224.898 386.842 224.202 385.882 224.202 383.77C224.202 381.574 225.15 380.578 226.806 380.578C228.486 380.578 229.326 381.454 229.326 383.326L229.242 384.262H225.522C225.534 385.222 225.894 385.702 226.89 385.702ZM225.51 383.254H228.042C228.042 382.054 227.682 381.658 226.806 381.658C225.918 381.658 225.522 382.102 225.51 383.254Z" fill="#1F4C95"/>
<path d="M232.904 166.935C235.304 166.935 236.639 168.255 236.639 172.155C236.639 175.92 235.274 177.165 232.904 177.165C230.534 177.165 229.154 175.935 229.154 172.155C229.154 168.27 230.519 166.935 232.904 166.935ZM232.904 168.39C231.524 168.39 230.879 169.23 230.879 172.155C230.879 174.87 231.554 175.71 232.919 175.71C234.269 175.71 234.914 174.87 234.914 172.155C234.914 169.245 234.299 168.39 232.904 168.39ZM238.418 169.245L241.643 167.1H243.173V177H241.508V168.99L239.183 170.49L238.418 169.245Z" fill="white"/>
<path d="M539.048 176.247C541.448 176.247 542.783 177.567 542.783 181.467C542.783 185.232 541.418 186.477 539.048 186.477C536.678 186.477 535.298 185.247 535.298 181.467C535.298 177.582 536.663 176.247 539.048 176.247ZM539.048 177.702C537.668 177.702 537.023 178.542 537.023 181.467C537.023 184.182 537.698 185.022 539.063 185.022C540.413 185.022 541.058 184.182 541.058 181.467C541.058 178.557 540.443 177.702 539.048 177.702ZM550.621 186.312H544.246V184.887L546.691 182.367C547.966 181.062 548.701 180.267 548.701 179.217C548.701 178.092 548.116 177.732 546.841 177.732C545.791 177.732 544.411 178.002 544.411 178.002L544.306 176.682C544.306 176.682 545.761 176.247 547.231 176.247C549.421 176.247 550.426 177.147 550.426 179.007C550.426 180.507 549.796 181.377 548.266 182.802L546.151 184.857H550.621V186.312Z" fill="white"/>
<path d="M630.2 327.935C632.6 327.935 633.935 329.255 633.935 333.155C633.935 336.92 632.57 338.165 630.2 338.165C627.83 338.165 626.45 336.935 626.45 333.155C626.45 329.27 627.815 327.935 630.2 327.935ZM630.2 329.39C628.82 329.39 628.175 330.23 628.175 333.155C628.175 335.87 628.85 336.71 630.215 336.71C631.565 336.71 632.21 335.87 632.21 333.155C632.21 330.245 631.595 329.39 630.2 329.39ZM635.519 329.675L635.384 328.415C635.384 328.415 636.779 327.935 638.279 327.935C640.769 327.935 641.624 328.79 641.624 330.59C641.624 331.88 640.859 332.465 640.319 332.825C641.219 333.245 641.819 333.635 641.819 335.075C641.819 337.13 640.859 338.165 638.519 338.165C637.004 338.165 635.279 337.7 635.279 337.7L635.384 336.41C635.384 336.41 637.034 336.71 638.294 336.71C639.509 336.695 640.094 336.2 640.094 335.12C640.094 334.115 639.374 333.65 638.399 333.635H636.404V332.24H638.399C639.104 332.24 639.899 331.565 639.899 330.695C639.899 329.795 639.389 329.39 638.174 329.39C636.929 329.39 635.519 329.675 635.519 329.675Z" fill="white"/>
<path d="M144.2 327.935C146.6 327.935 147.935 329.255 147.935 333.155C147.935 336.92 146.57 338.165 144.2 338.165C141.83 338.165 140.45 336.935 140.45 333.155C140.45 329.27 141.815 327.935 144.2 327.935ZM144.2 329.39C142.82 329.39 142.175 330.23 142.175 333.155C142.175 335.87 142.85 336.71 144.215 336.71C145.565 336.71 146.21 335.87 146.21 333.155C146.21 330.245 145.595 329.39 144.2 329.39ZM155.894 328.295L155.744 329.6C155.744 329.6 154.289 329.39 153.029 329.39C151.514 329.39 150.749 330.455 150.734 332.18C150.734 332.195 152.009 331.715 152.894 331.715C155.099 331.715 156.254 332.705 156.254 334.865C156.254 337.055 154.919 338.165 152.699 338.165C150.134 338.165 149.009 336.23 149.009 333.05C149.009 329.36 150.569 327.935 153.029 327.935C154.289 327.935 155.894 328.295 155.894 328.295ZM152.744 333.185C151.799 333.185 150.719 333.62 150.719 333.62C150.734 335.36 151.244 336.71 152.699 336.71C153.884 336.71 154.529 336.05 154.529 334.865C154.529 333.74 153.869 333.185 152.744 333.185Z" fill="white"/>
<path d="M546.2 512.935C548.6 512.935 549.935 514.255 549.935 518.155C549.935 521.92 548.57 523.165 546.2 523.165C543.83 523.165 542.45 521.935 542.45 518.155C542.45 514.27 543.815 512.935 546.2 512.935ZM546.2 514.39C544.82 514.39 544.175 515.23 544.175 518.155C544.175 520.87 544.85 521.71 546.215 521.71C547.565 521.71 548.21 520.87 548.21 518.155C548.21 515.245 547.595 514.39 546.2 514.39ZM555.449 523V521.23H550.994V519.955L553.604 513.1H555.449L552.689 519.775H555.449V516.865H557.129V519.775H558.209V521.23H557.129V523H555.449Z" fill="white"/>
<path d="M233.2 512.935C235.6 512.935 236.935 514.255 236.935 518.155C236.935 521.92 235.57 523.165 233.2 523.165C230.83 523.165 229.45 521.935 229.45 518.155C229.45 514.27 230.815 512.935 233.2 512.935ZM233.2 514.39C231.82 514.39 231.175 515.23 231.175 518.155C231.175 520.87 231.85 521.71 233.215 521.71C234.565 521.71 235.21 520.87 235.21 518.155C235.21 515.245 234.595 514.39 233.2 514.39ZM238.729 513.1H244.654V514.57H240.064L239.809 517.18C239.809 517.18 240.829 516.715 241.819 516.715C243.799 516.715 244.999 517.57 244.999 519.685C244.999 521.935 243.769 523.165 241.639 523.165C240.109 523.165 238.234 522.655 238.234 522.655L238.414 521.395C238.414 521.395 240.184 521.695 241.444 521.695C242.599 521.695 243.274 521.035 243.274 519.85C243.274 518.62 242.659 518.185 241.594 518.185C240.454 518.185 239.509 518.59 239.509 518.59L238.459 518.365L238.729 513.1Z" fill="white"/>
<defs>
<filter id="filter0_d_1473_1509" x="-330.429" y="-413.446" width="760.553" height="811.66" filterUnits="userSpaceOnUse" color-interpolation-filters="sRGB">
<feFlood flood-opacity="0" result="BackgroundImageFix"/>
<feColorMatrix in="SourceAlpha" type="matrix" values="0 0 0 0 0 0 0 0 0 0 0 0 0 0 0 0 0 0 127 0" result="hardAlpha"/>
<feOffset dy="4"/>
<feGaussianBlur stdDeviation="2"/>
<feComposite in2="hardAlpha" operator="out"/>
<feColorMatrix type="matrix" values="0 0 0 0 0 0 0 0 0 0 0 0 0 0 0 0 0 0 0.25 0"/>
<feBlend mode="normal" in2="BackgroundImageFix" result="effect1_dropShadow_1473_1509"/>
<feBlend mode="normal" in="SourceGraphic" in2="effect1_dropShadow_1473_1509" result="shape"/>
</filter>
<filter id="filter1_f_1473_1509" x="-963.639" y="-930.963" width="1936.76" height="1412.2" filterUnits="userSpaceOnUse" color-interpolation-filters="sRGB">
<feFlood flood-opacity="0" result="BackgroundImageFix"/>
<feBlend mode="normal" in="SourceGraphic" in2="BackgroundImageFix" result="shape"/>
<feGaussianBlur stdDeviation="80" result="effect1_foregroundBlur_1473_1509"/>
</filter>
<filter id="filter2_df_1473_1509" x="103.067" y="57.2788" width="566.455" height="572.817" filterUnits="userSpaceOnUse" color-interpolation-filters="sRGB">
<feFlood flood-opacity="0" result="BackgroundImageFix"/>
<feColorMatrix in="SourceAlpha" type="matrix" values="0 0 0 0 0 0 0 0 0 0 0 0 0 0 0 0 0 0 127 0" result="hardAlpha"/>
<feOffset/>
<feGaussianBlur stdDeviation="100"/>
<feComposite in2="hardAlpha" operator="out"/>
<feColorMatrix type="matrix" values="0 0 0 0 0.388235 0 0 0 0 0.270588 0 0 0 0 0.815686 0 0 0 0.4 0"/>
<feBlend mode="normal" in2="BackgroundImageFix" result="effect1_dropShadow_1473_1509"/>
<feBlend mode="normal" in="SourceGraphic" in2="effect1_dropShadow_1473_1509" result="shape"/>
<feGaussianBlur stdDeviation="80" result="effect2_foregroundBlur_1473_1509"/>
</filter>
</defs>
</svg>
