<svg width="136" height="67" viewBox="0 0 136 67" fill="none" xmlns="http://www.w3.org/2000/svg">
<path d="M9.81956 57.2827C9.76849 57.2827 9.73202 57.2608 9.68825 57.2316C9.65177 57.1951 9.62988 57.1514 9.62988 57.1003V52.4386C9.62988 52.3875 9.65177 52.3437 9.68825 52.3073C9.72472 52.2708 9.76849 52.2562 9.81956 52.2562H11.9206C12.3364 52.2562 12.7012 52.3219 13.0076 52.4459C13.314 52.5699 13.5548 52.7596 13.7298 53.0149C13.9049 53.2703 13.9852 53.5913 13.9852 53.9706C13.9852 54.35 13.8976 54.671 13.7298 54.919C13.5548 55.167 13.314 55.3494 13.0076 55.4588C12.7012 55.5756 12.3364 55.6339 11.9206 55.6339H11.2348V57.1076C11.2348 57.1586 11.213 57.2024 11.1838 57.2389C11.1473 57.2754 11.1035 57.29 11.0525 57.29H9.82686L9.81956 57.2827ZM11.2057 54.4594H11.8841C12.0227 54.4594 12.1395 54.4156 12.2416 54.3354C12.3364 54.2551 12.3875 54.1238 12.3875 53.9414C12.3875 53.8028 12.351 53.6788 12.2708 53.5694C12.1905 53.4599 12.0665 53.4089 11.8841 53.4089H11.2057V54.4594Z" fill="white"/>
<path d="M15.6775 57.2827C15.6264 57.2827 15.5899 57.2681 15.5462 57.2316C15.5097 57.1951 15.4878 57.1514 15.4878 57.1003V52.4386C15.4878 52.3875 15.5097 52.3437 15.5462 52.3073C15.5826 52.2708 15.6264 52.2562 15.6775 52.2562H17.7274C18.3767 52.2562 18.8947 52.4021 19.2668 52.7012C19.6388 53.0003 19.8212 53.4162 19.8212 53.9487C19.8212 54.2843 19.741 54.5688 19.5877 54.8023C19.4345 55.0357 19.2303 55.2254 18.9822 55.3567L19.916 57.0565C19.916 57.0565 19.9379 57.1149 19.9379 57.1368C19.9379 57.1805 19.9233 57.217 19.8942 57.2462C19.865 57.2754 19.8285 57.29 19.7847 57.29H18.5664C18.4789 57.29 18.4059 57.2681 18.3548 57.2243C18.3111 57.1805 18.2746 57.1368 18.26 57.1003L17.5378 55.6193H17.0198V57.1076C17.0198 57.1586 16.9979 57.2024 16.9687 57.2389C16.9323 57.2754 16.8885 57.29 16.8374 57.29H15.6629L15.6775 57.2827ZM17.0344 54.4156H17.7202C17.8879 54.4156 18.012 54.3718 18.0922 54.277C18.1725 54.1822 18.2162 54.0654 18.2162 53.9268C18.2162 53.7882 18.1798 53.6642 18.0995 53.5621C18.0193 53.4599 17.8952 53.4089 17.7202 53.4089H17.0344V54.4156Z" fill="white"/>
<path d="M23.7609 57.3556C23.3013 57.3556 22.9 57.2827 22.5645 57.1368C22.2289 56.9909 21.9589 56.7793 21.7693 56.4875C21.5723 56.1957 21.4702 55.8382 21.4556 55.4078C21.4556 55.2035 21.4556 54.9992 21.4556 54.7877C21.4556 54.5761 21.4556 54.3646 21.4556 54.153C21.4702 53.7299 21.5723 53.3651 21.7693 53.0733C21.9662 52.7815 22.2289 52.5626 22.5717 52.4094C22.9146 52.2562 23.3086 52.1833 23.7682 52.1833C24.2278 52.1833 24.6144 52.2562 24.9573 52.4094C25.3002 52.5626 25.5628 52.7815 25.7598 53.0733C25.9568 53.3651 26.0589 53.7226 26.0662 54.153C26.0735 54.3646 26.0808 54.5761 26.0808 54.7877C26.0808 54.9992 26.0808 55.2108 26.0662 55.4078C26.0516 55.8382 25.9495 56.1957 25.7525 56.4875C25.5555 56.7793 25.2929 56.9982 24.9573 57.1368C24.6217 57.2827 24.2205 57.3556 23.7682 57.3556M23.7609 56.13C23.9651 56.13 24.1256 56.0716 24.257 55.9476C24.3883 55.8236 24.4539 55.6339 24.4612 55.364C24.4685 55.1597 24.4758 54.9555 24.4758 54.7658C24.4758 54.5761 24.4758 54.3718 24.4612 54.1749C24.4612 53.9998 24.4248 53.8539 24.3664 53.7372C24.308 53.6204 24.2278 53.5402 24.1256 53.4818C24.0235 53.4307 23.9068 53.4016 23.7682 53.4016C23.6296 53.4016 23.5128 53.4307 23.4107 53.4818C23.3086 53.5329 23.221 53.6204 23.1627 53.7372C23.1043 53.8539 23.0678 53.9998 23.0678 54.1749C23.0678 54.3791 23.0678 54.5761 23.0678 54.7658C23.0678 54.9555 23.0678 55.1597 23.0678 55.364C23.0751 55.6339 23.1481 55.8236 23.2721 55.9476C23.3961 56.0716 23.5639 56.13 23.7682 56.13" fill="white"/>
<path d="M27.7585 57.2827C27.7075 57.2827 27.671 57.2681 27.6272 57.2316C27.5907 57.1951 27.5688 57.1514 27.5688 57.1003V52.4386C27.5688 52.3875 27.5907 52.3437 27.6272 52.3073C27.6637 52.2708 27.7075 52.2562 27.7585 52.2562H29.7283C30.1952 52.2562 30.5964 52.3292 30.9393 52.4824C31.2822 52.6356 31.5448 52.8544 31.7418 53.1462C31.9387 53.438 32.0409 53.7955 32.0555 54.2259C32.0627 54.4302 32.07 54.6126 32.07 54.7731C32.07 54.9336 32.07 55.1087 32.0555 55.3129C32.0336 55.7652 31.9314 56.1373 31.7491 56.4291C31.5667 56.7209 31.304 56.9398 30.9685 57.0784C30.6329 57.217 30.2316 57.29 29.7574 57.29H27.7512L27.7585 57.2827ZM29.1227 56.0571H29.7355C29.896 56.0571 30.0274 56.0279 30.1368 55.9768C30.2462 55.9257 30.3338 55.8455 30.3921 55.7288C30.4578 55.6193 30.487 55.4734 30.4943 55.2911C30.4943 55.1524 30.5016 55.0284 30.5016 54.919C30.5016 54.8096 30.5016 54.7001 30.5016 54.5907C30.5016 54.4813 30.5016 54.3573 30.4943 54.2259C30.487 53.9633 30.4067 53.7736 30.2681 53.6496C30.1295 53.5329 29.9325 53.4672 29.6991 53.4672H29.1227V56.0571Z" fill="white"/>
<path d="M35.827 57.3556C35.382 57.3556 34.9881 57.2827 34.6525 57.1441C34.3169 57.0054 34.0543 56.7866 33.8646 56.4948C33.6749 56.203 33.5801 55.8309 33.5801 55.3786V52.4386C33.5801 52.3875 33.602 52.3437 33.6384 52.3073C33.6749 52.2708 33.7187 52.2562 33.7698 52.2562H34.9443C34.9954 52.2562 35.0391 52.2708 35.0756 52.3073C35.1121 52.3437 35.1267 52.3875 35.1267 52.4386V55.3567C35.1267 55.5975 35.185 55.7871 35.3091 55.9112C35.4258 56.0352 35.6009 56.1008 35.827 56.1008C36.0532 56.1008 36.221 56.0425 36.345 55.9112C36.4617 55.7871 36.5201 55.6047 36.5201 55.3567V52.4386C36.5201 52.3875 36.542 52.3437 36.5784 52.3073C36.6149 52.2708 36.666 52.2562 36.7171 52.2562H37.8843C37.9354 52.2562 37.9791 52.2708 38.0156 52.3073C38.0521 52.3437 38.0667 52.3875 38.0667 52.4386V55.3786C38.0667 55.8309 37.9718 56.203 37.7895 56.4948C37.5998 56.7866 37.3372 57.0054 37.0089 57.1441C36.6733 57.2827 36.2866 57.3556 35.8416 57.3556" fill="white"/>
<path d="M41.8824 57.3556C41.4301 57.3556 41.0288 57.2827 40.6859 57.1441C40.3431 57.0054 40.0804 56.7866 39.8835 56.5021C39.6865 56.2176 39.5844 55.8528 39.5625 55.4078C39.5625 55.2108 39.5552 54.9992 39.5552 54.7731C39.5552 54.5469 39.5552 54.3354 39.5625 54.1238C39.5844 53.6934 39.6938 53.3359 39.8908 53.0441C40.0877 52.7523 40.3577 52.5334 40.7005 52.3948C41.0434 52.2489 41.4374 52.176 41.8751 52.176C42.1888 52.176 42.4879 52.2124 42.7651 52.2854C43.0423 52.3583 43.2904 52.4751 43.5019 52.621C43.7135 52.7742 43.8886 52.9566 44.0126 53.1754C44.1366 53.3943 44.2023 53.6569 44.2096 53.956C44.2096 53.9998 44.195 54.0363 44.1585 54.0654C44.1293 54.0946 44.0929 54.1092 44.0491 54.1092H42.8308C42.7578 54.1092 42.7067 54.0946 42.6703 54.0654C42.6338 54.0363 42.6119 53.9852 42.5827 53.9122C42.5171 53.708 42.4295 53.5694 42.3055 53.4964C42.1888 53.4235 42.0429 53.387 41.8678 53.387C41.6562 53.387 41.4884 53.4453 41.3644 53.5548C41.2404 53.6642 41.1747 53.8685 41.1601 54.1457C41.1455 54.5396 41.1455 54.9409 41.1601 55.3494C41.1674 55.6339 41.2404 55.8309 41.3644 55.9403C41.4884 56.0498 41.6562 56.1081 41.8678 56.1081C42.0429 56.1081 42.1888 56.0716 42.3128 55.9914C42.4368 55.9112 42.5244 55.7798 42.5827 55.5829C42.6046 55.5026 42.6265 55.4515 42.663 55.4297C42.6994 55.4005 42.7505 55.3932 42.8235 55.3932H44.0418C44.0856 55.3932 44.122 55.4078 44.1512 55.437C44.1804 55.4661 44.2023 55.5026 44.2023 55.5464C44.2023 55.8455 44.1293 56.1008 44.0053 56.327C43.8813 56.5531 43.7135 56.7355 43.4946 56.8887C43.2758 57.0419 43.035 57.1514 42.7578 57.2243C42.4806 57.2973 42.1888 57.3337 41.8678 57.3337" fill="white"/>
<path d="M47.3247 57.2827C47.2736 57.2827 47.2299 57.2681 47.1934 57.2316C47.1569 57.1951 47.1423 57.1514 47.1423 57.1003V53.5913H45.9021C45.851 53.5913 45.8073 53.5767 45.7708 53.5402C45.7343 53.5037 45.7197 53.4599 45.7197 53.4089V52.4459C45.7197 52.3948 45.7343 52.3511 45.7708 52.3146C45.8073 52.2781 45.851 52.2635 45.9021 52.2635H49.9437C49.9948 52.2635 50.0385 52.2781 50.075 52.3146C50.1115 52.3511 50.1261 52.3948 50.1261 52.4459V53.4089C50.1261 53.4599 50.1115 53.5037 50.075 53.5402C50.0385 53.5767 49.9948 53.5913 49.9437 53.5913H48.7035V57.1003C48.7035 57.1514 48.6889 57.1951 48.6524 57.2316C48.616 57.2681 48.5722 57.2827 48.5211 57.2827H47.3247Z" fill="white"/>
<path d="M53.9411 57.3556C53.4815 57.3556 53.0802 57.2827 52.7446 57.1368C52.409 56.9909 52.1391 56.7793 51.9494 56.4875C51.7525 56.1957 51.6503 55.8382 51.6357 55.4078C51.6357 55.2035 51.6357 54.9992 51.6357 54.7877C51.6357 54.5761 51.6357 54.3646 51.6357 54.153C51.6503 53.7299 51.7525 53.3651 51.9494 53.0733C52.1464 52.7815 52.409 52.5626 52.7519 52.4094C53.0948 52.2562 53.4887 52.1833 53.9483 52.1833C54.408 52.1833 54.7946 52.2562 55.1375 52.4094C55.4804 52.5626 55.743 52.7815 55.94 53.0733C56.1369 53.3651 56.2391 53.7226 56.2464 54.153C56.2537 54.3646 56.261 54.5761 56.261 54.7877C56.261 54.9992 56.261 55.2108 56.2464 55.4078C56.2318 55.8382 56.1296 56.1957 55.9327 56.4875C55.7357 56.7793 55.4731 56.9982 55.1375 57.1368C54.8019 57.2827 54.4007 57.3556 53.9483 57.3556M53.9411 56.13C54.1453 56.13 54.3058 56.0716 54.4371 55.9476C54.5685 55.8236 54.6341 55.6339 54.6414 55.364C54.6487 55.1597 54.656 54.9555 54.656 54.7658C54.656 54.5761 54.656 54.3718 54.6414 54.1749C54.6414 53.9998 54.6049 53.8539 54.5466 53.7372C54.4882 53.6204 54.408 53.5402 54.3058 53.4818C54.2037 53.4307 54.087 53.4016 53.9483 53.4016C53.8097 53.4016 53.693 53.4307 53.5909 53.4818C53.4887 53.5329 53.4012 53.6204 53.3428 53.7372C53.2845 53.8539 53.248 53.9998 53.248 54.1749C53.248 54.3791 53.248 54.5761 53.248 54.7658C53.248 54.9555 53.248 55.1597 53.248 55.364C53.2553 55.6339 53.3282 55.8236 53.4523 55.9476C53.5763 56.0716 53.7441 56.13 53.9483 56.13" fill="white"/>
<path d="M60.0257 57.3556C59.5223 57.3556 59.1065 57.2827 58.7709 57.1441C58.4353 57.0054 58.1873 56.8158 58.0268 56.5896C57.859 56.3635 57.7715 56.1227 57.7642 55.8674C57.7642 55.8236 57.7787 55.7871 57.8079 55.758C57.8371 55.7288 57.8736 55.7142 57.9174 55.7142H59.0627C59.1284 55.7142 59.1794 55.7288 59.2232 55.7434C59.2597 55.7652 59.3035 55.7944 59.3472 55.8309C59.391 55.882 59.4421 55.933 59.5004 55.9768C59.5588 56.0206 59.6318 56.0571 59.7193 56.0862C59.8068 56.1154 59.9163 56.1227 60.033 56.1227C60.2519 56.1227 60.4269 56.0935 60.5437 56.0352C60.6604 55.9768 60.726 55.8966 60.726 55.7871C60.726 55.7069 60.6969 55.6412 60.6312 55.5829C60.5656 55.5318 60.4561 55.4807 60.3029 55.437C60.1497 55.3932 59.9382 55.3494 59.6755 55.2983C59.3035 55.2327 58.9898 55.1451 58.7198 55.0211C58.4499 54.8971 58.2457 54.7366 58.107 54.525C57.9684 54.3135 57.8955 54.0581 57.8955 53.7517C57.8955 53.4453 57.983 53.1681 58.1581 52.9274C58.3332 52.6866 58.5812 52.5042 58.8949 52.3656C59.2086 52.2343 59.5734 52.1614 59.9892 52.1614C60.3321 52.1614 60.6385 52.2051 60.9084 52.3C61.1711 52.3875 61.3972 52.5115 61.5796 52.6574C61.762 52.8034 61.9006 52.9639 61.9954 53.1316C62.0903 53.2994 62.1413 53.4599 62.1486 53.6131C62.1486 53.6569 62.134 53.6934 62.1049 53.7226C62.0757 53.7517 62.0392 53.7663 62.0027 53.7663H60.799C60.7406 53.7663 60.6896 53.759 60.6531 53.7372C60.6166 53.7153 60.5801 53.6861 60.5364 53.6423C60.5145 53.5767 60.4561 53.5183 60.354 53.4599C60.2592 53.4089 60.1351 53.3797 59.9892 53.3797C59.8287 53.3797 59.7047 53.4089 59.6172 53.4599C59.5296 53.5183 59.4859 53.5985 59.4859 53.7007C59.4859 53.7736 59.515 53.832 59.5661 53.8904C59.6172 53.9414 59.712 53.9925 59.8433 54.029C59.9746 54.0727 60.1643 54.1165 60.4051 54.1603C60.8574 54.2259 61.2294 54.3208 61.5066 54.4448C61.7839 54.5688 61.9881 54.7293 62.1195 54.9336C62.2508 55.1379 62.3164 55.3859 62.3164 55.6923C62.3164 56.0352 62.2216 56.327 62.0246 56.5677C61.8276 56.8158 61.5577 56.9981 61.2148 57.1295C60.872 57.2608 60.478 57.3264 60.0403 57.3264" fill="white"/>
<path d="M68.7876 57.2827C68.7365 57.2827 68.6928 57.2681 68.6563 57.2316C68.6198 57.1951 68.6052 57.1513 68.6052 57.1003V55.6193L66.9638 52.4751C66.9638 52.4751 66.9565 52.4532 66.9492 52.4459C66.9492 52.4313 66.9419 52.424 66.9419 52.4094C66.9419 52.3656 66.9565 52.3292 66.9857 52.3C67.0148 52.2708 67.0513 52.2489 67.0951 52.2489H68.2186C68.3061 52.2489 68.3718 52.2708 68.4155 52.3146C68.4593 52.3583 68.4885 52.3948 68.5031 52.4167L69.3785 54.0727L70.254 52.4167C70.254 52.4167 70.2904 52.3583 70.3342 52.3146C70.378 52.2708 70.4436 52.2489 70.5239 52.2489H71.6547C71.6911 52.2489 71.7276 52.2635 71.7568 52.3C71.786 52.3365 71.8006 52.3656 71.8006 52.4094C71.8006 52.4167 71.8006 52.4313 71.8006 52.4459C71.8006 52.4605 71.8006 52.4678 71.7933 52.4751L70.1445 55.6193V57.1003C70.1445 57.1513 70.1226 57.1951 70.0935 57.2316C70.057 57.2681 70.0132 57.2827 69.9621 57.2827H68.7876Z" fill="white"/>
<path d="M80.3724 57.3556C79.869 57.3556 79.4532 57.2827 79.1176 57.1441C78.782 57.0054 78.534 56.8158 78.3735 56.5896C78.2057 56.3635 78.1181 56.1227 78.1108 55.8674C78.1108 55.8236 78.1254 55.7871 78.1546 55.758C78.1838 55.7288 78.2203 55.7142 78.264 55.7142H79.4094C79.4751 55.7142 79.5261 55.7288 79.5699 55.7434C79.6064 55.7652 79.6501 55.7944 79.6939 55.8309C79.7377 55.882 79.7888 55.933 79.8471 55.9768C79.9055 56.0206 79.9784 56.0571 80.066 56.0862C80.1535 56.1154 80.263 56.1227 80.3797 56.1227C80.5985 56.1227 80.7736 56.0935 80.8903 56.0352C81.0071 55.9768 81.0727 55.8966 81.0727 55.7871C81.0727 55.7069 81.0435 55.6412 80.9779 55.5829C80.9122 55.5318 80.8028 55.4807 80.6496 55.437C80.4964 55.3932 80.2848 55.3494 80.0222 55.2983C79.6501 55.2327 79.3364 55.1451 79.0665 55.0211C78.7966 54.8971 78.5923 54.7366 78.4537 54.525C78.3151 54.3135 78.2422 54.0581 78.2422 53.7517C78.2422 53.4453 78.3297 53.1681 78.5048 52.9274C78.6799 52.6866 78.9206 52.5042 79.2416 52.3656C79.5553 52.2343 79.9201 52.1614 80.3359 52.1614C80.6788 52.1614 80.9852 52.2051 81.2551 52.3C81.5177 52.3875 81.7439 52.5115 81.9263 52.6574C82.1087 52.8034 82.2473 52.9639 82.3421 53.1316C82.437 53.2994 82.488 53.4599 82.4953 53.6131C82.4953 53.6569 82.4807 53.6934 82.4515 53.7226C82.4224 53.7517 82.3859 53.7663 82.3494 53.7663H81.1457C81.0873 53.7663 81.0363 53.759 80.9998 53.7372C80.9633 53.7153 80.9268 53.6861 80.8831 53.6423C80.8612 53.5767 80.8028 53.5183 80.7007 53.4599C80.6058 53.4089 80.4818 53.3797 80.3359 53.3797C80.1754 53.3797 80.0514 53.4089 79.9638 53.4599C79.8763 53.5183 79.8325 53.5985 79.8325 53.7007C79.8325 53.7736 79.8617 53.832 79.9128 53.8904C79.9638 53.9414 80.0587 53.9925 80.19 54.029C80.3213 54.0727 80.511 54.1165 80.7517 54.1603C81.204 54.2259 81.5761 54.3208 81.8533 54.4448C82.1305 54.5688 82.3348 54.7293 82.4661 54.9336C82.5974 55.1379 82.6631 55.3859 82.6631 55.6923C82.6631 56.0352 82.5683 56.327 82.3713 56.5677C82.1743 56.8158 81.9044 56.9981 81.5615 57.1295C81.2186 57.2608 80.8247 57.3264 80.387 57.3264" fill="white"/>
<path d="M84.4939 57.2827C84.4428 57.2827 84.4063 57.2681 84.3626 57.2316C84.3261 57.1951 84.3042 57.1514 84.3042 57.1003V52.4386C84.3042 52.3875 84.3261 52.3437 84.3626 52.3073C84.399 52.2708 84.4428 52.2562 84.4939 52.2562H88.0175C88.0686 52.2562 88.1123 52.2708 88.1561 52.3073C88.1926 52.3437 88.2145 52.3875 88.2145 52.4386V53.2848C88.2145 53.3359 88.1926 53.3724 88.1561 53.4162C88.1196 53.4526 88.0686 53.4745 88.0175 53.4745H85.7924V54.1895H87.857C87.9081 54.1895 87.9519 54.2041 87.9956 54.2405C88.0321 54.277 88.054 54.3208 88.054 54.3718V55.1451C88.054 55.1962 88.0321 55.24 87.9956 55.2765C87.9591 55.3129 87.9081 55.3275 87.857 55.3275H85.7924V56.0498H88.0686C88.1196 56.0498 88.1634 56.0717 88.2072 56.1081C88.2437 56.1446 88.2655 56.1884 88.2655 56.2467V57.0857C88.2655 57.1368 88.2437 57.1805 88.2072 57.217C88.1707 57.2535 88.1269 57.2681 88.0686 57.2681H84.4866L84.4939 57.2827Z" fill="white"/>
<path d="M90.1189 57.2827C90.0678 57.2827 90.0313 57.2681 89.9876 57.2316C89.9511 57.1951 89.9292 57.1514 89.9292 57.1003V52.4386C89.9292 52.3875 89.9511 52.3437 89.9876 52.3073C90.024 52.2708 90.0678 52.2562 90.1189 52.2562H92.1689C92.8181 52.2562 93.3361 52.4021 93.7009 52.7012C94.0729 53.0003 94.2553 53.4162 94.2553 53.9487C94.2553 54.2843 94.1824 54.5688 94.0219 54.8023C93.8687 55.0357 93.6644 55.2254 93.4164 55.3567L94.3502 57.0565C94.3502 57.0565 94.372 57.1149 94.372 57.1368C94.372 57.1805 94.3574 57.217 94.3283 57.2462C94.2991 57.2754 94.2626 57.29 94.2188 57.29H93.0005C92.913 57.29 92.84 57.2681 92.789 57.2243C92.7379 57.1805 92.7087 57.1368 92.6941 57.1003L91.9719 55.6193H91.4539V57.1076C91.4539 57.1586 91.4393 57.2024 91.4029 57.2389C91.3664 57.2754 91.3226 57.29 91.2715 57.29H90.097L90.1189 57.2827ZM91.4758 54.4156H92.1616C92.3294 54.4156 92.4534 54.3718 92.5336 54.277C92.6139 54.1822 92.6576 54.0654 92.6576 53.9268C92.6576 53.7882 92.6212 53.6642 92.5409 53.5621C92.4607 53.4599 92.3367 53.4089 92.1616 53.4089H91.4758V54.4156Z" fill="white"/>
<path d="M97.7715 57.2827C97.684 57.2827 97.611 57.2608 97.5599 57.2097C97.5089 57.1586 97.4797 57.1149 97.4651 57.0565L96.0498 52.4532C96.0498 52.4532 96.0498 52.4167 96.0498 52.4021C96.0498 52.3583 96.0644 52.3219 96.0936 52.2927C96.1228 52.2635 96.1592 52.2416 96.203 52.2416H97.3192C97.4067 52.2416 97.4724 52.2635 97.5234 52.3146C97.5745 52.3656 97.6037 52.4094 97.6183 52.4605L98.4645 55.4588L99.3108 52.4605C99.3254 52.4094 99.3546 52.3656 99.4056 52.3146C99.4567 52.2635 99.5224 52.2416 99.6099 52.2416H100.726C100.77 52.2416 100.806 52.2562 100.836 52.2927C100.865 52.3219 100.879 52.3583 100.879 52.4021C100.879 52.4167 100.879 52.4313 100.872 52.4532L99.464 57.0565C99.4494 57.1076 99.4129 57.1586 99.3692 57.2097C99.3181 57.2608 99.2524 57.2827 99.1576 57.2827H97.7934H97.7715Z" fill="white"/>
<path d="M102.711 57.2827C102.66 57.2827 102.623 57.2681 102.579 57.2316C102.543 57.1951 102.521 57.1514 102.521 57.1003V52.4386C102.521 52.3875 102.543 52.3437 102.579 52.3073C102.616 52.2708 102.66 52.2562 102.711 52.2562H103.936C103.987 52.2562 104.031 52.2708 104.068 52.3073C104.104 52.3437 104.119 52.3875 104.119 52.4386V57.1003C104.119 57.1514 104.097 57.1951 104.068 57.2316C104.031 57.2681 103.987 57.2827 103.936 57.2827H102.711Z" fill="white"/>
<path d="M108.102 57.3556C107.649 57.3556 107.248 57.2827 106.905 57.1441C106.562 57.0054 106.3 56.7866 106.103 56.5021C105.906 56.2176 105.804 55.8528 105.782 55.4078C105.782 55.2108 105.774 54.9992 105.774 54.7731C105.774 54.5469 105.774 54.3354 105.782 54.1238C105.804 53.6934 105.913 53.3359 106.11 53.0441C106.307 52.7523 106.577 52.5334 106.92 52.3948C107.263 52.2489 107.657 52.176 108.094 52.176C108.408 52.176 108.707 52.2124 108.984 52.2854C109.262 52.3583 109.51 52.4751 109.721 52.621C109.933 52.7742 110.108 52.9566 110.232 53.1754C110.356 53.3943 110.422 53.6569 110.429 53.956C110.429 53.9998 110.414 54.0363 110.385 54.0654C110.356 54.0946 110.319 54.1092 110.276 54.1092H109.057C108.984 54.1092 108.933 54.0946 108.897 54.0654C108.86 54.0363 108.838 53.9852 108.809 53.9122C108.744 53.708 108.656 53.5694 108.532 53.4964C108.415 53.4235 108.269 53.387 108.094 53.387C107.883 53.387 107.715 53.4453 107.591 53.5548C107.467 53.6642 107.401 53.8685 107.387 54.1457C107.372 54.5396 107.372 54.9409 107.387 55.3494C107.394 55.6339 107.467 55.8309 107.591 55.9403C107.715 56.0498 107.883 56.1081 108.094 56.1081C108.269 56.1081 108.415 56.0716 108.539 55.9914C108.663 55.9112 108.751 55.7798 108.809 55.5829C108.831 55.5026 108.853 55.4515 108.889 55.4297C108.926 55.4005 108.977 55.3932 109.05 55.3932H110.268C110.312 55.3932 110.349 55.4078 110.378 55.437C110.407 55.4661 110.422 55.5026 110.422 55.5464C110.422 55.8455 110.349 56.1008 110.225 56.327C110.101 56.5531 109.933 56.7355 109.714 56.8887C109.495 57.0419 109.254 57.1514 108.977 57.2243C108.7 57.2973 108.408 57.3337 108.087 57.3337" fill="white"/>
<path d="M112.275 57.2827C112.224 57.2827 112.187 57.2681 112.143 57.2316C112.107 57.1951 112.085 57.1514 112.085 57.1003V52.4386C112.085 52.3875 112.107 52.3437 112.143 52.3073C112.18 52.2708 112.224 52.2562 112.275 52.2562H113.5C113.551 52.2562 113.595 52.2708 113.632 52.3073C113.668 52.3437 113.683 52.3875 113.683 52.4386V57.1003C113.683 57.1514 113.661 57.1951 113.632 57.2316C113.595 57.2681 113.551 57.2827 113.5 57.2827H112.275Z" fill="white"/>
<path d="M117.658 57.3556C117.199 57.3556 116.797 57.2827 116.462 57.1368C116.126 56.9909 115.856 56.7793 115.667 56.4875C115.47 56.1957 115.368 55.8382 115.353 55.4078C115.353 55.2035 115.346 54.9992 115.346 54.7877C115.346 54.5761 115.346 54.3646 115.353 54.153C115.368 53.7299 115.47 53.3651 115.667 53.0733C115.864 52.7815 116.126 52.5626 116.469 52.4094C116.812 52.2562 117.206 52.1833 117.666 52.1833C118.125 52.1833 118.512 52.2562 118.855 52.4094C119.198 52.5626 119.46 52.7815 119.657 53.0733C119.854 53.3651 119.956 53.7226 119.964 54.153C119.971 54.3646 119.978 54.5761 119.978 54.7877C119.978 54.9992 119.978 55.2108 119.964 55.4078C119.949 55.8382 119.847 56.1957 119.65 56.4875C119.453 56.7793 119.19 56.9982 118.855 57.1368C118.519 57.2827 118.118 57.3556 117.666 57.3556M117.658 56.13C117.863 56.13 118.023 56.0716 118.154 55.9476C118.286 55.8236 118.351 55.6339 118.359 55.364C118.366 55.1597 118.373 54.9555 118.373 54.7658C118.373 54.5761 118.373 54.3718 118.359 54.1749C118.359 53.9998 118.322 53.8539 118.264 53.7372C118.205 53.6204 118.125 53.5402 118.023 53.4818C117.921 53.4307 117.804 53.4016 117.666 53.4016C117.527 53.4016 117.41 53.4307 117.308 53.4818C117.206 53.5329 117.118 53.6204 117.06 53.7372C117.002 53.8539 116.965 53.9998 116.965 54.1749C116.965 54.3791 116.958 54.5761 116.958 54.7658C116.958 54.9555 116.958 55.1597 116.965 55.364C116.973 55.6339 117.046 55.8236 117.17 55.9476C117.294 56.0716 117.461 56.13 117.666 56.13" fill="white"/>
<path d="M123.903 57.3556C123.4 57.3556 122.984 57.2827 122.648 57.1441C122.313 57.0054 122.065 56.8158 121.904 56.5896C121.736 56.3635 121.649 56.1227 121.642 55.8674C121.642 55.8236 121.656 55.7871 121.685 55.758C121.715 55.7288 121.751 55.7142 121.795 55.7142H122.94C123.006 55.7142 123.064 55.7288 123.101 55.7434C123.137 55.7652 123.181 55.7944 123.225 55.8309C123.268 55.882 123.32 55.933 123.378 55.9768C123.436 56.0206 123.509 56.0571 123.604 56.0862C123.692 56.1154 123.801 56.1227 123.918 56.1227C124.137 56.1227 124.312 56.0935 124.428 56.0352C124.545 55.9768 124.611 55.8966 124.611 55.7871C124.611 55.7069 124.582 55.6412 124.516 55.5829C124.45 55.5318 124.341 55.4807 124.188 55.437C124.034 55.3932 123.823 55.3494 123.56 55.2983C123.188 55.2327 122.875 55.1451 122.605 55.0211C122.335 54.8971 122.13 54.7366 121.992 54.525C121.853 54.3135 121.78 54.0581 121.78 53.7517C121.78 53.4453 121.868 53.1681 122.043 52.9274C122.218 52.6866 122.466 52.5042 122.78 52.3656C123.093 52.2343 123.458 52.1614 123.874 52.1614C124.217 52.1614 124.523 52.2051 124.793 52.3C125.056 52.3875 125.282 52.5115 125.464 52.6574C125.647 52.8034 125.785 52.9639 125.88 53.1316C125.975 53.2994 126.026 53.4599 126.033 53.6131C126.033 53.6569 126.019 53.6934 125.99 53.7226C125.96 53.7517 125.924 53.7663 125.887 53.7663H124.684C124.625 53.7663 124.582 53.759 124.538 53.7372C124.501 53.7153 124.458 53.6861 124.421 53.6423C124.399 53.5767 124.341 53.5183 124.239 53.4599C124.144 53.4089 124.02 53.3797 123.874 53.3797C123.713 53.3797 123.589 53.4089 123.502 53.4599C123.414 53.5183 123.371 53.5985 123.371 53.7007C123.371 53.7736 123.4 53.832 123.451 53.8904C123.502 53.9414 123.597 53.9925 123.728 54.029C123.859 54.0727 124.049 54.1165 124.29 54.1603C124.742 54.2259 125.114 54.3208 125.391 54.4448C125.669 54.5688 125.88 54.7293 126.004 54.9336C126.136 55.1379 126.201 55.3859 126.201 55.6923C126.201 56.0352 126.106 56.327 125.909 56.5677C125.712 56.8158 125.442 56.9981 125.1 57.1295C124.757 57.2608 124.363 57.3264 123.925 57.3264" fill="white"/>
<path d="M41.1745 66.9271C41.1235 66.9271 41.087 66.9125 41.0432 66.876C41.0067 66.8395 40.9849 66.7957 40.9849 66.7447V62.083C40.9849 62.0319 41.0067 61.9881 41.0432 61.9517C41.0797 61.9152 41.1235 61.9006 41.1745 61.9006H44.6982C44.7492 61.9006 44.793 61.9152 44.8368 61.9517C44.8733 61.9881 44.8951 62.0319 44.8951 62.083V62.9292C44.8951 62.9803 44.8733 63.0168 44.8368 63.0605C44.8003 63.097 44.7492 63.1189 44.6982 63.1189H42.4731V63.8338H44.5377C44.5887 63.8338 44.6325 63.8484 44.6763 63.8849C44.7128 63.9214 44.7346 63.9652 44.7346 64.0162V64.7895C44.7346 64.8406 44.7128 64.8844 44.6763 64.9208C44.6398 64.9573 44.5887 64.9719 44.5377 64.9719H42.4731V65.6942H44.7492C44.8003 65.6942 44.8441 65.716 44.8878 65.7525C44.9243 65.789 44.9462 65.8328 44.9462 65.8911V66.7301C44.9462 66.7811 44.9243 66.8249 44.8878 66.8614C44.8514 66.8979 44.8076 66.9125 44.7492 66.9125H41.1672L41.1745 66.9271Z" fill="white"/>
<path d="M46.7409 66.9271C46.6899 66.9271 46.6534 66.9125 46.6096 66.876C46.5732 66.8395 46.5513 66.7957 46.5513 66.7447V62.083C46.5513 62.0319 46.5732 61.9881 46.6096 61.9517C46.6461 61.9152 46.6899 61.9006 46.7409 61.9006H47.9374C47.9884 61.9006 48.0322 61.9152 48.076 61.9517C48.1125 61.9881 48.1344 62.0319 48.1344 62.083V65.6504H50.2135C50.2646 65.6504 50.3083 65.665 50.3521 65.7014C50.3886 65.7379 50.4105 65.7817 50.4105 65.8328V66.7374C50.4105 66.7884 50.3886 66.8322 50.3521 66.8687C50.3156 66.9052 50.2646 66.9198 50.2135 66.9198H46.7482L46.7409 66.9271Z" fill="white"/>
<path d="M52.1907 66.9271C52.1396 66.9271 52.1031 66.9125 52.0593 66.876C52.0229 66.8395 52.001 66.7957 52.001 66.7447V62.083C52.001 62.0319 52.0229 61.9881 52.0593 61.9517C52.0958 61.9152 52.1396 61.9006 52.1907 61.9006H55.7143C55.7654 61.9006 55.8091 61.9152 55.8529 61.9517C55.8894 61.9881 55.9113 62.0319 55.9113 62.083V62.9292C55.9113 62.9803 55.8894 63.0168 55.8529 63.0605C55.8164 63.097 55.7726 63.1189 55.7143 63.1189H53.4892V63.8338H55.5538C55.6049 63.8338 55.6486 63.8484 55.6924 63.8849C55.7289 63.9214 55.7508 63.9652 55.7508 64.0162V64.7895C55.7508 64.8406 55.7289 64.8844 55.6924 64.9208C55.6559 64.9573 55.6122 64.9719 55.5538 64.9719H53.4892V65.7014H55.7654C55.8164 65.7014 55.8602 65.7233 55.904 65.7598C55.9404 65.7963 55.9623 65.8474 55.9623 65.8984V66.7374C55.9623 66.7884 55.9404 66.8322 55.904 66.8687C55.8675 66.9052 55.8164 66.9198 55.7654 66.9198H52.1834L52.1907 66.9271ZM53.3506 61.5358C53.2777 61.5358 53.2339 61.4994 53.2339 61.4191C53.2339 61.3826 53.2485 61.3462 53.2704 61.3243L53.9488 60.4999C53.9999 60.4415 54.0364 60.4051 54.0728 60.3905C54.1093 60.3759 54.1531 60.3613 54.2115 60.3613H55.4152C55.5027 60.3613 55.5538 60.4124 55.5538 60.5072C55.5538 60.5437 55.5392 60.5656 55.5173 60.5947L54.5106 61.4191C54.4741 61.4556 54.4303 61.4775 54.3938 61.4994C54.3501 61.5212 54.299 61.5285 54.226 61.5285H53.3506V61.5358Z" fill="white"/>
<path d="M59.8941 67C59.4418 67 59.0405 66.9271 58.6977 66.7884C58.3548 66.6498 58.0922 66.431 57.8952 66.1465C57.6982 65.8619 57.5961 65.4972 57.5742 65.0522C57.5742 64.8552 57.5669 64.6436 57.5669 64.4175C57.5669 64.1913 57.5669 63.9798 57.5742 63.7682C57.5961 63.3378 57.7055 62.9803 57.9025 62.6885C58.0995 62.3967 58.3694 62.1778 58.7123 62.0392C59.0551 61.8933 59.4491 61.8203 59.8868 61.8203C60.2005 61.8203 60.4996 61.8568 60.7768 61.9298C61.054 62.0027 61.3021 62.1194 61.5136 62.2654C61.7252 62.4186 61.9003 62.6009 62.0243 62.8198C62.1483 63.0387 62.214 63.3013 62.2213 63.6004C62.2213 63.6442 62.2067 63.6806 62.1702 63.7098C62.141 63.739 62.1046 63.7536 62.0608 63.7536H60.8425C60.7695 63.7536 60.7185 63.739 60.682 63.7098C60.6455 63.6806 60.6236 63.6296 60.5944 63.5566C60.5288 63.3524 60.4412 63.2137 60.3172 63.1408C60.2005 63.0678 60.0546 63.0314 59.8795 63.0314C59.6679 63.0314 59.5001 63.0897 59.3761 63.1991C59.2521 63.3086 59.1864 63.5056 59.1719 63.7901C59.1573 64.184 59.1573 64.5853 59.1719 64.9938C59.1792 65.2783 59.2521 65.4753 59.3761 65.5847C59.5001 65.6941 59.6679 65.7525 59.8795 65.7525C60.0546 65.7525 60.2005 65.716 60.3245 65.6358C60.4485 65.5628 60.5361 65.4242 60.5944 65.2272C60.6163 65.147 60.6382 65.0959 60.6747 65.074C60.7112 65.0449 60.7622 65.0376 60.8352 65.0376H62.0535C62.0973 65.0376 62.1337 65.0522 62.1629 65.0813C62.1921 65.1105 62.214 65.147 62.214 65.1908C62.214 65.4899 62.141 65.7452 62.017 65.9714C61.893 66.1975 61.7252 66.3799 61.5064 66.5331C61.2875 66.6863 61.0468 66.7957 60.7695 66.8687C60.4923 66.9416 60.2005 66.9781 59.8795 66.9781" fill="white"/>
<path d="M65.4389 66.927C65.3879 66.927 65.3441 66.9125 65.3076 66.876C65.2712 66.8395 65.2566 66.7957 65.2566 66.7447V63.2356H64.0164C63.9653 63.2356 63.9215 63.221 63.8851 63.1846C63.8486 63.1481 63.834 63.1043 63.834 63.0532V62.0903C63.834 62.0392 63.8486 61.9954 63.8851 61.959C63.9215 61.9225 63.9653 61.9079 64.0164 61.9079H68.058C68.109 61.9079 68.1528 61.9225 68.1893 61.959C68.2258 61.9954 68.2403 62.0392 68.2403 62.0903V63.0532C68.2403 63.1043 68.2258 63.1481 68.1893 63.1846C68.1528 63.221 68.109 63.2356 68.058 63.2356H66.8178V66.7447C66.8178 66.7957 66.8032 66.8395 66.7667 66.876C66.7302 66.9125 66.6864 66.927 66.6354 66.927H65.4389Z" fill="white"/>
<path d="M70.0349 66.9271C69.9838 66.9271 69.9474 66.9125 69.9036 66.876C69.8671 66.8395 69.8452 66.7957 69.8452 66.7447V62.083C69.8452 62.0319 69.8671 61.9881 69.9036 61.9517C69.9401 61.9152 69.9838 61.9006 70.0349 61.9006H72.0849C72.7342 61.9006 73.2521 62.0465 73.6169 62.3456C73.9889 62.6447 74.1713 63.0605 74.1713 63.5931C74.1713 63.9287 74.0984 64.2132 73.9379 64.4466C73.7847 64.6801 73.5804 64.8698 73.3324 65.0011L74.2662 66.7009C74.2662 66.7009 74.2881 66.7593 74.2881 66.7811C74.2881 66.8249 74.2735 66.8614 74.2443 66.8906C74.2151 66.9198 74.1786 66.9343 74.1349 66.9343H72.9165C72.829 66.9343 72.756 66.9125 72.705 66.8687C72.6539 66.8249 72.6247 66.7811 72.6101 66.7447L71.8879 65.2637H71.3699V66.752C71.3699 66.803 71.3553 66.8468 71.3189 66.8833C71.2824 66.9198 71.2386 66.9343 71.1876 66.9343H70.013L70.0349 66.9271ZM71.3918 64.0673H72.0776C72.2454 64.0673 72.3694 64.0235 72.4496 63.9287C72.5299 63.8338 72.5737 63.7171 72.5737 63.5785C72.5737 63.4399 72.5372 63.3159 72.4569 63.2137C72.3767 63.1116 72.2527 63.0605 72.0776 63.0605H71.3918V64.0673Z" fill="white"/>
<path d="M76.0901 66.9271C76.039 66.9271 76.0025 66.9125 75.9588 66.876C75.9223 66.8395 75.9004 66.7957 75.9004 66.7447V62.083C75.9004 62.0319 75.9223 61.9881 75.9588 61.9517C75.9952 61.9152 76.039 61.9006 76.0901 61.9006H77.3157C77.3667 61.9006 77.4105 61.9152 77.447 61.9517C77.4835 61.9881 77.4981 62.0319 77.4981 62.083V66.7447C77.4981 66.7957 77.4762 66.8395 77.447 66.876C77.4105 66.9125 77.3667 66.9271 77.3157 66.9271H76.0901Z" fill="white"/>
<path d="M81.4229 67C80.9706 67 80.5694 66.9271 80.2265 66.7884C79.8836 66.6498 79.621 66.431 79.424 66.1465C79.227 65.8619 79.1249 65.4972 79.103 65.0522C79.103 64.8552 79.0957 64.6436 79.0957 64.4175C79.0957 64.1913 79.0957 63.9798 79.103 63.7682C79.1249 63.3378 79.2343 62.9803 79.4313 62.6885C79.6283 62.3967 79.8982 62.1778 80.2411 62.0392C80.5839 61.9006 80.9779 61.8203 81.4156 61.8203C81.7293 61.8203 82.0284 61.8568 82.3056 61.9298C82.5829 62.0027 82.8309 62.1194 83.0425 62.2654C83.254 62.4186 83.4291 62.6009 83.5531 62.8198C83.6771 63.0387 83.7428 63.3013 83.7501 63.6004C83.7501 63.6442 83.7355 63.6806 83.699 63.7098C83.6699 63.739 83.6334 63.7536 83.5896 63.7536H82.3713C82.2983 63.7536 82.2473 63.739 82.2108 63.7098C82.1743 63.6806 82.1524 63.6296 82.1233 63.5566C82.0576 63.3524 81.9701 63.2137 81.846 63.1408C81.7293 63.0678 81.5834 63.0314 81.4083 63.0314C81.1967 63.0314 81.029 63.0897 80.9049 63.1991C80.7809 63.3086 80.7153 63.5056 80.7007 63.7901C80.6861 64.184 80.6861 64.5853 80.7007 64.9938C80.708 65.2783 80.7809 65.4753 80.9049 65.5847C81.029 65.6941 81.1967 65.7525 81.4083 65.7525C81.5834 65.7525 81.7293 65.716 81.8533 65.6358C81.9773 65.5628 82.0649 65.4242 82.1233 65.2272C82.1451 65.147 82.167 65.0959 82.2035 65.074C82.24 65.0449 82.291 65.0376 82.364 65.0376H83.5823C83.6261 65.0376 83.6626 65.0522 83.6917 65.0813C83.7209 65.1105 83.7428 65.147 83.7428 65.1908C83.7428 65.4899 83.6699 65.7452 83.5458 65.9714C83.4218 66.1975 83.254 66.3799 83.0352 66.5331C82.8163 66.6863 82.5756 66.7957 82.2983 66.8687C82.0211 66.9416 81.7293 66.9781 81.4083 66.9781" fill="white"/>
<path d="M87.6745 67C87.2149 67 86.8136 66.927 86.478 66.7811C86.1424 66.6352 85.8725 66.4237 85.6828 66.1319C85.4859 65.84 85.3837 65.4826 85.3691 65.0522C85.3691 64.8479 85.3691 64.6436 85.3691 64.4321C85.3691 64.2205 85.3691 64.0089 85.3691 63.7974C85.3837 63.3742 85.4859 63.0095 85.6828 62.7177C85.8798 62.4258 86.1424 62.207 86.4853 62.0538C86.8282 61.9006 87.2222 61.8276 87.6818 61.8276C88.1414 61.8276 88.528 61.9006 88.8709 62.0538C89.2138 62.207 89.4764 62.4258 89.6734 62.7177C89.8703 63.0095 89.9725 63.3669 89.9798 63.7974C89.9871 64.0089 89.9944 64.2205 89.9944 64.4321C89.9944 64.6436 89.9944 64.8552 89.9798 65.0522C89.9652 65.4826 89.863 65.84 89.6661 66.1319C89.4691 66.4237 89.2065 66.6425 88.8709 66.7811C88.5353 66.927 88.1341 67 87.6818 67M87.6745 65.7744C87.8787 65.7744 88.0392 65.716 88.1705 65.592C88.3019 65.468 88.3675 65.271 88.3748 65.0084C88.3821 64.8041 88.3894 64.5998 88.3894 64.4102C88.3894 64.2205 88.3894 64.0162 88.3748 63.8193C88.3748 63.6442 88.3383 63.4983 88.28 63.3815C88.2216 63.2648 88.1414 63.1846 88.0392 63.1262C87.9371 63.0751 87.8204 63.0459 87.6818 63.0459C87.5431 63.0459 87.4264 63.0751 87.3243 63.1262C87.2221 63.1773 87.1346 63.2648 87.0762 63.3815C87.0179 63.4983 86.9814 63.6442 86.9814 63.8193C86.9814 64.0235 86.9814 64.2205 86.9814 64.4102C86.9814 64.5998 86.9814 64.8041 86.9814 65.0084C86.9887 65.2783 87.0617 65.468 87.1857 65.592C87.3097 65.716 87.4775 65.7744 87.6818 65.7744" fill="white"/>
<path d="M93.8612 67C93.3578 67 92.9419 66.9271 92.6064 66.7884C92.2708 66.6498 92.0227 66.4602 91.8622 66.234C91.6944 66.0078 91.6069 65.7671 91.5996 65.5118C91.5996 65.468 91.6142 65.4315 91.6434 65.4023C91.6726 65.3732 91.709 65.3586 91.7528 65.3586H92.8982C92.9638 65.3586 93.0149 65.3731 93.0587 65.3877C93.0951 65.4096 93.1389 65.4388 93.1827 65.4753C93.2265 65.5264 93.2775 65.5774 93.3359 65.6212C93.3943 65.665 93.4672 65.7014 93.5548 65.7306C93.6423 65.7598 93.7517 65.7671 93.8684 65.7671C94.0873 65.7671 94.2624 65.7379 94.3791 65.6796C94.4958 65.6212 94.5615 65.5409 94.5615 65.4315C94.5615 65.3513 94.5323 65.2856 94.4667 65.2272C94.401 65.1762 94.2916 65.1251 94.1384 65.0813C93.9852 65.0376 93.7736 64.9938 93.511 64.9427C93.1389 64.8771 92.8252 64.7895 92.5553 64.6655C92.2854 64.5415 92.0811 64.381 91.9425 64.1694C91.8039 63.9579 91.7309 63.7025 91.7309 63.3961C91.7309 63.0897 91.8185 62.8125 91.9936 62.5718C92.1686 62.331 92.4094 62.1486 92.7304 62.01C93.0441 61.8787 93.4088 61.8058 93.8247 61.8058C94.1676 61.8058 94.474 61.8495 94.7439 61.9444C95.0065 62.0319 95.2327 62.1559 95.415 62.3018C95.5974 62.4477 95.736 62.6082 95.8309 62.776C95.9257 62.9438 95.9768 63.1043 95.9841 63.2575C95.9841 63.3013 95.9695 63.3378 95.9403 63.3669C95.9111 63.3961 95.8747 63.4107 95.8382 63.4107H94.6345C94.5761 63.4107 94.525 63.4034 94.4886 63.3815C94.4521 63.3596 94.4156 63.3305 94.3718 63.2867C94.3499 63.221 94.2916 63.1627 94.1894 63.1043C94.0946 63.0532 93.9706 63.0241 93.8247 63.0241C93.6642 63.0241 93.5402 63.0532 93.4526 63.1043C93.3651 63.1627 93.3213 63.2429 93.3213 63.3451C93.3213 63.418 93.3505 63.4764 93.4015 63.5347C93.4526 63.5858 93.5475 63.6369 93.6788 63.6733C93.8101 63.7171 93.9998 63.7609 94.2405 63.8047C94.6928 63.8703 95.0649 63.9652 95.3421 64.0892C95.6193 64.2132 95.8236 64.3737 95.9549 64.578C96.0862 64.7822 96.1519 65.0303 96.1519 65.3367C96.1519 65.6796 96.057 65.9714 95.8601 66.2121C95.6631 66.4602 95.3932 66.6425 95.0503 66.7738C94.7074 66.9052 94.3135 66.9708 93.8757 66.9708" fill="white"/>
<path d="M29.5897 31.3114H13.8246C13.365 31.3114 13.1315 31.0415 13.1315 30.5016V27.4449C13.1315 26.9051 13.4379 26.6351 14.058 26.6351H28.0869C28.4735 26.6351 28.7435 26.5403 28.8967 26.3433C29.0499 26.1536 29.1301 25.9202 29.1301 25.6503V17.268C29.1301 16.4947 28.7289 16.108 27.9191 16.108H14.1748C13.4817 16.108 13.1315 15.7068 13.1315 14.897V12.7084C13.1315 11.9789 13.5765 11.6068 14.4593 11.6068H28.8383C29.8378 11.6068 30.3411 11.0889 30.3411 10.0456V1.21831C30.3411 0.408537 29.991 0 29.2979 0H1.10159C0.364765 0 0 0.445013 0 1.32774V41.4665C0 42.4294 0.517966 42.9109 1.56119 42.9109H29.473C29.9764 42.9109 30.3338 42.7869 30.5454 42.5316C30.757 42.2835 30.8664 41.9844 30.8664 41.6343V32.3984C30.8664 31.6689 30.4433 31.2968 29.597 31.2968" fill="white"/>
<path d="M134.701 0H122.941C122.153 0 121.766 0.445013 121.766 1.32774V41.4665C121.766 41.9698 121.883 42.3346 122.109 42.5681C122.335 42.8015 122.78 42.9182 123.437 42.9182H133.774C134.475 42.9182 134.992 42.7942 135.321 42.5462C135.649 42.2981 135.817 41.8604 135.817 41.2476V1.21831C135.817 0.408537 135.445 0 134.701 0Z" fill="white"/>
<path d="M81.6487 23.7097H76.4763C76.3596 23.7097 76.272 23.6003 76.3012 23.4836L83.3631 0H66.2994C65.5625 0 65.0446 0.561738 64.7382 1.67792L59.3615 19.4347C59.2813 19.7046 59.1646 19.8505 59.0114 19.8651C58.8582 19.887 58.7195 19.7411 58.6101 19.4347L53.197 1.04323C53.0438 0.6201 52.8614 0.342879 52.6499 0.204268C52.4383 0.072953 52.0808 0 51.5774 0H35.3819C34.5721 0 34.1636 0.445013 34.1636 1.32774V41.2914C34.1636 42.3711 34.6669 42.9109 35.6664 42.9109H46.3832C46.923 42.9109 47.2732 42.8234 47.4264 42.6483C47.5796 42.4732 47.6599 42.1376 47.6599 41.6343V23.6441C47.6599 23.2574 47.7401 23.0385 47.8933 22.9802C48.0465 22.9218 48.1997 23.1261 48.3529 23.5857L53.3502 41.8677C53.5837 42.5608 54.0433 42.9109 54.7363 42.9109H62.3234C62.98 42.9109 63.4396 42.5681 63.7095 41.8677L69.0059 24.3298C69.1226 23.9796 69.2685 23.8118 69.4436 23.8118C69.6187 23.8118 69.7063 23.965 69.7063 24.2715V41.4592C69.7063 41.9625 69.8157 42.3273 70.0273 42.5608C70.2388 42.7942 70.6328 42.9036 71.2164 42.9036H80.3866C80.8389 42.9036 81.2109 42.8234 81.4955 42.6775L81.8237 23.8483C81.8092 23.7608 81.7362 23.7024 81.6487 23.7024" fill="white"/>
<path d="M81.8531 42.838L82.0938 42.0282C81.9698 42.3127 81.7802 42.5316 81.5029 42.6775V42.8307C81.5029 42.8307 81.5248 42.8817 81.5467 42.9036H81.5394C81.5394 42.9036 81.554 42.9036 81.554 42.9109C81.6269 42.9912 81.7437 42.9912 81.8093 42.9109C81.8093 42.9109 81.8239 42.9109 81.8239 42.9036H81.8093C81.8093 42.9036 81.8458 42.8672 81.8531 42.8307" fill="white"/>
<path d="M118.009 31.005H96.0573C95.5977 31.005 95.3643 30.7351 95.3643 30.1952L103.849 1.21831C103.849 0.408537 103.499 0 102.805 0H90.1262L84.7277 18.1653C84.6985 18.282 84.7861 18.3914 84.9028 18.3914H88.8787C88.9955 18.3914 89.083 18.4936 89.0538 18.6103L81.8461 42.8453C81.8461 42.8453 81.8315 42.8963 81.8169 42.9182H117.892C118.396 42.9182 118.76 42.7942 118.994 42.5462C119.227 42.2981 119.344 41.999 119.344 41.6488V32.1139C119.344 31.3844 118.899 31.0123 118.016 31.0123" fill="white"/>
</svg>
