<svg width="115" height="114" viewBox="0 0 115 114" fill="none" xmlns="http://www.w3.org/2000/svg">
<g clip-path="url(#clip0_91_1635)">
<path d="M1 47.221L52.761 26.611M1 47.221L52.761 67.831M1 47.221L52.761 109.053M52.761 26.611L103.396 47.221M52.761 26.611L1 88.444M52.761 26.611L103.396 88.442M52.761 67.831L103.396 47.221M52.761 67.831L1 88.442L52.761 109.053M52.761 67.831L103.396 88.442M52.761 109.053L103.396 47.221M52.761 109.053L103.396 88.442M1 26.61L52.761 6M1 26.61L52.761 47.221M1 26.61L52.761 88.443M52.761 6L103.396 26.61M52.761 6L1 67.832M52.761 6L103.396 67.832M52.761 47.221L103.396 26.61M52.761 47.221L1 67.832M52.761 47.221L103.396 67.832M52.761 88.443L103.396 26.61M52.761 88.443L1 67.832M52.761 88.443L103.396 67.832" stroke="#1F4C95" stroke-miterlimit="10"/>
</g>
<defs>
<clipPath id="clip0_91_1635">
<rect width="115" height="114" fill="white"/>
</clipPath>
</defs>
</svg>
