<svg width="504" height="334" viewBox="0 0 504 334" fill="none" xmlns="http://www.w3.org/2000/svg">
<path fill-rule="evenodd" clip-rule="evenodd" d="M134.938 27.5494C134.609 28.4158 134.576 30.2111 134.414 31.2443C134.221 32.4769 133.986 33.6455 133.802 34.882C133.689 35.6481 133.462 36.0467 133.798 36.5366C134 36.8311 136.619 39.0408 137.256 39.2909C139.148 40.0323 141.026 41.313 141.44 43.438C141.621 44.3682 141.362 50.0136 141.293 51.3439C141.139 54.2936 141.601 61.1441 139.966 62.6333C138.748 63.7421 138.979 63.6522 139.23 65.7146C139.564 68.4546 139.517 70.5496 140.06 73.244C140.54 75.6269 140.887 77.9213 141.292 80.372C141.462 81.4052 141.784 83.0964 141.809 84.1751C141.895 88.0929 134.23 83.9706 132.313 86.0213C130.691 87.7581 133.338 90.8224 134.122 91.7736C135.365 93.2823 136.248 95.0373 137.446 96.7831C141.91 103.288 139.41 103.513 140.165 106.645C140.38 107.536 141.104 108.879 141.628 109.269C142.982 110.277 145.453 107.636 148.399 109.847C149.787 110.889 150.608 113.158 151.702 114.88C156.942 123.131 151.131 124.287 158.042 125.379C161.365 125.904 162.5 129.063 164.585 131.405C165.233 132.133 165.989 132.567 166.805 133.268C168.472 134.701 170.173 135.605 172.85 134.092C175.107 132.817 174.833 129.514 175.471 128.381C176.069 127.32 176.777 127.052 176.763 125.347C176.751 124.051 176.003 122.905 176.393 121.637C176.754 120.468 177.947 120.472 178.934 119.916C182.177 118.089 179.518 111.663 184.498 113.606C187.513 114.781 186.104 115.073 189.722 116.713C191.763 117.638 192.045 119.882 194.974 119.783C199.458 119.632 201.318 118.776 205.284 121.406C208.32 123.421 210.614 118.896 212.164 116.885C214.273 114.152 217.47 113.177 220.899 115.1L223.164 116.775C223.034 115.959 222.517 114.947 222.248 114.076C221.514 111.692 220.686 107.712 220.274 105.282C219.611 101.358 218.201 96.8678 218.929 92.7533C219.512 89.4531 221.67 86.1646 223.375 82.6729C224.81 79.7336 227.268 76.3448 228.247 73.2205C227.682 72.4206 224.469 70.4037 223.233 69.7901C220.204 68.2865 219.722 69.7028 214.697 65.583C211.673 63.105 210.811 63.4958 207.809 59.8921C205.432 57.0388 205.68 54.1959 204.412 50.5478C203.497 47.9108 202.883 43.21 200.926 41.2882C200.27 40.6446 199.471 39.8981 198.588 39.3769C195.163 37.3561 189.871 32.7948 186.724 30.1695C183.087 27.1377 182.952 26.4432 180.505 23.6407C179.153 22.0929 177.503 19.4676 176.714 19.1015C174.597 18.1165 167.374 18.6624 164.594 18.7236C161.248 18.7966 152.775 18.6351 149.705 19.7568C149.52 19.8246 149.512 19.8259 149.356 19.9184C148.592 20.3783 149.106 22.2948 148.843 24.1228C148.71 25.0465 148.484 26.9331 148.25 27.6275C146.608 27.9493 143.378 27.5637 141.567 27.5207C139.359 27.4699 137.143 27.5038 134.936 27.5494H134.938Z" fill="#EDEFF3" fill-opacity="0.57"/>
<path fill-rule="evenodd" clip-rule="evenodd" d="M138.485 64.8886C137.994 59.5963 140.535 67.4045 140.579 53.7738C140.584 52.2846 140.726 50.8227 140.728 49.3648C140.728 47.916 140.672 46.4477 140.806 45.0405C141.064 42.3358 139.367 40.7827 137.095 39.9463C136.04 39.558 135.2 38.5626 134.476 37.9881C133.509 37.2194 132.757 37.0317 133.065 35.3172C133.519 32.7804 133.841 30.2229 134.173 27.6406C131.646 27.3435 128.277 27.7109 125.61 27.5767L108.581 27.3592C105.836 27.4973 103.001 27.6002 100.233 27.5728C98.4854 27.5559 95.3714 26.1201 93.7018 25.5065L43.2428 6.7098C41.7959 6.1652 38.148 4.47276 36.6698 5.20888C35.2723 5.90462 35.7347 6.58082 35.6188 8.25372C35.4872 10.1494 36.6567 9.56832 36.4171 11.6165C36.1723 13.6998 35.7008 13.4652 40.3164 15.8417C41.1877 16.2899 42.0694 17.0195 42.9758 17.5941C44.7249 18.7028 47.1864 21.1535 48.5096 20.5047C49.347 20.0943 49.347 18.781 50.9333 18.6768C51.9036 18.6129 51.9895 19.0116 52.5209 19.323C54.5565 20.5164 55.5632 18.639 58.5951 24.0329C59.1968 25.1039 59.9639 25.3358 61.3744 25.5078C65.3102 25.9885 65.133 25.8413 67.0618 28.4666C68.3277 30.1916 66.3885 32.8873 66.0642 35.1009C65.8285 36.706 67.9383 39.9098 68.6338 40.9508C69.9127 42.8673 71.0419 43.7585 71.6592 46.5779C71.9431 47.8743 71.7777 49.1016 72.2908 50.3628C73.2702 52.7718 75.3722 56.5593 76.8361 58.726C78.3807 61.0126 77.6345 60.7663 78.1671 61.8034C79.0645 63.5493 81.1756 63.6704 81.6757 66.9589C81.8997 68.4312 82.1719 68.9719 82.633 70.2448C84.1945 74.5599 85.6623 72.5704 87.0831 74.4544C87.8607 75.4876 87.2564 79.1343 89.7934 80.4046C92.811 81.916 92.7706 81.5616 94.6981 84.1569C95.262 84.9165 95.7713 85.7829 96.2531 86.85C97.5086 89.6225 97.0137 88.2037 97.7691 89.5574C101.017 89.6238 99.569 88.7587 102.87 90.1958C104.698 90.9905 106.296 90.8602 108.076 91.3762C110.526 92.0863 109.696 93.3839 109.028 95.4099C108.218 97.8671 107.915 97.7616 108.857 100.387C109.401 101.9 110.524 103.3 111.569 104.045C113.533 105.449 114.025 104.9 116.329 105.656C121.233 107.265 119.873 111.732 120.835 113.868C123.312 114.324 123.559 113.013 125.22 113.241C128.191 113.649 127.384 115.477 129.979 118.636L132.255 121.324L132.743 120.931C132.882 120.8 132.921 120.742 133.071 120.604L139.777 115.061C141.71 113.47 142.419 112.852 142.907 110.122C141.147 110.22 140.388 109.422 139.681 107.29C138.988 105.198 139.849 103.481 139.384 101.883C138.738 99.6625 136.373 96.2464 135.018 94.1487C133.782 92.2348 130.072 88.5698 131.52 86.0474C133.227 83.0729 137.951 86.2389 141.111 84.8813C141.409 81.7414 138.893 72.4115 138.813 69.1412C138.775 67.5791 138.622 66.3713 138.484 64.8886H138.485Z" fill="#EDEFF3" fill-opacity="0.57"/>
<path fill-rule="evenodd" clip-rule="evenodd" d="M279.873 143.338C279.709 141.902 277.229 141.663 275.936 141.089C273.657 140.079 273.917 138.092 273.128 137.691C272.048 137.142 272.056 137.769 271.103 136.611C270.733 136.161 270.243 135.265 269.972 134.633C269.517 133.574 269.738 133.027 269.573 131.91C269.265 129.848 267.709 127.424 266.37 125.983C264.919 124.422 262.605 122.76 265.44 120.503C266.084 119.991 266.511 119.521 266.999 118.957C267.465 118.419 268.088 117.933 268.587 117.443C269.222 116.817 269.26 116.369 270.596 116.483C271.84 116.588 272.495 116.756 273.124 115.937C274.463 114.192 275.838 110.591 272.985 109.56C272.138 109.254 271.344 109.129 270.885 108.555C270.371 107.911 270.682 106.901 271.182 106.314C271.934 105.43 273.825 104.819 275.062 104.152C276.884 103.17 277.203 102.882 277.927 100.802C278.489 99.1908 279.081 97.9752 280.068 96.9043C281.276 95.5949 282.344 95.9909 284.409 97.157C285.008 97.4958 285.934 98.0938 286.588 97.7173L288.09 96.2593L286.464 94.1174C285.941 93.4164 285.499 92.709 284.965 92.0224C283.699 90.3912 282.264 90.1579 280.977 88.8238C277.534 85.2526 278.192 83.9445 276.123 79.1343C275.349 77.3311 274.374 75.9943 273.637 74.2693C272.776 72.2564 272.765 70.7554 271.333 69.3848C270.755 68.8311 270.189 68.1249 269.492 67.6324C268.778 67.1269 268.139 66.7387 267.3 66.2292C266.5 65.7433 265.887 65.2886 265.112 64.8195C262.661 63.3368 263.093 64.1303 261.594 60.9877C259.757 57.1377 257.612 58.7533 253.471 58.3142C251.698 58.1253 250.67 57.4739 247.564 57.0869C245.573 56.8381 246.133 57.3553 244.884 57.9468C243.443 58.6295 241.284 58.081 240.207 60.6229C239.866 61.4281 239.359 62.3102 239.154 63.1531C238.706 64.9967 238.609 67.5934 237.336 68.5366C234.722 70.4753 234.005 72.883 231.739 73.7273C230.378 74.2341 230.182 73.9332 228.95 73.5293C228.432 74.2211 227.927 75.6465 227.488 76.4946C226.963 77.5096 226.494 78.3421 225.929 79.3492C224.88 81.2163 223.964 82.9856 222.976 85.0572C220.527 90.1996 218.581 91.2367 219.683 98.5029C220.381 103.101 221.414 108.676 222.627 113.046C222.959 114.243 223.357 115.172 223.762 116.324C224.491 118.4 223.992 117.043 226.053 118.438C226.673 118.858 228.065 120.004 228.372 120.529C229.82 123.002 228.702 127.294 228.733 129.597C228.811 135.367 226.94 135.933 226.03 138.608C224.667 142.62 227.98 142.652 229.401 146.298C229.94 147.683 230.697 149.227 231.777 149.806C236.367 152.273 236.53 149.594 238.609 147.103C239.187 146.411 241.389 145.478 242.413 145.022C243.848 144.381 245.994 144.285 247.71 144.487C250.206 144.781 254.507 146.948 255.507 148.292C256.568 149.719 256.274 150.798 258.183 151.496C260.258 152.255 261.034 151.086 262.927 151.055C266.246 151 264.243 153.521 270.11 155.372C270.532 154.594 270.347 153.568 270.37 152.627C270.397 151.444 270.954 151.082 270.948 150.019C270.94 148.67 269.419 146.517 270.53 144.889C270.746 144.571 271.921 143.798 272.336 143.586C274.29 142.599 278.254 145.048 279.87 143.339L279.873 143.338Z" fill="#EDEFF3" fill-opacity="0.57"/>
<path fill-rule="evenodd" clip-rule="evenodd" d="M185.044 114.526C180.513 112.545 182.322 116.113 180.688 119.056C179.863 120.544 179.183 120.334 177.699 121.133C175.717 122.198 178.358 124.549 177.012 127.31C176.062 129.255 176.197 127.297 175.581 130.782C174.975 134.21 172.18 136.19 168.188 135.165C166.675 136.603 165.233 138.494 165.477 141.583C165.732 144.822 165.406 147.248 167.489 148.922C169.333 150.404 170.529 151.784 171.703 154.021C172.271 155.101 172.65 155.907 173.06 157.247C173.558 158.871 174.149 159.049 174.841 160.018C177.771 160.226 177.328 157.784 180.786 159.473C183.192 160.648 183.039 161.904 184.599 163.341C186.251 164.863 184.75 167.569 185.35 169.924C185.519 170.587 187.549 173.916 188.082 174.887C189.459 177.396 188.23 178.014 190.602 180.049C193.75 182.748 198.599 183.388 200.535 185.473C202.138 187.198 200.155 189.996 201.219 191.79C202.938 191.562 204.351 187.603 206.564 192.675C207.849 195.624 209.167 194.652 210.681 193.669C211.707 193.002 211.963 193.268 212.272 192.911C212.899 192.081 213.784 185.982 213.995 184.393C214.308 182.046 214.046 177.024 215.476 175.751C215.95 175.329 216.54 175.134 217.133 174.793C219.797 173.261 219.611 171.82 219.366 169.604C218.84 164.826 219.515 164.662 221.847 162.357L226.323 158.989C230.791 155.697 230.908 157.183 235.885 157.771C237.567 157.969 239.16 157.723 240.816 157.595C242.805 157.443 242.75 156.482 242.479 154.61C242.284 153.26 242.382 151.141 242.042 149.989C241.729 148.931 240.777 147.861 240.263 146.758C238.08 147.602 237.461 151.486 234.84 151.457C234.019 151.448 231.638 150.566 231.095 150.158C229.116 148.669 228.855 145.55 227.248 144.041C225.124 142.046 224.185 140.587 225.904 137.161C227.367 134.245 228.151 134.125 228.078 129.427C228.046 127.415 229.213 122.596 227.576 120.509C227.184 120.008 225.571 118.862 224.727 118.455C221.825 117.056 221.076 115.296 218.422 114.815C211.799 113.614 211.504 123.166 206.28 122.512C204.944 122.346 204.306 121.245 202.951 120.797C196.334 118.609 195.041 122.584 191.024 118.511C189.808 117.279 189.33 117.451 187.937 116.535C186.923 115.868 186.029 114.956 185.044 114.523V114.526Z" fill="#EDEFF3" fill-opacity="0.57"/>
<path fill-rule="evenodd" clip-rule="evenodd" d="M322.657 269.206C319.283 271.202 321.502 273.141 320.776 274.557C320.425 275.243 318.853 275.567 317.972 275.187C317.139 274.826 316.578 273.892 315.48 274.16C314.102 274.496 312.148 276.774 311.626 277.818C311.207 278.655 310.963 283.702 311.362 284.576C312.017 286.014 313.772 286.776 315.282 288.334C318.605 291.766 316.555 296.261 313.893 298.232C312.591 299.196 312.853 298.437 312.153 300.249C311.789 301.195 311.23 302.043 311.014 303.02C313.078 303.496 317.069 306.466 319.03 307.46C320.227 308.067 322.251 308.798 323.724 308.952C325.71 309.162 327.588 308.946 329.487 309.413C331.369 309.877 332.442 310.491 334.078 311.041C338.404 312.492 335.573 311.589 338.358 312.957C341.928 314.708 343.761 313.857 348.062 312.485C349.716 311.958 350.792 311.239 352.516 310.728C356.193 309.64 357.874 308.989 361.171 306.968C362.594 306.095 363.557 305.278 364.759 304.346C365.863 303.49 366.951 302.466 368.576 301.963C370.546 301.352 372.113 301.256 373.146 302.668C374.439 304.436 374.938 304.306 377.598 304.122C380.523 303.92 381.443 305.148 382.476 305.466C382.272 303.946 381.813 302.492 382.141 300.985C382.45 299.567 382.55 298.313 382.935 296.873C383.347 295.327 384.427 293.211 385.254 291.844C385.533 291.381 386 290.822 386.162 290.469C383.612 290.154 381.36 289.785 378.716 289.636C373.924 289.365 368.653 290.447 365.422 286.213C363.911 284.233 363.378 281.124 362.568 280.694C360.85 279.956 356.745 284.827 354.133 282.637C353.386 282.011 351.71 280.695 351.777 279.11C351.851 277.357 353.096 276.439 353.344 274.97C354.044 270.802 348.587 272.593 346.234 270.442C343.504 267.947 342.835 263.625 340.837 264.179C340.634 264.293 339.271 265.614 339.149 265.818C338.058 267.617 339.102 267.597 336.984 269.86C333.273 273.828 334.023 271.451 330.064 272.071C327.933 272.405 327.77 273.841 326.657 274.835C325.221 274.965 324.553 273.529 324.039 272.543C323.415 271.347 323.544 270.208 322.657 269.206Z" fill="#EDEFF3" fill-opacity="0.57"/>
<path fill-rule="evenodd" clip-rule="evenodd" d="M237.209 206.453C237.641 209.665 240.649 211.145 238.762 213.102C237.753 214.148 237.081 214.079 235.713 214.792C230.968 217.267 234.915 220.236 231.456 219.743C229.047 219.399 229.226 217.907 224.71 217.362C223.319 217.194 222.316 216.696 221.723 215.745C220.864 214.366 221.873 213.188 222.487 212.345C225.071 208.794 223.923 207.773 225.244 205.789C227.524 202.362 228.669 204.077 230.99 202.221C231.659 201.686 232.56 200.281 232.254 199.153C231.878 197.767 229.809 194.653 227.304 194.949C226.757 196.934 225.757 200.254 223.109 199.642C221.833 198.809 222.907 191.142 218.945 190.869C217.945 193.631 219.288 195.684 215.94 196.644C215.217 196.851 214.627 196.838 214.22 197.213C211.523 199.7 213.395 198.066 210.332 199.81C210.205 202.759 213.19 202.718 214.399 204.441C216.467 207.394 214.58 209.908 214.336 210.968C214.967 211.774 216.489 212.776 217.269 213.993C218.574 216.027 216.191 216.722 215.354 217.141C211.749 218.939 214.314 221.828 212.34 225.701C209.615 226.417 207.28 222.941 206.392 222.258C204.113 220.507 202.767 219.831 199.936 221.977C199.293 222.464 197.305 223.292 197.045 223.818C196.753 224.407 197.48 226.39 196.721 227.909C195.306 230.738 192.938 229.824 190.129 230.8C189.878 232.069 190.659 233.556 191.21 234.339C194.255 238.664 193.013 238.221 194.273 240.424C194.698 241.166 198.087 244.557 198.849 245.16C199.758 245.88 200.233 246.381 200.8 247.786C202.174 251.194 206.341 251.294 208.471 251.727C209.93 252.023 209.96 251.056 211.53 250.406C214.838 249.035 213.715 248.273 215.268 247.272C217.069 246.112 217.6 250.53 222.024 247.34C223.289 246.428 224.228 247.275 224.694 248.394C225.791 251.026 224.922 253.659 226.301 255.938C227.238 256.275 231.009 257.01 231.95 256.299C232.412 255.95 232.123 255.783 232.573 255.284C232.853 254.974 233.145 254.883 233.473 254.548C234.082 253.926 234.283 253.451 234.936 252.907C236.465 251.636 238.843 252.539 239.734 251.336C240.198 250.711 240.131 249.413 239.808 248.63C239.135 246.995 236.198 245.063 236.599 242.479C237.167 238.814 236.008 239.902 233.747 239.331C232.963 239.133 232.167 238.539 232.271 237.652C232.501 235.698 236.909 235.042 238.4 234.313C239.785 233.635 241.404 232.859 242.888 232.268C244.51 231.623 246.5 231.545 247.928 230.939C249.011 230.481 250.726 228.683 250.17 226.858C249.959 226.164 249.245 225.686 249.179 224.527C249.026 221.84 253.779 216.871 255.694 215.177C259.134 212.136 254.899 209.445 257.545 205.576L256.452 204.696C256.076 204.406 255.766 204.197 255.292 203.892C254.804 203.579 254.585 203.466 254.055 203.17C253.572 202.901 253.401 202.689 252.914 202.503C252.373 202.964 252.02 203.475 251.394 204.012C250.808 204.514 250.213 204.744 249.606 205.329C248.492 206.401 247.953 207.591 246.623 208.556C244.054 210.422 239.591 207.013 237.205 206.454L237.209 206.453Z" fill="#EDEFF3" fill-opacity="0.57"/>
<path fill-rule="evenodd" clip-rule="evenodd" d="M250.346 176.487C254.044 174.561 254.15 172.802 255.603 171.615C259.058 168.792 258.36 171.415 263.552 164.535C264.313 163.526 265.157 162.899 265.905 161.984C266.931 160.728 269.653 157.672 269.95 156.048C267.099 154.915 267.137 155.315 265.052 152.793C263.11 150.442 261.272 152.641 259.068 152.386C255.051 151.922 256.585 149.053 253.318 147.375C249.831 145.585 249.164 145.034 244.788 145.085C243.7 145.098 241.487 146.04 240.927 146.586C241.463 147.882 242.5 148.728 242.772 150.239C243.021 151.619 243.081 153.753 243.226 155.241C243.422 157.256 242.684 158.127 240.82 158.25C239.124 158.364 237.47 158.62 235.772 158.416C229.769 157.695 231.283 155.987 224.18 161.422C221.042 163.821 219.636 164.546 219.869 167.929C220.116 171.505 221.096 173.312 217.191 175.506C215.64 176.377 215.159 176.506 215.081 178.769C215.02 180.554 214.833 182.093 214.701 183.839C214.583 185.402 214.127 186.882 213.951 188.432C213.272 194.391 212.21 192.616 213.5 194.724C213.94 195.444 213.998 195.777 214.577 196.264C219.625 195.859 216.906 191.853 218.706 190.282C219.787 190.115 220.657 190.663 221.115 191.19C222.949 193.297 222.747 196.294 223.419 199.042C226.256 199.221 225.823 195.431 227.154 194.337C229.285 193.865 230.628 195.597 231.477 196.508C232.36 197.454 233.479 199.33 232.633 201.081C230.964 204.539 228.467 203.227 226.738 204.994C226.226 205.516 225.697 206.159 225.4 206.923C224.665 208.815 224.927 210.048 223.69 211.749C222.517 213.363 221.238 214.617 222.81 215.965C224.053 217.034 226.378 216.589 227.906 217.401C235.044 221.191 231.216 217.806 233.446 215.63C235.742 213.391 238.056 213.778 238.616 212.136C239.167 210.519 234.438 206.538 237.287 202.474C240.097 198.465 238.293 197.335 243.371 195.663C245.842 194.848 246.601 193.457 249.108 196.356C249.814 197.171 250.517 197.578 251.128 198.585C251.677 199.489 252.037 200.749 252.705 201.416C253.275 201.983 254.431 202.59 255.262 203.107C257.279 204.364 258.181 206.096 260.781 204.104C260.71 202.006 260.798 200.045 260.765 197.894C260.706 194.171 262.004 194.261 261.164 192.487C260.534 192.366 259.615 192.447 258.833 192.444C256.335 192.435 256.232 195.833 253.85 194.228C252.513 193.326 252.229 193.048 251.339 191.67C249.483 188.796 250.575 190.502 249.087 189.022C248.604 188.542 248.384 188.155 247.84 187.654C245.421 185.426 245.989 185.871 245.864 182.044C245.704 177.124 247.086 178.18 250.344 176.484L250.346 176.487Z" fill="#EDEFF3" fill-opacity="0.57"/>
<path fill-rule="evenodd" clip-rule="evenodd" d="M312.522 128.34C306.194 124.037 306.255 126.672 298.716 121.732C294.119 118.72 296.888 117.118 294.471 115.845C292.583 114.851 293.765 114.17 293.533 112.342C293.386 111.182 293.028 109.106 292.738 107.942C292.273 106.084 292.366 105.326 292.126 103.486C291.707 100.279 290.232 99.3301 288.625 96.8989C287.804 97.3093 287.631 97.9478 286.708 98.3217C287.43 99.8643 289.229 102.126 289.604 104.526C289.762 105.538 289.806 107.811 289.707 108.84C289.577 110.207 289.195 111.554 290.052 112.588C292.066 115.017 290.963 114.184 291.369 115.835C291.573 116.662 293.106 117.1 293.787 117.835C294.943 119.079 294.315 119.847 294.708 121.342C295.309 123.63 296.613 121.622 298.937 126.078C301.113 130.25 302.571 128.412 304.583 128.327C310.92 128.061 308.253 132.294 309.441 136.805C310.03 139.045 312.34 139.927 305.541 144.616L302.805 146.291C301.421 146.901 299.992 146.133 299.182 147.077C298.404 147.984 298.617 149.563 298.482 150.823C298.339 152.163 297.196 152.127 295.422 152.261C294.027 152.366 293.373 152.997 292.335 153.624C287.441 156.575 290.478 157.566 290.972 158.24C292.045 159.704 290.039 163.496 292.092 165.776C292.874 166.645 293.608 167.636 292.468 168.792C291.625 169.645 291.431 170.189 289.885 170.622C287.925 171.172 286.166 170.436 285.4 174.93C285.155 176.367 284.346 176.914 283.719 177.689C283.195 178.335 282.159 179.629 281.85 180.287C282.732 180.659 284.301 182.524 284.96 183.366C286.221 184.979 284.422 186.383 284.04 187.787C286.318 190.207 289.88 188.936 292.874 189.99C294.702 190.633 294.967 191.457 295.992 192.43C298.869 195.165 299.905 194.817 304.739 194.803C306.901 194.796 307.668 195.253 309.904 194.747C314.016 193.815 315.513 195.436 318.763 196.361C319.729 193.897 317.797 192.086 319.358 188.504C321.106 184.498 320.363 184.954 320.285 180.58C320.258 179.042 320.539 177.693 320.545 176.167C320.555 172.548 320.362 174.078 319.986 172.023C319.742 170.689 320.301 169.185 320.47 167.896C320.642 166.58 320.561 164.874 320.659 163.471C320.835 160.924 321.201 160.861 320.046 159.541C319.281 158.669 318.515 157.377 319.595 156.226C320.633 155.118 321.124 155.269 321.24 153.133L320.633 144.22C320.503 142.97 321.448 141.727 321.965 140.948C322.617 139.967 323.36 139.471 324.732 138.979C326.505 138.345 327.047 138.972 328.501 139.153C329.033 138.242 330.543 133.639 330.509 132.537C329.36 132.84 328.466 134.389 326.826 133.639C325.469 133.019 325.099 132.22 324.282 131.122C321.715 127.67 321.232 130.999 316.221 129.872C314.763 129.544 313.564 129.051 312.519 128.341L312.522 128.34Z" fill="#EDEFF3" fill-opacity="0.57"/>
<path fill-rule="evenodd" clip-rule="evenodd" d="M49.7743 90.2465L68.5115 90.1775C69.3137 87.4454 68.3851 85.8793 67.4409 83.6422C66.7754 82.0658 65.9562 82.7367 65.0992 81.9003C64.5509 81.3648 64.172 79.886 63.8594 78.8893C62.8383 75.6334 60.162 77.636 57.2759 73.0563C56.7094 72.1573 56.4763 71.1098 56.195 69.8799C55.9983 69.02 54.0122 65.3902 53.4365 64.3179C52.5353 62.6385 50.7771 61.3982 49.2924 60.1305C47.7426 58.808 47.2555 59.7448 44.204 56.8811C43.7417 56.4472 43.7274 56.3143 43.2051 55.9248C40.4675 53.8871 42.3521 54.2154 40.4207 52.3366C36.8235 48.8371 39.4817 43.2529 37.5359 38.5535C36.7102 36.5601 36.0994 34.4207 35.2932 32.469C33.944 29.2027 34.1341 29.3265 34.7189 25.6393C35.0549 23.5195 35.7569 20.2467 35.3024 18.0852C34.7228 15.3361 31.9982 16.6169 32.2613 12.7551C32.3668 11.206 32.639 10.548 32.3512 8.90902C31.4044 3.50467 36.4615 4.85185 35.8806 0.00904627C35.4521 -0.10691 27.328 0.927577 26.1337 1.07089C22.741 1.47739 19.2207 1.51127 15.7759 1.78487C12.3637 2.05587 8.91767 2.35814 5.50807 2.64217C4.53911 2.72295 0.790892 2.62784 0.299899 2.99655C-0.682087 3.73398 1.03053 6.02184 1.3978 6.73191C1.96302 7.82633 2.60249 9.42105 3.25107 10.4334C3.58317 10.9519 4.18096 11.4588 4.6459 11.8144C5.26323 12.2887 5.4117 12.6444 5.94176 13.2971C9.35136 17.5015 6.34289 18.3849 8.28472 21.7372C10.4766 25.5207 10.3086 23.4479 12.158 28.9773C13.9943 34.4676 17.1499 34.8911 18.0759 39.8642C18.4302 41.7625 19.0735 42.2771 19.8628 43.6516C21.3787 46.2913 21.634 49.0716 22.3659 52.2441C22.978 54.9007 24.7141 57.4179 26.9724 58.7624C28.1432 59.4595 29.4209 60.0575 30.5722 60.7194C33.2759 62.2724 40.2448 68.4168 42.4302 71.2427L46.3399 75.6621C46.9039 76.1963 47.176 76.2953 47.7921 76.9884C48.3612 77.6295 50.178 79.1877 50.3916 79.9577C50.5635 80.5766 50.2535 84.3549 50.1715 85.2279C50.0829 86.1581 50.2796 86.7692 50.2028 87.7281C50.1246 88.6896 49.9618 89.3749 49.7717 90.2439L49.7743 90.2465Z" fill="#EDEFF3" fill-opacity="0.57"/>
<path fill-rule="evenodd" clip-rule="evenodd" d="M308.822 141.033C309.939 139.596 309.873 139.606 309.108 137.804C307.322 133.589 310.558 128.228 304.305 128.993C302.68 129.192 302.186 130.001 300.575 129.019C298.123 127.523 298.492 125.235 296.541 123.906C295.449 123.162 294.607 123.126 294.143 121.728C293.691 120.366 294.208 119.037 293.177 118.122C292.305 117.348 290.981 117.146 290.724 115.999C290.546 115.202 290.848 114.781 290.399 114.037C290.106 113.551 289.699 113.246 289.383 112.765C288.105 110.825 289.702 108.298 288.927 104.405C288.634 102.931 286.563 98.9288 285.717 98.4585L282.586 97.0071C280.907 96.4507 280.512 97.2064 279.809 98.2826C277.212 102.255 279.931 102.639 273.448 105.644C272.275 106.187 271.31 106.527 271.269 108.055C272.883 109.483 275.229 108.596 275.239 111.945C275.246 114.136 273.836 116.733 272.513 117.142C270.838 117.66 270.531 116.389 269.183 117.719C268.494 118.399 267.935 119.07 267.258 119.714C266.877 120.076 266.634 120.366 266.257 120.67C265.889 120.964 265.574 121.187 265.207 121.585C264.079 122.805 265.544 124.48 266.464 125.235C267.892 126.41 269.605 129.2 270.13 131.365C270.242 131.83 270.329 136.142 272.49 136.857C274.368 137.478 273.674 136.981 274.501 138.766C275.601 141.141 277.284 140.403 279.384 141.725C280.191 142.233 281.199 143.016 280.114 144.006C278.72 145.279 275.065 143.912 273.542 143.933C272.725 143.945 271.28 144.866 271.034 145.378C270.48 146.53 271.068 147.87 271.375 148.75C271.956 150.408 271.385 150.739 271.1 152.009C270.95 152.679 271.066 153.265 271.056 153.946C271.045 154.61 270.833 155.095 270.832 155.6C270.831 156.271 271.14 156.305 271.445 156.854L272.862 159.356C273.692 160.416 274.675 159.673 274.493 163.582C274.297 167.729 275.088 166.877 276.694 169.252C277.632 170.639 277.081 174.604 276.997 176.488C276.851 179.801 278.267 179.831 281.261 179.982C281.457 179.498 282.058 178.833 282.479 178.238C282.907 177.633 283.38 177.151 283.81 176.633C285.187 174.973 284.442 174.372 285.427 172.53C286.445 170.63 286.546 170.648 288.956 170.169C290.367 169.888 291.649 169.135 292.352 167.83C292.406 166.362 291.116 166.114 290.677 164.748C290.378 163.814 290.499 161.47 290.623 160.392C290.909 157.887 289.974 158.693 289.193 157.399C288.359 156.021 289.613 155.023 290.214 154.441C291.163 153.518 291.801 153.239 292.902 152.555C294.682 151.449 294.119 151.808 296.451 151.51C298.486 151.251 297.747 150.489 298.008 148.475C298.174 147.203 298.585 146.037 299.996 145.947C302.371 145.796 301.852 146.049 303.68 145.035C304.959 144.326 307.947 142.16 308.822 141.033Z" fill="#CEEA4D"/>
<path fill-rule="evenodd" clip-rule="evenodd" d="M309.771 195.48C306.838 195.84 303.02 195.352 300.001 195.295C296.899 195.236 295.152 192.043 293.899 191.257C292.339 190.279 291.7 190.427 289.685 190.233C287.792 190.051 282.293 189.646 283.682 186.805C284.305 185.533 285.416 184.945 284.215 183.461C283.721 182.85 282.28 181.216 281.584 180.858C280.299 180.197 278.636 180.791 277.465 179.917C275.443 178.408 276.629 173.89 276.56 171.089C276.52 169.499 275.376 168.711 274.695 167.816C272.793 165.316 274.482 162.834 273.705 161.124C273.318 160.275 272.805 160.984 270.623 156.706L270.166 157.428C269.82 158.181 267.664 160.844 267.056 161.669C266.199 162.832 264.543 164.154 263.122 166.066C262.825 166.465 262.54 166.853 262.223 167.291C261.896 167.744 261.591 168.022 261.267 168.461C260.117 170.014 257.658 170.887 256.348 171.869C254.121 173.541 254.668 175.351 249.487 177.59C246.377 178.933 246.515 178.149 246.558 183.024C246.573 184.634 246.45 185.615 247.415 186.447C248.564 187.44 250.78 189.478 251.509 190.683C255.462 197.239 255.808 191.851 258.672 191.785C262.784 191.69 262.408 192.317 261.515 195.827C261.383 196.346 261.324 203.188 261.431 203.785C262.105 207.521 265.215 205.692 267.065 206.495C268.151 206.965 268.661 207.822 269.376 208.431C272.914 211.439 273.22 213.285 275.24 210.38C275.525 209.969 275.554 209.645 275.984 209.164C277.444 207.525 278.284 208.792 278.74 209.034C280.646 210.046 281.02 208.316 284.586 211.521C289.009 215.497 285.68 210.911 290.366 212.931C294.299 214.626 295.562 206.114 298.377 211.614C298.99 212.812 299.367 213.597 299.688 215.031C299.994 216.398 301.052 216.503 302.503 216.793C303.783 217.048 305.208 217.737 306.221 216.695L308.242 214.071C308.017 212.161 306.347 210.842 306.811 209.113C307.068 208.158 307.87 207.731 308.022 207.014C308.422 205.128 305.755 203.884 309.09 202.574C311.292 201.71 311.007 197.876 309.77 195.479L309.771 195.48Z" fill="#EDEFF3" fill-opacity="0.57"/>
<path fill-rule="evenodd" clip-rule="evenodd" d="M441.751 304.27C440.993 303.619 440.62 303.874 439.934 303.013C438.464 301.168 438.444 297.898 436.75 297.049C435.636 296.491 436.27 295.894 433.098 294.654C430.476 293.629 431.152 294.464 429.854 291.859C429.41 290.967 428.968 290.775 428.541 290.065C428.262 289.601 428.321 289.352 428.064 288.908L421.972 281.441C421.037 280.099 421.121 278.734 419.907 277.462C418.787 276.29 416.812 277.574 415.46 278.268C413.1 279.479 410.59 281.989 409.061 283.959C408.422 284.782 407.096 286.64 405.525 286.507C404.455 286.416 402.56 284.688 401.629 284.147C400.748 283.635 400.63 283.555 400.557 282.196C400.317 277.696 401.282 276.105 398.069 275.637C395.338 275.24 395.681 276.347 394.866 278.253C394.227 279.745 393.548 281.053 392.865 282.464C392.135 283.974 391.839 285.303 390.837 286.48L387.963 289.653C387.511 290.086 387.484 289.941 387.079 290.397C385.675 291.978 383.978 295.453 383.466 297.408C383.205 298.402 382.569 301.644 382.69 302.581C383.426 308.277 383.815 305.739 386.494 307.947C387.097 308.444 388.019 309.882 389.445 311.039L397.895 317.784C398.503 318.231 399.195 318.661 399.729 319.054L405.063 322.865C406.052 323.556 405.893 323.41 406.549 324.485C407.47 325.992 412.007 332.805 412.893 333.196C413.413 332.06 413.587 328.593 413.866 326.977C414.34 324.221 412.149 324.257 413.189 321.264C413.779 319.562 416.814 315.221 418.226 312.084C418.948 310.477 420.017 308.776 421.651 308.328C425.724 307.21 440.003 308.98 441.449 307.705C441.85 307.009 441.927 305.155 441.752 304.273L441.751 304.27Z" fill="#EDEFF3" fill-opacity="0.57"/>
<path fill-rule="evenodd" clip-rule="evenodd" d="M319.577 200.534C317.721 196.942 320.861 197.445 314.852 195.616C313.04 195.065 312.509 194.914 310.484 195.288C310.96 196.8 311.864 198.683 311.28 200.517C310.205 203.881 309.559 202.644 308.155 203.707C307.977 205.333 309.039 206.032 308.641 207.325C308.313 208.392 307.195 208.604 307.43 210.1C307.586 211.099 308.343 211.912 308.674 212.909C308.997 213.878 308.894 215.302 309.369 216.144C309.795 216.897 313.365 217.907 314.282 219.234C316.015 221.741 313.414 222.995 312.323 224.109C311.472 224.978 306.775 230.425 309.196 231.687C311.558 232.92 315.3 227.417 315.848 226.819C316.632 225.963 319.094 223.634 320.961 224.473C321.982 224.932 322.354 225.639 323.013 226.514C323.569 227.251 324.199 228.22 323.66 229.402C322.778 231.336 320.9 232.938 323.023 234.842C324.681 236.328 325.857 232.773 328.751 234.498C330.456 235.514 330.827 238.3 329.824 240.632C328.901 242.779 328.015 242.978 328.122 246.921C328.167 248.588 328.235 248.922 329.808 249.28C331.253 249.61 334.871 250.303 332.842 252.965C332.261 253.727 331.176 253.847 330.426 254.471C329.425 255.303 329.911 256.651 329.902 258.033C329.89 259.981 327.818 261.972 331.406 263.215C332.916 263.738 332.948 264.443 333.972 264.743C335.164 265.092 336.385 264.92 337.653 265.149C339.366 265.461 339.417 264.438 340.105 263.829C341.13 262.923 342.587 263.935 343.034 264.49C343.572 265.158 343.977 266.149 344.431 267.015C344.929 267.961 345.498 268.726 346.093 269.436C348.307 272.078 353.274 270.379 354.031 273.433C354.849 276.737 350.641 278.09 353.345 280.977C354.898 282.635 355.069 282.991 357.269 282.139C358.596 281.626 361.604 279.413 362.883 280.086C363.963 280.654 364.696 284.127 365.616 285.367C368.882 289.776 372.984 288.764 378.07 288.948C380.56 289.038 382.911 289.313 385.297 289.697C387.701 290.084 387.808 288.533 390.016 286.468C390.945 285.598 391.121 285.319 390.57 283.762C389.745 281.426 388.41 280.919 386.553 279.779C382.747 277.445 382.273 276.466 382.069 272.285C380.008 272.78 376.022 273.76 374.209 272.521C372.613 271.429 371.707 269.272 370.348 267.558C369.11 265.994 369.385 266.73 367.417 266.078C365.789 265.539 364.813 262.914 361.752 262.847C359.877 262.805 359.591 263.529 357.992 263.639C354.09 263.91 353.707 263.265 351.537 261.377C349.521 259.622 351.92 259.745 348.28 255.81L344.606 250.66C341.983 246.917 343.387 245.663 342.926 243.514C342.724 242.57 341.545 241.558 340.993 240.874L335.135 233.504C333.73 231.895 332.31 230.431 330.965 228.848C330.411 228.198 328.423 224.097 327.93 223.058C326.963 221.017 326.491 218.734 325.478 216.69C324.57 214.859 323.213 212.668 322.598 210.748C321.129 206.16 321.478 204.21 319.578 200.532L319.577 200.534Z" fill="#EDEFF3" fill-opacity="0.57"/>
<path fill-rule="evenodd" clip-rule="evenodd" d="M36.0836 95.3083C36.0836 95.3083 35.6239 95.2822 36.1696 96.1135C36.6567 96.8548 37.9682 97.4919 38.6584 97.8932C40.177 98.774 40.9128 99.0423 41.8271 100.28C43.7051 102.821 41.7828 103.011 47.2046 106.013C50.032 107.579 51.8332 107.763 54.1827 110.143C55.2128 111.186 55.5658 111.954 57.7681 112.127C59.6761 112.277 60.9406 111.486 61.8406 110.624C62.8786 109.63 64.2148 108.553 65.3557 110.409C66.296 111.936 65.3908 113.241 66.5864 114.728C66.9263 115.151 71.5615 119.727 72.2765 120.15C75.7616 122.218 79.4187 124.089 81.0531 128.034C81.6822 129.552 82.448 130.154 83.0275 131.618C83.9848 134.036 83.4169 138.883 82.9168 141.507C82.5977 143.185 82.1041 144.497 82.7827 146.241C83.7529 148.737 84.4588 149.627 85.8224 151.533C87.2459 153.521 88.9377 152.408 90.7206 154.966C92.2405 157.146 91.6635 156.149 93.5324 157.711C96.58 160.261 99.2537 162.992 102.525 165.381C104.166 166.58 110.16 171.445 111.659 172.914C112.763 173.998 113.249 174.368 113.973 176.148C114.488 177.415 115.055 178.884 115.511 180.165C115.989 181.509 116.255 183.319 116.873 184.339C117.983 184.398 117.978 184.11 118.646 183.629C119.232 183.208 119.662 183.078 120.175 182.544C121.583 181.08 120.305 181.555 123.239 180.547C124.065 180.263 124.254 180.174 124.384 179.259C124.578 177.903 125.172 175.817 124.22 174.884C123.121 173.806 121.533 173.575 120.303 171.123C119.128 168.783 119.198 166.955 116.586 164.711C115.67 163.924 114.928 162.697 113.633 162.489C112.715 163.108 112.542 164.804 111.547 165.26C110.037 165.952 109.111 164.259 108.494 163.656C106.71 161.912 105.6 161.527 104.075 158.271C101.939 153.711 106.591 151.647 100.762 142.794C100.053 141.718 99.72 140.585 98.9373 139.717C96.9108 137.471 93.5871 134.535 93.6327 130.248C93.6744 126.394 93.1886 125.333 91.8862 122.262C91.502 121.358 89.7529 116.342 89.2633 115.56C89.0223 115.177 89.1656 115.369 88.8999 115.124C88.8035 116.223 88.6433 118.764 87.8307 119.177C86.0477 119.874 85.4942 117.714 85.1061 116.294C84.4041 113.727 82.9194 109.985 81.057 108.259C79.2025 106.539 79.7039 107.059 78.4223 104.849C78.0212 104.159 77.6579 103.708 77.2932 103.033C76.8634 102.238 76.7175 101.58 76.3867 100.836C75.5871 99.041 72.5916 96.8639 72.085 96.1539C71.1109 94.7845 69.5441 93.4595 68.8747 91.8465C68.3277 90.528 68.8669 90.8355 64.6277 90.8498L50.5803 90.9176C49.7807 90.9202 49.3626 90.7547 49.1946 91.6003C49.0657 92.2504 49.5124 92.5709 49.8588 92.8941C50.5152 93.5064 51.4021 94.2881 51.9309 95.0725C52.8347 96.4131 52.302 97.0268 51.2302 97.7238C50.7587 98.03 49.0149 99.1805 48.5512 99.3186C46.5404 99.9192 45.7863 95.9519 44.0112 95.4659C43.2701 95.2627 40.9193 95.337 39.9621 95.2848C38.9124 95.2275 36.8442 94.7077 36.0784 95.307L36.0836 95.3083Z" fill="#EDEFF3" fill-opacity="0.57"/>
<path fill-rule="evenodd" clip-rule="evenodd" d="M298.068 297.713C301.001 298.222 305.101 298.588 307.02 300.193C309.024 301.872 307.591 301.428 310.294 302.587C310.838 301.982 311.455 300.176 311.825 299.269C312.329 298.033 313.524 297.906 314.368 296.908C315.68 295.354 317.398 292.585 315.748 289.99C314.881 288.626 314.628 288.33 313.352 287.488C309.743 285.107 310.493 283.577 310.626 280.743C310.73 278.547 310.653 278.504 311.431 276.833C309.575 276.069 310.123 276.258 307.879 275.945C305.011 275.546 304.199 273.996 302.453 272.57C301.185 271.533 298.834 269.604 298.02 268.182C297.465 267.214 297.158 265.888 295.959 265.935C292.901 266.055 293.181 266.513 291.636 261.663C289.095 262.326 287.489 262.167 285.205 263.483C279.502 266.765 279.581 270.801 276.622 264.425C276.084 263.267 276.152 262.295 275.88 261.083C275.604 259.85 275.29 259.039 274.82 258.046C274.255 258.254 272.947 259.415 272.472 259.896C269.784 262.609 273.57 265.636 270.94 265.922C269.643 266.063 268.581 265.362 267.421 265.137C264.84 264.64 264.719 266.822 256.486 264.959C255.343 264.701 254.324 264.047 253.101 264.091C251.53 265.845 253.277 268.259 251.242 269.708C249.062 271.26 247.869 269.824 247.204 273.223C248.438 273.886 250.399 274.006 251.935 274.413C253.648 274.867 254.376 275.701 255.512 276.553C259.97 279.902 262.234 283.433 268.785 286.479C271.482 287.733 274.152 288.55 277.09 289.607L285.213 293.083C287.024 294.108 287.823 295.065 288.725 295.45C294.866 298.082 291.808 296.625 298.068 297.711V297.713Z" fill="#EDEFF3" fill-opacity="0.57"/>
<path fill-rule="evenodd" clip-rule="evenodd" d="M278.395 234.12C278.375 235.873 278.96 236.49 278.023 237.674C277.25 238.651 277.226 239.859 276.283 240.196C275.196 240.586 269.628 240.265 268.416 239.954C266.434 239.446 267.052 238.165 266.499 237.618C265.88 237.006 263.854 237.876 263.036 238.048C259.275 238.84 259.81 235.047 259.708 233.506C256.346 232.716 255.644 235.804 253.48 234.964C252.629 234.633 251.876 233.45 251.415 232.938C250.807 232.263 249.815 231.622 249.042 231.189C248.327 231.372 247.785 231.716 246.804 231.935C246.04 232.107 245.295 232.207 244.521 232.423C241.969 233.14 239.679 234.655 236.366 235.712C235.118 236.109 233.077 236.642 232.922 237.928C233.66 239.49 236.492 238.088 237.203 239.964C238.038 242.17 236.276 242.257 238.09 245.128C238.879 246.376 240.276 247.448 240.621 248.961C241.68 253.606 236.991 252.26 235.578 253.217C235.493 253.275 233.219 255.57 232.938 256.134C232.125 257.762 228.673 257.228 227.202 256.828C225.285 256.306 224.542 257.973 223.669 259.274C223.196 259.981 222.625 260.343 222.195 260.967C222.489 261.517 222.785 261.859 223.12 262.391C224.088 263.932 225.719 266.435 227.103 267.554C229.608 269.579 228.2 268.742 232.05 269.465C234.685 269.961 236.638 270.806 238.977 271.687C240.056 272.093 245.48 273.313 246.489 273.125C246.911 271.942 247.275 270.606 248.26 270.153C249.326 269.665 250.869 269.79 251.411 268.563C252.507 266.077 250.286 262.307 255.276 263.887C263.514 266.494 264.864 264.122 267.296 264.453C268.817 264.66 269.354 265.408 271.25 265.212C271.229 263.565 269.623 260.999 272.686 258.803C273.826 257.985 273.8 257.96 274.523 257.057C274.736 256.791 274.611 256.955 274.838 256.713C275.167 256.36 275.187 256.293 275.485 255.884C275.885 255.336 276.264 254.95 276.716 254.34C281.841 247.435 279.473 248.206 280.95 241.265C281.417 239.067 282.537 239.254 281.118 237.211C280.631 236.51 279.004 234.393 278.395 234.117V234.12Z" fill="#EDEFF3" fill-opacity="0.57"/>
<path fill-rule="evenodd" clip-rule="evenodd" d="M132.95 135.309C133.316 134.591 133.59 133.127 134.048 132.529C134.831 131.506 138.567 129.462 136.933 133.788C136.408 135.176 137.033 135.903 137.691 136.572C140.336 139.264 138.496 137.853 142 140.108C143.484 141.062 145.23 142.018 146.837 142.943C148.822 144.087 150.658 144.031 151.014 146.591C151.471 149.873 150.535 150.574 152.72 152.584C153.387 153.198 154.042 153.877 154.839 154.39C156.477 155.447 157.014 153.245 159.043 155.405C160.657 157.121 160.198 158.778 160.559 159.612C161.128 160.928 163.569 162.347 164.747 163.264L169.76 167.888L172.352 171.183C172.942 171.932 173.516 172.698 174.085 173.369C177.294 177.153 176.068 177.954 180.763 182.216L184.564 186.089C185.85 187.527 189.156 190.641 189.701 192.428L191.873 192.018C192.029 190.835 190.549 189.104 191.071 186.653L192.946 182.536C192.584 182.184 191.816 181.87 191.393 181.546C190.813 181.102 190.547 180.88 189.993 180.334C187.189 177.571 189.419 178.433 186.621 173.576C183.745 168.587 184.674 170.952 184.743 165.535C184.763 163.872 183.664 163.448 182.9 162.263C182.087 161.005 181.755 160.624 180.191 159.909C178.154 158.977 178.037 159.93 176.534 160.494C174.852 161.125 174.058 160.305 173.122 158.975C172.524 158.125 172.197 156.486 171.651 155.381C169.988 152.02 169.419 151.715 167.281 149.619C164.809 147.197 165.038 146.114 164.84 141.88C164.586 136.464 166.521 137.004 167.532 134.659C166.355 133.746 165.001 132.799 164.147 131.84C163.682 131.317 163.126 130.771 162.701 130.181C161.674 128.749 160.717 126.362 157.575 125.981C152.868 125.407 153.552 123.394 153.466 120.768C153.397 118.63 151.596 115.973 150.617 114.325C149.495 112.439 149.726 112.083 148.164 110.573C146.652 109.11 145.669 109.6 143.635 109.941C143.234 111.773 142.926 112.954 141.892 114.075C140.914 115.134 136.735 118.334 135.516 119.46C135.025 119.914 134.426 120.36 133.876 120.76C131.055 122.812 134.028 123.99 130.107 125.652C128.707 126.245 127.998 127.659 127.864 129.105C127.493 133.104 127.39 131.016 131.097 134.344C131.545 134.745 132.146 135.197 132.949 135.312L132.95 135.309Z" fill="#EDEFF3" fill-opacity="0.57"/>
<path fill-rule="evenodd" clip-rule="evenodd" d="M435.084 277.152C439.141 277.103 443.39 276.691 447.498 276.665C451.743 276.638 455.969 276.992 460.239 276.812C462.531 276.716 463.268 277.386 465.012 275.868C465.878 275.113 466.326 271.614 466.44 270.108C466.849 264.713 465.291 262.257 466.712 258.619C468.595 253.803 466.941 252.187 464.396 249.779C460.995 246.561 461.026 245.43 458.921 242.352L454.69 236.777C451.07 232.583 450.724 231.919 445.211 230.346C445.133 230.474 445.149 230.409 445.029 230.702L444.672 232.832C444.576 233.694 444.484 234.695 444.491 235.64C444.501 237.224 444.819 239.734 444.305 241.104C443.052 244.446 441.71 240.362 440.485 248.893C439.782 253.789 437.209 253.506 435.327 255.329C434.253 256.369 433.63 257.156 432.367 258.087L429.114 260.478C429.786 261.488 430.86 261.247 431.209 262.722C431.534 264.088 430.214 264.589 429.408 265.098C427.749 266.147 426.148 268.344 423.486 268.001C422.713 267.902 420.703 267.385 419.943 267.123C418.628 266.671 418.045 266.174 417.497 265.162C417.086 264.408 417.088 264.555 416.064 264.302C413.16 263.588 408.828 264.981 412.333 266.406C415.935 267.871 415.517 265.907 415.681 270.448C415.748 272.284 416.201 272.737 417.266 273.725C418.251 274.638 418.69 275.416 419.729 276.242C424.175 275.838 424.104 271.998 427.668 272.792C429.322 273.16 430.664 273.726 432.146 274.196C434.541 274.956 433.903 275.152 435.081 277.151L435.084 277.152Z" fill="#EDEFF3" fill-opacity="0.57"/>
<path fill-rule="evenodd" clip-rule="evenodd" d="M460.869 244.463C461.472 244.17 462.444 243.283 463.16 242.814C463.881 242.344 464.766 241.928 465.604 241.504C469.302 239.636 469.673 240.461 475.942 236.646C477.743 235.55 478.613 234.491 480.191 233.38C482.028 232.087 483.71 232.233 485.747 231.257C487.334 230.498 488.79 228.899 489.937 227.936C493.619 224.848 492.539 220.43 492.555 215.38C492.202 215.086 487.482 212.706 486.921 212.552C484.19 211.801 482.141 212.131 479.419 212.676C477.064 213.147 474.615 213.549 472.29 214.041C469.959 214.534 467.866 215.284 465.713 215.955C462.266 217.029 455.946 216.971 451.771 219.002C449.855 219.934 447.706 221.088 446.842 222.57C446.412 223.306 445.827 224.807 445.814 225.832C445.763 229.741 445.683 227.435 445.38 229.597C446.676 230.546 448.744 230.339 450.757 231.889C453.65 234.12 459.343 241.179 460.867 244.465L460.869 244.463Z" fill="#EDEFF3" fill-opacity="0.57"/>
<path fill-rule="evenodd" clip-rule="evenodd" d="M486.664 267.191C486.845 267.031 486.742 267.149 486.913 266.912C487.227 266.478 486.602 267.467 487.044 266.705L488.874 263.798C489.622 262.724 490.131 261.237 490.235 259.605C490.435 256.498 491.361 256.35 490.209 255.168C489.11 254.039 489.277 253.094 489.283 250.51C489.286 249.563 489.432 248.738 489.002 248.042C487.573 245.728 487.344 245.984 490.492 243.196C492.699 241.241 491.54 237.553 494.157 233.132C494.534 232.494 498.87 228.103 499.576 227.445C500.159 226.9 500.452 226.876 501.072 226.166C501.727 225.415 501.582 225.062 501.983 224.299C502.315 223.667 502.729 223.445 503.126 222.658C505.147 218.651 503.238 217.649 501.808 214.642C500.954 212.844 498.751 214.273 497.831 214.75C496.647 215.363 494.688 215.511 493.205 215.453C493.198 221.738 494.379 224.353 490.515 228.186C484.418 234.236 483.683 231.733 480.745 233.772C479.172 234.864 478.173 236.069 476.42 237.124C474.788 238.107 473.31 238.947 471.479 239.862C469.413 240.893 462.964 242.695 461.35 245.117C462.343 247.013 464.611 249 466.032 250.431C470.672 255.1 466.487 258.43 466.73 261.785C466.841 263.308 467.014 264.817 467.138 266.32C467.532 271.123 466.3 273.2 466.291 275.164C468.977 274.437 469.029 276.114 470.685 274.525C472.28 272.994 472.459 271.063 473.954 268.645C474.165 268.302 474.339 267.992 474.538 267.758C477.627 264.137 476.837 265.475 479.221 264.913C479.845 262.352 478.666 262.609 480.966 261.117C481.525 260.755 483.885 259.032 484.369 259.092C486.106 259.307 484.937 262.207 484.991 263.26C485.12 265.776 486.026 265.699 486.663 267.189L486.664 267.191Z" fill="#EDEFF3" fill-opacity="0.57"/>
<path fill-rule="evenodd" clip-rule="evenodd" d="M338.321 266.035C336.966 265.21 334.305 266.065 332.927 264.962C332.05 264.258 332.17 264.192 330.892 263.725C329.984 263.394 329.491 263.04 329.024 262.332C328.44 261.444 328.524 260.706 328.884 259.794C329.832 257.384 328.397 255.599 329.798 254.172C330.467 253.491 334.042 252.41 332.36 250.825C331.862 250.356 330.801 250.147 329.939 249.975C327.445 249.478 327.389 248.582 327.471 245.936C327.543 243.606 328.005 242.555 328.95 240.904C329.685 239.622 330.057 237.12 329.214 235.832C328.012 233.992 326.326 234.839 324.802 235.616C322.795 236.638 321.471 234.32 321.383 233.186C321.249 231.45 323.218 229.745 323.225 228.452C323.229 227.637 322.41 226.821 322.055 226.326C321.656 225.768 321.241 225.08 320.25 224.949C318.717 224.746 318.715 225.435 318.663 226.652C318.551 229.259 317.866 229.738 316.723 231.293C316.218 231.98 315.799 232.485 315.28 233.114C313.044 235.827 315.351 234.827 315.153 237.595C315.004 239.673 313.845 241.197 313.772 242.431C317.125 242.599 318.387 245.038 320.366 247.134C321.076 247.886 322.938 248.842 323.139 250.074C323.36 251.439 321.766 252.966 320.925 253.311C320.033 253.677 319.309 253.531 318.333 253.657C317.545 253.757 317.032 254.195 316.387 254.488C312.548 256.232 310.951 253.023 309.567 251.073L306.763 248.433C306.669 249.542 306.793 250.825 306.771 251.982C306.749 253.137 306.631 254.126 306.536 255.25C306.354 257.404 306.2 259.772 306.389 261.951C306.608 264.483 306.802 266.486 304.085 266.664C301.031 266.865 300.113 269.46 300.135 269.631C300.409 270.177 302.102 271.458 302.646 271.888C304.628 273.455 305.466 275.144 308.339 275.338C310.61 275.491 310.321 275.832 311.926 276.316C316.86 270.021 317.647 276.531 320.162 274.262C320.521 273.079 319.555 271.997 320.446 270.473C320.808 269.853 321.972 268.674 322.705 268.537C324.387 269.232 323.993 272.86 326.136 274.186C327.064 273.864 327.329 272.439 328.893 271.735C330.736 270.907 331.977 271.622 333.64 271.555C334.635 271.515 335.98 270.051 336.641 269.356C337.663 268.281 337.719 267.584 338.318 266.038L338.321 266.035Z" fill="#EDEFF3" fill-opacity="0.57"/>
<path fill-rule="evenodd" clip-rule="evenodd" d="M276.38 239.3C276.665 238.955 276.807 238.277 277.068 237.86C278.383 235.751 277.797 237.635 277.75 234.827C277.734 233.913 277.948 233.807 277.479 233.179C276.259 231.545 274.748 230.459 274.792 227.474C274.811 226.223 274.852 224.664 275.156 223.526C276.045 220.193 278.599 223.365 281.041 222.389C282.037 221.99 282.778 221.361 282.676 219.964C282.337 215.386 286.208 218.605 287.579 216.689C287.92 215.887 286.426 213.887 286.139 213.566C285.53 212.887 284.44 212.329 283.667 211.63C282.854 210.893 282.19 210.306 280.742 210.152C278.686 209.935 278.782 209.649 277.464 208.983C275.833 209.464 275.565 211.996 273.991 212.427C271.534 213.102 268.736 207.081 265.869 206.9C264.833 206.835 261.848 207.415 261.059 204.857C257.892 205.729 256.534 206.259 257.575 210.94C258.383 214.573 256.581 214.978 254.436 217.345C247.134 225.405 250.536 224.496 250.886 226.981C251.14 228.774 250.045 229.583 249.681 230.742C250.68 231.583 251.21 231.683 252.006 232.678C252.403 233.173 253.441 234.469 254.234 234.42C256.245 234.292 257.065 231.492 260.319 233.162C260.557 234.571 259.986 235.163 260.761 236.662C261.405 237.907 262.119 237.64 263.561 237.251C269.263 235.712 265.836 238.836 268.831 239.386C270.211 239.639 275.638 240.202 276.38 239.303V239.3Z" fill="#EDEFF3" fill-opacity="0.57"/>
<path fill-rule="evenodd" clip-rule="evenodd" d="M212.01 193.828C210.717 193.982 210.289 195.201 208.852 195.25C205.428 195.364 206.207 190.608 204.153 190.856C203.054 190.989 202.395 192.471 201.337 192.445C198.942 192.385 201.593 186.915 199.725 185.628C198.437 184.739 195.453 183.194 193.687 182.76C193.364 183.096 191.768 186.287 191.671 186.952C191.34 189.23 192.812 190.778 192.484 192.179C191.704 193.093 191.279 192.765 189.97 193.057C189.771 196.816 189.517 199.097 191.03 202.333C191.739 203.849 193.917 208.645 194.893 209.254C196.467 210.237 197.456 209.134 197.576 211.956C197.615 212.883 197.438 213.646 197.39 214.562C197.344 215.407 197.478 216.276 197.353 217.108C196.882 220.27 193.818 222.128 193.691 224.062C194.457 224.102 194.492 223.953 195.065 223.642C195.791 223.247 195.702 223.454 196.383 223.293L198.549 222.059C200.656 221.017 203.299 217.747 207.602 222.523C208.464 223.479 210.249 225.363 211.799 225.163C212.488 224.149 212.578 221.445 212.689 220.08C212.875 217.801 213.482 217.369 215.093 216.554C216.853 215.664 218.47 215.304 214.547 212.144C213.907 211.628 213.376 211.302 213.901 210.143C215.903 205.712 214.024 204.767 211.123 202.823C210.106 202.142 208.766 199.966 210.361 199.074C211.497 198.438 213.141 197.943 213.817 196.59C213.365 195.71 212.664 194.461 212.012 193.83L212.01 193.828Z" fill="#EDEFF3" fill-opacity="0.57"/>
<path fill-rule="evenodd" clip-rule="evenodd" d="M305.797 256.344C305.907 254.622 306.104 253.084 306.129 251.328C306.158 249.246 305.863 248.637 306.526 246.753C306.794 245.991 307.159 243.362 306.615 242.597C305.767 241.406 303.621 242.738 302.289 242.514C301.076 241.683 301.061 240.184 300.32 238.773C298.613 238.81 297.094 240.561 296.175 241.288C294.496 242.613 293.41 243.008 292.77 240.247C292.157 237.601 292.295 237.478 290.28 236.217C289.173 235.524 287.195 234.374 285.91 234.014C284.211 238.181 282.167 238.317 281.535 241.675C280.824 245.448 281.39 248.34 279.472 251.539C278.685 252.85 277.823 253.94 276.969 255.079C274.819 257.947 275.097 257.001 275.795 258.555C276.785 260.761 276.393 264.587 279.085 267.134C280.158 267.058 281.29 265.529 281.915 264.931C282.759 264.123 283.739 263.561 284.929 262.883C289.039 260.547 290.194 262.307 292.407 260.23C293.096 259.584 294.111 258.389 294.487 257.249C294.863 256.111 294.397 253.872 294.406 252.465C294.419 250.477 294.998 249.837 295.926 248.88C296.622 248.162 297.463 246.753 298.698 246.683C300.258 247.087 302.388 254.386 303.014 255.181C303.402 255.674 304.7 256.594 305.798 256.341L305.797 256.344Z" fill="#EDEFF3" fill-opacity="0.57"/>
<path fill-rule="evenodd" clip-rule="evenodd" d="M318.027 225.923C316.602 226.461 315.736 228.24 315.032 228.945C313.84 230.133 313.737 230.661 312.051 231.682C308.646 233.743 306.39 231.358 309.094 227.25C309.809 226.162 310.813 224.661 311.59 223.862C312.289 223.142 314.211 222.028 314.193 220.774C314.173 219.457 312.348 218.442 311.302 217.97C309.385 217.105 308.9 217.329 308.416 215.168C306.914 216.126 307.276 217.597 305.234 217.89C304.195 218.038 301.495 217.177 300.333 216.942C299.35 217.611 299.089 217.841 297.641 218.247C296.293 218.625 295.479 218.012 294.707 219.064C293.631 220.527 293.515 222.927 292.873 224.914C292.077 227.375 291.464 228.031 289.37 229.084C287.535 230.006 286.863 230.298 286.17 233.342C287.936 234.129 290.074 235.192 291.554 236.256C293.89 237.938 292.765 240.637 294.29 241.678C295.871 241.362 298.35 237.559 300.523 238.19C301.228 238.534 301.484 240.264 302.391 241.897C303.765 241.943 305.941 240.84 306.967 241.916C308.25 243.261 307.208 244.599 307.402 245.859C309.606 244.462 310.113 244.904 312.463 242.875C313.353 242.108 314.775 238.581 314.506 236.819C314.305 235.514 313.047 235.756 313.906 234.026C314.387 233.058 315.034 232.468 315.631 231.662C317.05 229.746 318.008 229.246 318.031 225.923H318.027Z" fill="#EDEFF3" fill-opacity="0.57"/>
<path fill-rule="evenodd" clip-rule="evenodd" d="M382.731 271.996C382.671 273.142 382.957 275.668 383.489 276.472C383.899 277.09 385.677 278.457 386.315 278.873C390.508 281.616 389.416 280.137 391.406 284.114C392.466 281.934 393.911 278.939 394.735 276.649C395.519 274.47 397.669 274.661 399.563 275.263C400.535 275.572 400.846 276.352 401.003 277.389C401.183 278.567 401.148 279.724 401.166 280.905C401.212 283.694 401.015 282.833 404.021 285.018C404.761 285.555 405.538 286.174 406.608 285.59C407.95 284.858 412.661 277.092 418.683 276.384C418.153 275.375 417.881 275.357 417.196 274.617C414.299 271.49 415.31 272.248 414.944 267.855C414.157 267.497 412.95 267.36 412.079 266.987C410.53 266.324 410.987 266.491 410.257 265.281C408.28 265.611 408.092 264.879 407.062 266.594C406.262 267.927 405.434 267.652 403.686 267.537C401.916 267.42 401.879 268.45 400.572 268.931C399.547 269.309 397.933 268.826 396.909 268.615C392.9 267.786 392.685 269.205 389.847 270.125C389.287 270.306 388.631 270.423 388.036 270.601C387.467 270.773 386.963 271.031 386.358 271.213C385.134 271.579 383.821 271.566 382.731 271.996Z" fill="#EDEFF3" fill-opacity="0.57"/>
<path fill-rule="evenodd" clip-rule="evenodd" d="M287.243 214.072C287.243 214.072 289.608 216.842 287.29 217.849C285.818 218.488 283.164 216.935 283.279 219.456C283.329 220.583 283.449 221.07 282.799 221.86C280.717 224.391 278.216 222.617 276.483 222.589C275.405 223.638 275.47 225.7 275.441 227.472C275.377 231.395 279.24 233.493 279.999 234.737C280.359 235.326 280.874 235.854 281.302 236.376L282.444 238.001C282.454 237.976 282.496 238.056 282.525 238.079C285.322 234.782 284.518 235.588 285.945 231.875C287.444 227.973 288.69 229.44 290.96 227.25C292.727 225.544 292.43 222.34 293.427 220.079C295.061 216.371 295.538 218.931 299.669 216.682C299.528 216.046 299.217 215.971 299.009 214.905C298.783 213.752 297.428 210.951 296.766 210.341C295.768 210.493 295.526 211.215 294.944 211.791C291.127 215.574 290.36 212.864 288.043 213.104L287.242 214.072H287.243Z" fill="#EDEFF3" fill-opacity="0.57"/>
<path fill-rule="evenodd" clip-rule="evenodd" d="M420.343 276.815C421.203 277.808 421.438 278.846 422.024 280.243C422.486 281.346 423.42 282.208 424.134 283.032C424.868 283.883 425.566 284.908 426.275 285.797C427.054 286.774 427.792 287.674 428.502 288.424C429.107 288.196 429.516 287.775 430.216 287.629C430.943 287.478 431.766 287.59 432.457 287.463C434.898 287.016 433.793 281.996 433.954 279.427C434.088 277.272 435.114 278.578 433.636 275.818C433.029 274.685 426.998 273.219 426.464 273.288C424.699 273.513 423.867 276.244 420.343 276.816V276.815Z" fill="#EDEFF3" fill-opacity="0.57"/>
<path fill-rule="evenodd" clip-rule="evenodd" d="M237.128 205.575C237.614 205.92 240.703 207.253 241.37 207.53C247.122 209.921 246.773 206.901 249.12 204.839C250.481 203.644 250.291 204.323 252.408 202.1C251.792 201.079 251.82 201.464 250.915 199.618C250.248 198.258 247.78 195.725 246.957 195.384C246.151 195.049 244.665 195.883 243.886 196.168C240.802 197.296 240.978 196.784 239.416 199.871C238.913 200.864 238.62 201.671 238.03 202.566C237.453 203.442 236.942 204.116 237.128 205.576V205.575Z" fill="#EDEFF3" fill-opacity="0.57"/>
<path fill-rule="evenodd" clip-rule="evenodd" d="M292.277 261.297C292.412 262.352 292.707 263.504 293.147 264.233C294.059 265.745 293.746 265.468 295.762 265.315C298.171 265.131 297.954 267.819 299.513 268.95C300.495 268.039 300.417 267.494 301.735 266.627C304.474 264.826 306.255 268.16 305.703 261.625C305.578 260.154 305.771 258.678 305.698 257.213C304.772 256.772 304.338 257.035 303.351 256.31C302.325 255.557 302.36 256.253 300.822 256.226C298.194 256.18 298.35 255.113 295.307 255.926C295.285 258.64 293.596 259.828 292.278 261.299L292.277 261.297Z" fill="#EDEFF3" fill-opacity="0.57"/>
<path fill-rule="evenodd" clip-rule="evenodd" d="M209.834 252.309C209.989 252.526 209.816 252.37 210.158 252.643L211.398 253.366C214.326 254.888 219.878 258.519 221.714 260.405C223.106 259.443 224.004 256.781 225.597 256.305C225.448 255.457 225.087 254.902 224.901 254.08C224.716 253.269 224.892 248.401 223.418 247.707C222.583 247.315 221.529 249.027 219.649 249.109C217.087 249.221 216.948 247.911 215.657 247.713C215.228 248.23 214.989 248.487 214.503 249.129C214.097 249.666 213.837 250.036 213.182 250.421C211.85 251.207 211.035 251.193 209.834 252.309Z" fill="#EDEFF3" fill-opacity="0.57"/>
<path fill-rule="evenodd" clip-rule="evenodd" d="M306.898 247.602C308.657 249.319 308.916 249.174 310.308 250.985C311.29 252.262 311.808 253.869 313.75 254.252C316.002 254.696 316.19 253.097 319.113 252.967C321.829 252.846 322.821 250.772 322.371 249.877C322.105 249.35 321.165 248.652 320.598 248.209C319.655 247.474 318.264 245.724 317.22 244.729C316.889 244.414 315.748 243.412 315.399 243.276C314.95 243.103 314.292 243.078 313.765 243.055C312.497 242.999 312.966 243.778 310.868 244.876C309.537 245.573 307.234 246.097 306.9 247.602H306.898Z" fill="#EDEFF3" fill-opacity="0.57"/>
<path fill-rule="evenodd" clip-rule="evenodd" d="M418.089 264.745C418.477 266.173 420.357 266.551 421.9 266.96C425.741 267.979 425.565 267.043 428.359 265.022C429.213 264.405 431.707 263.419 430.096 262.039C429.743 261.737 428.758 261.112 428.388 260.835C427.66 261.026 426.628 261.454 425.726 261.735C424.48 262.125 424.316 262.5 423.389 262.991C421.724 263.872 420.344 264.744 418.091 264.744L418.089 264.745Z" fill="#EDEFF3" fill-opacity="0.57"/>
<path fill-rule="evenodd" clip-rule="evenodd" d="M298.533 247.361C297.589 247.669 296.701 249.121 296.02 249.794C294.936 250.863 295.016 252.036 295.087 253.787C295.13 254.85 294.957 255.318 295.916 255.122C299.449 254.406 299.449 256.343 302.222 255.333C302.141 254.907 300.931 251.679 300.673 251.149C300.083 249.933 299.416 248.142 298.533 247.36V247.361Z" fill="#EDEFF3" fill-opacity="0.57"/>
</svg>
