<svg width="671" height="617" viewBox="0 0 671 617" fill="none" xmlns="http://www.w3.org/2000/svg">
<mask id="mask0_1530_1684" style="mask-type:luminance" maskUnits="userSpaceOnUse" x="0" y="0" width="671" height="617">
<path d="M6.10352e-05 617L671 617L671 -6.10352e-05L7.0953e-06 -2.37448e-06L6.10352e-05 617Z" fill="white"/>
</mask>
<g mask="url(#mask0_1530_1684)">
<g filter="url(#filter0_d_1530_1684)">
<path d="M340.662 324.214L-190.797 52.298L341.431 -407.446L340.662 324.214Z" fill="#2056AD"/>
</g>
<g filter="url(#filter1_f_1530_1684)">
<path d="M297.25 227.537L-592.153 287.234L672.236 -804.964L297.25 227.537Z" fill="#1F4C95"/>
</g>
<path d="M340.255 323.404L872.79 591.857L342.402 1055.06L340.255 323.404Z" fill="#1E4C95"/>
<g style="mix-blend-mode:difference" filter="url(#filter2_df_1530_1684)">
<path d="M375.037 266.777C345.317 225.365 304.836 211.005 284.622 234.703C264.407 258.402 272.114 311.185 301.834 352.597C331.555 394.01 372.036 408.37 392.25 384.671C412.465 360.973 404.758 308.19 375.037 266.777Z" fill="#1F4C95"/>
</g>
</g>
<path d="M346.514 427.032C334.922 427.032 323.288 425.059 312.382 421.157C293.158 414.282 277.221 402.105 266.33 385.925L272.962 381.466C292.929 411.095 332.278 425.445 368.682 416.355C388.935 410.823 406.487 398.46 419.422 380.608L425.897 385.296C411.875 404.649 392.808 418.056 370.754 424.073H370.669C362.822 426.06 354.689 427.032 346.542 427.032" fill="#CEEA4D"/>
<path d="M261.342 369.345C261.385 369.445 261.385 369.56 261.342 369.688C261.299 369.803 261.213 369.889 261.099 369.946L250.765 374.319C250.651 374.377 250.537 374.362 250.422 374.319C250.308 374.262 250.222 374.191 250.179 374.076L248.207 369.417C247.821 368.488 247.607 367.63 247.592 366.83C247.578 366.029 247.764 365.315 248.178 364.7C248.579 364.071 249.207 363.585 250.051 363.228C250.894 362.871 251.68 362.756 252.395 362.914C253.109 363.057 253.738 363.428 254.281 364C254.825 364.572 255.296 365.329 255.682 366.258L256.325 367.773L259.598 366.387C259.713 366.344 259.827 366.33 259.941 366.387C260.056 366.43 260.142 366.515 260.184 366.63L261.342 369.36V369.345ZM253.795 368.917L253.167 367.416C253.038 367.101 252.824 366.887 252.552 366.744C252.28 366.601 251.937 366.615 251.551 366.787C251.237 366.916 251.008 367.116 250.837 367.387C250.665 367.659 250.68 368.002 250.837 368.402L251.48 369.903L253.81 368.917H253.795Z" fill="#CEEA4D"/>
<path d="M256.44 357.011C256.468 357.125 256.44 357.239 256.397 357.339C256.354 357.439 256.24 357.525 256.125 357.554L245.277 360.398C245.148 360.427 245.034 360.412 244.934 360.341C244.834 360.269 244.762 360.184 244.734 360.069L243.476 355.295C243.076 353.78 243.104 352.494 243.576 351.451C244.048 350.407 244.891 349.721 246.134 349.392C246.921 349.192 247.621 349.192 248.264 349.392C248.907 349.607 249.465 349.964 249.922 350.464L253.31 347.248C253.31 347.248 253.424 347.163 253.481 347.148C253.581 347.12 253.681 347.134 253.767 347.177C253.853 347.22 253.91 347.291 253.938 347.391L254.682 350.221C254.739 350.436 254.725 350.607 254.653 350.75C254.582 350.893 254.496 350.993 254.424 351.05L251.409 353.623L251.723 354.824L255.182 353.909C255.311 353.88 255.425 353.895 255.525 353.952C255.625 354.009 255.696 354.109 255.725 354.223L256.44 356.953V357.011ZM248.95 355.581L248.536 353.995C248.436 353.609 248.25 353.337 247.978 353.209C247.707 353.08 247.421 353.051 247.092 353.137C246.763 353.223 246.492 353.394 246.306 353.637C246.12 353.88 246.077 354.209 246.192 354.609L246.606 356.196L248.95 355.581Z" fill="#CEEA4D"/>
<path d="M252.966 339.144C253.095 340.245 253.024 341.217 252.766 342.06C252.509 342.903 252.066 343.604 251.423 344.147C250.78 344.69 249.951 345.033 248.921 345.176C248.436 345.247 247.95 345.305 247.435 345.362C246.92 345.419 246.42 345.462 245.906 345.519C244.877 345.59 243.99 345.448 243.247 345.062C242.49 344.676 241.889 344.09 241.446 343.318C240.989 342.546 240.703 341.617 240.589 340.516C240.474 339.444 240.546 338.473 240.817 337.615C241.089 336.757 241.546 336.057 242.189 335.514C242.833 334.971 243.676 334.628 244.691 334.485C245.191 334.399 245.706 334.342 246.206 334.285C246.72 334.228 247.206 334.185 247.692 334.156C248.721 334.07 249.622 334.228 250.365 334.613C251.108 334.999 251.694 335.585 252.137 336.357C252.566 337.129 252.852 338.058 252.966 339.144ZM250.051 339.459C249.993 338.973 249.808 338.601 249.479 338.315C249.15 338.044 248.664 337.929 248.021 337.987C247.521 338.015 247.049 338.058 246.577 338.115C246.106 338.172 245.634 338.23 245.162 338.301C244.734 338.358 244.405 338.473 244.133 338.644C243.876 338.816 243.69 339.03 243.59 339.302C243.49 339.559 243.462 339.859 243.49 340.173C243.533 340.488 243.619 340.774 243.776 341.017C243.933 341.26 244.148 341.431 244.448 341.546C244.734 341.66 245.105 341.703 245.52 341.66C246.006 341.617 246.477 341.574 246.935 341.517C247.392 341.46 247.878 341.403 248.364 341.345C249.007 341.245 249.45 341.031 249.708 340.702C249.965 340.374 250.065 339.959 250.008 339.459" fill="#CEEA4D"/>
<path d="M252.109 330.068C252.109 330.183 252.066 330.283 251.966 330.368C251.88 330.454 251.766 330.497 251.637 330.497L240.431 330.083C240.303 330.083 240.203 330.025 240.117 329.925C240.031 329.825 239.988 329.725 240.003 329.611L240.174 324.866C240.217 323.751 240.431 322.779 240.832 321.978C241.232 321.178 241.775 320.549 242.504 320.092C243.219 319.649 244.105 319.42 245.12 319.42C245.62 319.42 246.063 319.42 246.435 319.434C246.82 319.434 247.249 319.477 247.735 319.52C248.821 319.606 249.708 319.877 250.394 320.349C251.08 320.821 251.58 321.464 251.894 322.279C252.209 323.093 252.338 324.08 252.295 325.209L252.123 330.04L252.109 330.068ZM249.293 326.681L249.35 325.209C249.35 324.823 249.307 324.508 249.193 324.237C249.079 323.965 248.879 323.751 248.621 323.594C248.364 323.436 248.007 323.336 247.578 323.308C247.249 323.279 246.949 323.265 246.678 323.251C246.42 323.236 246.149 323.222 245.877 323.222C245.606 323.222 245.32 323.222 244.991 323.222C244.348 323.222 243.89 323.393 243.59 323.722C243.29 324.051 243.133 324.508 243.104 325.08L243.061 326.466L249.293 326.695V326.681Z" fill="#CEEA4D"/>
<path d="M254.01 311.416C253.81 312.474 253.467 313.36 252.995 314.103C252.523 314.846 251.88 315.375 251.108 315.69C250.322 316.004 249.407 316.061 248.335 315.861L241.375 314.56C241.246 314.532 241.146 314.475 241.089 314.36C241.017 314.26 241.003 314.146 241.017 314.032L241.532 311.259C241.561 311.13 241.618 311.044 241.718 310.973C241.818 310.901 241.932 310.887 242.061 310.901L248.964 312.202C249.536 312.316 250.008 312.245 250.351 312.016C250.694 311.788 250.922 311.402 251.022 310.873C251.123 310.344 251.051 309.901 250.808 309.572C250.565 309.243 250.151 309.015 249.579 308.915L242.675 307.614C242.547 307.585 242.461 307.528 242.39 307.414C242.318 307.314 242.304 307.2 242.318 307.071L242.833 304.312C242.861 304.184 242.918 304.098 243.018 304.027C243.118 303.955 243.233 303.941 243.361 303.955L250.322 305.256C251.394 305.456 252.223 305.842 252.838 306.413C253.452 306.985 253.852 307.7 254.038 308.557C254.21 309.415 254.21 310.358 254.01 311.402" fill="#CEEA4D"/>
<path d="M257.583 297.981C257.226 299.024 256.74 299.867 256.154 300.525C255.568 301.182 254.867 301.625 254.053 301.84C253.238 302.054 252.338 302.011 251.308 301.697C250.851 301.554 250.379 301.397 249.865 301.211C249.35 301.039 248.864 300.854 248.393 300.682C247.421 300.296 246.692 299.767 246.192 299.081C245.691 298.395 245.406 297.609 245.348 296.723C245.291 295.837 245.434 294.879 245.791 293.879C246.034 293.164 246.363 292.521 246.749 291.949C247.135 291.377 247.592 290.906 248.107 290.534C248.621 290.162 249.179 289.919 249.779 289.819C250.379 289.705 251.023 289.762 251.694 289.991C251.794 290.019 251.866 290.091 251.909 290.191C251.952 290.291 251.966 290.391 251.923 290.477L250.965 293.235C250.908 293.393 250.837 293.507 250.737 293.564C250.651 293.621 250.508 293.65 250.322 293.636C249.808 293.621 249.422 293.707 249.15 293.921C248.893 294.136 248.693 294.436 248.564 294.836C248.393 295.322 248.393 295.737 248.55 296.108C248.707 296.48 249.107 296.794 249.736 297.037C250.622 297.38 251.537 297.695 252.481 297.995C253.138 298.195 253.638 298.195 253.981 297.995C254.339 297.795 254.596 297.466 254.767 296.98C254.896 296.594 254.939 296.223 254.853 295.88C254.782 295.537 254.539 295.236 254.138 294.936C253.981 294.836 253.881 294.736 253.853 294.622C253.824 294.522 253.838 294.393 253.896 294.222L254.853 291.463C254.882 291.363 254.953 291.292 255.039 291.249C255.125 291.206 255.225 291.192 255.325 291.234C255.997 291.477 256.54 291.835 256.94 292.292C257.34 292.749 257.64 293.293 257.812 293.893C257.983 294.507 258.04 295.151 257.998 295.837C257.955 296.523 257.797 297.223 257.554 297.952" fill="#CEEA4D"/>
<path d="M261.928 287.19C261.871 287.304 261.785 287.376 261.671 287.418C261.556 287.461 261.442 287.447 261.328 287.39L253.824 283.516L252.452 286.161C252.395 286.275 252.309 286.346 252.195 286.389C252.08 286.432 251.966 286.418 251.852 286.361L249.793 285.303C249.679 285.246 249.608 285.16 249.565 285.046C249.522 284.931 249.536 284.817 249.593 284.703L254.053 276.055C254.11 275.941 254.196 275.87 254.31 275.827C254.424 275.784 254.539 275.798 254.653 275.855L256.711 276.913C256.825 276.97 256.897 277.056 256.94 277.17C256.983 277.285 256.968 277.399 256.911 277.513L255.539 280.158L263.043 284.031C263.157 284.088 263.229 284.174 263.272 284.288C263.314 284.403 263.3 284.517 263.243 284.631L261.928 287.19Z" fill="#CEEA4D"/>
<path d="M269.532 274.841C268.889 275.741 268.188 276.427 267.445 276.884C266.688 277.342 265.901 277.571 265.058 277.542C264.215 277.513 263.372 277.228 262.5 276.656C262.1 276.384 261.685 276.098 261.271 275.798C260.856 275.498 260.442 275.198 260.027 274.898C259.212 274.283 258.641 273.569 258.341 272.782C258.04 271.996 257.969 271.167 258.155 270.281C258.326 269.409 258.741 268.523 259.37 267.623C259.998 266.737 260.699 266.065 261.471 265.607C262.242 265.15 263.057 264.936 263.9 264.95C264.744 264.964 265.601 265.264 266.445 265.836C266.873 266.108 267.302 266.393 267.717 266.694C268.131 266.994 268.531 267.294 268.917 267.58C269.746 268.209 270.304 268.909 270.604 269.695C270.904 270.481 270.961 271.31 270.775 272.168C270.59 273.04 270.175 273.912 269.546 274.812M267.131 273.125C267.417 272.725 267.517 272.325 267.459 271.896C267.402 271.467 267.116 271.067 266.588 270.681C266.202 270.381 265.816 270.095 265.43 269.824C265.044 269.552 264.658 269.281 264.243 269.023C263.886 268.78 263.557 268.652 263.243 268.609C262.929 268.566 262.657 268.609 262.4 268.738C262.157 268.866 261.942 269.066 261.757 269.324C261.571 269.581 261.456 269.867 261.413 270.138C261.371 270.424 261.413 270.696 261.556 270.982C261.699 271.253 261.942 271.525 262.285 271.782C262.671 272.068 263.057 272.354 263.443 272.625C263.829 272.897 264.215 273.168 264.629 273.454C265.173 273.812 265.644 273.94 266.073 273.869C266.487 273.783 266.845 273.54 267.131 273.14" fill="#CEEA4D"/>
<path d="M278.065 264.45C277.236 265.321 276.407 265.936 275.606 266.293C274.806 266.636 274.077 266.765 273.405 266.679C272.734 266.593 272.162 266.336 271.704 265.936C271.633 265.865 271.59 265.779 271.59 265.679C271.59 265.579 271.619 265.493 271.69 265.421L273.591 263.42C273.705 263.306 273.806 263.235 273.906 263.192C274.006 263.163 274.12 263.135 274.263 263.12C274.42 263.12 274.592 263.12 274.777 263.106C274.949 263.077 275.135 263.006 275.335 262.892C275.535 262.777 275.735 262.62 275.935 262.406C276.307 262.02 276.535 261.677 276.621 261.362C276.721 261.048 276.678 260.805 276.493 260.633C276.35 260.505 276.178 260.448 275.978 260.462C275.778 260.49 275.521 260.605 275.192 260.791C274.863 260.991 274.434 261.277 273.92 261.662C273.205 262.206 272.505 262.606 271.847 262.877C271.19 263.149 270.561 263.22 269.961 263.135C269.36 263.049 268.789 262.734 268.26 262.22C267.717 261.705 267.374 261.091 267.245 260.39C267.116 259.69 267.202 258.947 267.488 258.175C267.774 257.403 268.26 256.66 268.96 255.931C269.532 255.331 270.118 254.873 270.718 254.559C271.319 254.244 271.905 254.059 272.462 253.973C273.019 253.887 273.52 253.916 273.977 254.03C274.434 254.144 274.792 254.316 275.063 254.573C275.135 254.645 275.178 254.73 275.178 254.845C275.178 254.959 275.149 255.045 275.092 255.102L273.105 257.203C273.005 257.303 272.919 257.375 272.819 257.403C272.719 257.432 272.605 257.46 272.462 257.446C272.305 257.375 272.105 257.389 271.847 257.46C271.604 257.546 271.347 257.703 271.104 257.975C270.833 258.261 270.675 258.518 270.632 258.761C270.59 259.004 270.661 259.218 270.833 259.39C270.961 259.504 271.118 259.561 271.29 259.561C271.476 259.561 271.704 259.476 272.005 259.304C272.305 259.133 272.691 258.89 273.162 258.547C274.034 257.861 274.82 257.375 275.492 257.103C276.178 256.817 276.793 256.731 277.364 256.846C277.936 256.96 278.479 257.26 279.008 257.76C279.608 258.332 279.951 258.975 280.052 259.733C280.152 260.476 280.037 261.262 279.694 262.077C279.351 262.892 278.822 263.692 278.093 264.464" fill="#CEEA4D"/>
<path d="M290.185 253.487C290.085 253.558 289.971 253.587 289.856 253.573C289.742 253.558 289.642 253.487 289.556 253.387L287.484 250.485L279.866 246.64C279.866 246.64 279.823 246.612 279.794 246.598C279.766 246.583 279.751 246.569 279.737 246.54C279.68 246.455 279.651 246.369 279.68 246.255C279.694 246.155 279.751 246.069 279.837 246.012L282.038 244.439C282.21 244.325 282.367 244.268 282.51 244.296C282.653 244.325 282.753 244.354 282.824 244.368L286.855 246.369L286.255 241.895C286.255 241.895 286.255 241.738 286.269 241.581C286.297 241.438 286.398 241.295 286.555 241.181L288.756 239.594C288.827 239.537 288.927 239.523 289.027 239.537C289.127 239.551 289.213 239.608 289.27 239.694C289.285 239.708 289.299 239.737 289.313 239.766C289.313 239.794 289.328 239.823 289.342 239.837L290.528 248.298L292.601 251.2C292.672 251.3 292.701 251.414 292.686 251.543C292.672 251.657 292.601 251.757 292.501 251.829L290.214 253.473L290.185 253.487Z" fill="#CEEA4D"/>
<path d="M306.751 243.896C305.65 244.411 304.664 244.668 303.792 244.697C302.92 244.725 302.191 244.568 301.605 244.239C301.019 243.911 300.576 243.467 300.305 242.924C300.262 242.824 300.262 242.739 300.29 242.638C300.319 242.553 300.39 242.481 300.49 242.438L302.992 241.281C303.135 241.209 303.263 241.181 303.378 241.195C303.478 241.195 303.606 241.223 303.735 241.266C303.878 241.338 304.049 241.395 304.221 241.438C304.392 241.481 304.593 241.481 304.821 241.438C305.05 241.409 305.293 241.324 305.55 241.209C306.036 240.995 306.379 240.752 306.579 240.495C306.779 240.237 306.822 240.009 306.722 239.766C306.636 239.594 306.508 239.48 306.308 239.423C306.108 239.365 305.822 239.38 305.45 239.437C305.064 239.494 304.564 239.608 303.949 239.766C303.077 239.994 302.291 240.123 301.577 240.123C300.862 240.123 300.247 239.966 299.733 239.651C299.218 239.337 298.804 238.851 298.489 238.179C298.175 237.493 298.089 236.807 298.232 236.107C298.375 235.406 298.718 234.749 299.276 234.134C299.833 233.52 300.562 233.005 301.477 232.591C302.234 232.248 302.949 232.033 303.621 231.962C304.292 231.89 304.907 231.933 305.45 232.062C305.993 232.205 306.451 232.405 306.837 232.676C307.222 232.948 307.494 233.248 307.651 233.577C307.694 233.677 307.694 233.777 307.651 233.863C307.608 233.963 307.551 234.034 307.465 234.063L304.835 235.278C304.707 235.335 304.593 235.363 304.492 235.363C304.392 235.363 304.278 235.335 304.149 235.278C304.035 235.163 303.835 235.078 303.578 235.063C303.32 235.049 303.02 235.106 302.692 235.263C302.334 235.421 302.091 235.606 301.963 235.821C301.834 236.035 301.82 236.25 301.92 236.478C301.991 236.635 302.12 236.75 302.277 236.807C302.449 236.864 302.692 236.878 303.035 236.836C303.363 236.793 303.821 236.693 304.392 236.564C305.45 236.25 306.365 236.092 307.094 236.078C307.837 236.078 308.452 236.221 308.938 236.535C309.424 236.85 309.824 237.336 310.124 237.993C310.467 238.737 310.538 239.48 310.367 240.209C310.181 240.938 309.781 241.624 309.166 242.253C308.552 242.881 307.766 243.425 306.794 243.868" fill="#CEEA4D"/>
<path d="M314.769 240.366C314.655 240.394 314.54 240.394 314.44 240.337C314.326 240.28 314.254 240.194 314.212 240.066L310.967 229.332C310.924 229.217 310.939 229.089 311.01 228.989C311.067 228.874 311.153 228.803 311.267 228.774L319.386 226.33C319.514 226.302 319.629 226.302 319.743 226.359C319.857 226.416 319.929 226.502 319.972 226.63L320.558 228.588C320.586 228.703 320.572 228.817 320.515 228.931C320.458 229.046 320.358 229.117 320.243 229.16L315.126 230.704L315.627 232.348L320.386 230.918C320.515 230.875 320.629 230.89 320.743 230.947C320.858 231.004 320.929 231.09 320.972 231.218L321.515 233.005C321.558 233.134 321.544 233.248 321.472 233.348C321.415 233.462 321.315 233.534 321.201 233.562L316.441 234.992L316.942 236.664L322.201 235.077C322.33 235.035 322.444 235.049 322.559 235.12C322.673 235.178 322.744 235.278 322.787 235.392L323.373 237.336C323.416 237.45 323.402 237.579 323.33 237.679C323.273 237.793 323.173 237.865 323.059 237.893L314.798 240.38L314.769 240.366Z" fill="#CEEA4D"/>
<path d="M326.932 236.978C326.818 236.993 326.704 236.978 326.604 236.893C326.504 236.821 326.432 236.721 326.418 236.593L324.717 225.501C324.703 225.373 324.717 225.258 324.803 225.158C324.889 225.058 324.974 225.001 325.089 224.987L329.962 224.243C331.52 224 332.792 224.172 333.779 224.744C334.765 225.315 335.365 226.23 335.551 227.502C335.68 228.303 335.594 229.003 335.322 229.618C335.036 230.232 334.636 230.747 334.093 231.161L336.937 234.863C336.937 234.863 337.009 234.992 337.023 235.049C337.037 235.149 337.023 235.249 336.966 235.335C336.909 235.42 336.823 235.463 336.723 235.492L333.836 235.935C333.621 235.964 333.45 235.935 333.321 235.849C333.193 235.764 333.093 235.663 333.05 235.578L330.791 232.319L329.562 232.505L330.105 236.049C330.12 236.178 330.105 236.292 330.02 236.378C329.948 236.478 329.848 236.535 329.72 236.55L326.932 236.978ZM329.134 229.675L330.763 229.432C331.163 229.375 331.435 229.217 331.606 228.96C331.763 228.703 331.821 228.417 331.763 228.088C331.706 227.745 331.578 227.474 331.349 227.259C331.12 227.045 330.806 226.973 330.391 227.045L328.762 227.302L329.134 229.703V229.675Z" fill="#CEEA4D"/>
<path d="M342.969 235.235C342.755 235.235 342.583 235.178 342.455 235.063C342.326 234.949 342.254 234.835 342.212 234.706L338.624 223.686C338.624 223.686 338.61 223.6 338.61 223.572C338.61 223.472 338.638 223.372 338.724 223.3C338.81 223.229 338.881 223.186 338.996 223.186L341.683 223.143C341.897 223.143 342.054 223.2 342.169 223.3C342.283 223.414 342.369 223.529 342.397 223.643L344.556 230.833L346.485 223.586C346.514 223.472 346.585 223.357 346.7 223.243C346.814 223.129 346.971 223.071 347.186 223.057L349.844 223C349.944 223 350.03 223.029 350.101 223.114C350.173 223.186 350.201 223.272 350.216 223.386C350.216 223.414 350.216 223.457 350.201 223.5L346.985 234.634C346.957 234.763 346.871 234.877 346.757 235.006C346.642 235.12 346.471 235.178 346.256 235.192L342.969 235.249V235.235Z" fill="#CEEA4D"/>
<path d="M353.66 235.521C353.546 235.521 353.446 235.449 353.36 235.363C353.274 235.263 353.246 235.163 353.26 235.035L354.361 223.872C354.361 223.743 354.432 223.643 354.532 223.572C354.632 223.5 354.746 223.457 354.861 223.472L357.791 223.757C357.919 223.757 358.02 223.829 358.091 223.915C358.162 224.015 358.205 224.115 358.191 224.243L357.09 235.406C357.09 235.535 357.019 235.635 356.933 235.706C356.833 235.778 356.733 235.821 356.605 235.806L353.674 235.521H353.66Z" fill="#CEEA4D"/>
<path d="M365.666 237.493C364.594 237.264 363.694 236.893 362.965 236.392C362.236 235.892 361.721 235.249 361.407 234.463C361.092 233.691 361.035 232.776 361.207 231.733C361.292 231.261 361.393 230.775 361.507 230.246C361.621 229.718 361.736 229.203 361.85 228.731C362.107 227.731 362.55 226.931 363.165 226.345C363.779 225.758 364.523 225.387 365.409 225.23C366.281 225.072 367.253 225.101 368.282 225.315C369.025 225.473 369.697 225.716 370.311 226.03C370.926 226.345 371.44 226.73 371.869 227.202C372.298 227.674 372.612 228.188 372.784 228.774C372.97 229.36 372.984 230.003 372.841 230.704C372.813 230.804 372.77 230.89 372.67 230.947C372.584 231.004 372.484 231.018 372.384 231.004L369.525 230.389C369.354 230.347 369.239 230.289 369.168 230.204C369.111 230.118 369.068 229.989 369.039 229.803C368.996 229.289 368.853 228.917 368.61 228.689C368.367 228.46 368.039 228.303 367.639 228.217C367.138 228.103 366.724 228.16 366.366 228.36C366.009 228.56 365.752 228.989 365.595 229.66C365.366 230.575 365.152 231.519 364.98 232.505C364.866 233.177 364.923 233.677 365.152 234.006C365.38 234.334 365.752 234.549 366.252 234.663C366.652 234.749 367.024 234.734 367.353 234.62C367.681 234.506 367.967 234.22 368.196 233.791C368.282 233.62 368.367 233.52 368.468 233.462C368.568 233.42 368.696 233.42 368.868 233.462L371.726 234.077C371.826 234.106 371.912 234.148 371.969 234.234C372.026 234.32 372.041 234.406 372.026 234.506C371.869 235.206 371.583 235.778 371.169 236.25C370.769 236.707 370.268 237.064 369.682 237.307C369.096 237.55 368.468 237.693 367.781 237.722C367.095 237.765 366.381 237.693 365.638 237.536" fill="#CEEA4D"/>
<path d="M374.428 239.651C374.313 239.608 374.228 239.537 374.171 239.423C374.113 239.308 374.099 239.194 374.142 239.08L377.744 228.46C377.787 228.346 377.858 228.26 377.972 228.203C378.087 228.145 378.201 228.145 378.315 228.174L381.103 229.117C381.217 229.16 381.317 229.232 381.36 229.346C381.417 229.46 381.417 229.575 381.374 229.689L377.772 240.309C377.729 240.423 377.658 240.523 377.544 240.566C377.429 240.623 377.315 240.623 377.201 240.595L374.414 239.651H374.428Z" fill="#CEEA4D"/>
<path d="M385.676 244.296C384.676 243.825 383.875 243.253 383.289 242.596C382.703 241.938 382.346 241.195 382.217 240.352C382.089 239.523 382.232 238.622 382.646 237.679C382.846 237.236 383.046 236.778 383.275 236.321C383.49 235.864 383.718 235.392 383.947 234.949C384.419 234.034 385.019 233.362 385.734 232.919C386.462 232.476 387.263 232.276 388.163 232.305C389.064 232.319 390.007 232.576 390.993 233.034C391.98 233.505 392.751 234.077 393.337 234.749C393.923 235.435 394.281 236.192 394.409 237.021C394.538 237.865 394.395 238.751 393.966 239.694C393.766 240.166 393.566 240.623 393.337 241.095C393.123 241.552 392.894 242.01 392.666 242.438C392.194 243.367 391.594 244.039 390.865 244.468C390.15 244.897 389.335 245.097 388.463 245.068C387.577 245.025 386.648 244.782 385.648 244.311M386.934 241.638C387.377 241.838 387.792 241.881 388.206 241.752C388.606 241.624 388.964 241.266 389.25 240.68C389.478 240.237 389.707 239.808 389.893 239.394C390.093 238.965 390.279 238.536 390.479 238.093C390.65 237.707 390.736 237.35 390.722 237.036C390.722 236.721 390.622 236.464 390.45 236.235C390.279 236.021 390.05 235.835 389.764 235.692C389.464 235.549 389.178 235.492 388.907 235.492C388.621 235.492 388.349 235.592 388.106 235.778C387.863 235.964 387.634 236.25 387.449 236.635C387.234 237.064 387.02 237.493 386.82 237.922C386.62 238.351 386.42 238.779 386.219 239.237C385.962 239.837 385.905 240.323 386.062 240.723C386.219 241.123 386.52 241.424 386.963 241.638" fill="#CEEA4D"/>
<path d="M397.354 250.885C396.339 250.214 395.596 249.513 395.124 248.784C394.652 248.055 394.395 247.355 394.366 246.683C394.338 246.012 394.481 245.411 394.795 244.882C394.852 244.797 394.924 244.74 395.024 244.725C395.124 244.711 395.21 244.725 395.295 244.782L397.582 246.312C397.711 246.398 397.811 246.498 397.854 246.583C397.897 246.669 397.94 246.798 397.982 246.926C397.997 247.084 398.04 247.255 398.097 247.427C398.154 247.598 398.254 247.77 398.397 247.941C398.54 248.113 398.74 248.284 398.983 248.441C399.426 248.742 399.812 248.899 400.126 248.942C400.441 248.985 400.67 248.899 400.812 248.684C400.927 248.527 400.941 248.341 400.884 248.156C400.827 247.97 400.67 247.727 400.412 247.427C400.169 247.141 399.798 246.769 399.34 246.326C398.683 245.711 398.168 245.097 397.797 244.497C397.425 243.896 397.225 243.282 397.225 242.681C397.225 242.081 397.425 241.466 397.825 240.852C398.24 240.223 398.783 239.794 399.455 239.537C400.126 239.294 400.87 239.237 401.67 239.394C402.485 239.537 403.299 239.894 404.143 240.452C404.829 240.909 405.386 241.409 405.801 241.952C406.215 242.496 406.501 243.024 406.673 243.568C406.844 244.111 406.916 244.611 406.887 245.068C406.858 245.526 406.744 245.926 406.544 246.24C406.487 246.326 406.401 246.383 406.301 246.398C406.201 246.412 406.101 246.398 406.029 246.355L403.614 244.754C403.5 244.682 403.414 244.597 403.371 244.511C403.314 244.425 403.285 244.311 403.271 244.168C403.314 243.996 403.271 243.796 403.142 243.568C403.014 243.339 402.813 243.124 402.513 242.924C402.185 242.71 401.899 242.596 401.656 242.596C401.413 242.596 401.213 242.696 401.07 242.91C400.97 243.053 400.941 243.21 400.984 243.396C401.013 243.568 401.141 243.796 401.356 244.053C401.57 244.311 401.884 244.654 402.299 245.068C403.128 245.811 403.728 246.498 404.128 247.112C404.529 247.741 404.714 248.341 404.714 248.913C404.714 249.485 404.5 250.085 404.1 250.685C403.642 251.371 403.056 251.829 402.342 252.058C401.627 252.286 400.827 252.3 399.969 252.115C399.112 251.929 398.24 251.529 397.354 250.943" fill="#CEEA4D"/>
<path d="M408.402 259.133C408.316 259.047 408.273 258.947 408.273 258.818C408.273 258.689 408.316 258.589 408.402 258.489L416.263 250.485C416.349 250.4 416.463 250.357 416.592 250.357C416.721 250.357 416.821 250.4 416.906 250.485L422.952 256.431C423.038 256.517 423.095 256.631 423.095 256.76C423.095 256.889 423.052 256.989 422.967 257.089L421.537 258.547C421.452 258.632 421.351 258.675 421.223 258.675C421.094 258.675 420.98 258.632 420.894 258.547L417.078 254.802L415.877 256.017L419.422 259.504C419.508 259.59 419.565 259.704 419.565 259.833C419.565 259.962 419.522 260.076 419.436 260.162L418.121 261.491C418.036 261.577 417.921 261.62 417.793 261.62C417.664 261.62 417.564 261.577 417.464 261.477L413.919 257.989L412.69 259.233L416.606 263.077C416.692 263.163 416.749 263.278 416.749 263.406C416.749 263.535 416.706 263.649 416.621 263.735L415.206 265.178C415.12 265.264 415.005 265.321 414.877 265.307C414.748 265.307 414.648 265.264 414.548 265.164L408.402 259.118V259.133Z" fill="#CEEA4D"/>
<path d="M417.207 268.209C417.135 268.123 417.106 268.008 417.121 267.88C417.121 267.751 417.192 267.651 417.292 267.58L426.125 260.662C426.225 260.59 426.34 260.548 426.468 260.576C426.597 260.59 426.697 260.648 426.768 260.748L428.541 263.006C428.612 263.106 428.655 263.22 428.641 263.349C428.641 263.478 428.569 263.578 428.469 263.649L421.709 268.937L424.796 272.882C424.868 272.982 424.91 273.097 424.896 273.225C424.896 273.354 424.825 273.454 424.725 273.525L423.009 274.869C422.909 274.94 422.795 274.983 422.666 274.955C422.538 274.94 422.438 274.883 422.366 274.783L417.221 268.209H417.207Z" fill="#CEEA4D"/>
<path d="M424.353 277.77C424.296 277.67 424.281 277.556 424.31 277.442C424.339 277.313 424.41 277.227 424.51 277.156L434.172 271.467C434.287 271.396 434.401 271.381 434.515 271.424C434.63 271.467 434.73 271.524 434.787 271.624L439.089 278.928C439.16 279.042 439.175 279.157 439.146 279.271C439.118 279.4 439.046 279.485 438.946 279.557L437.188 280.6C437.088 280.657 436.974 280.672 436.845 280.643C436.716 280.615 436.616 280.543 436.559 280.429L433.843 275.812L432.371 276.684L434.901 280.958C434.958 281.072 434.987 281.186 434.958 281.301C434.93 281.429 434.858 281.515 434.758 281.587L433.143 282.53C433.029 282.601 432.914 282.601 432.8 282.573C432.686 282.544 432.586 282.473 432.514 282.358L429.999 278.085L428.498 278.971L431.285 283.702C431.356 283.816 431.371 283.931 431.328 284.059C431.299 284.188 431.228 284.274 431.114 284.345L429.37 285.374C429.255 285.446 429.141 285.446 429.027 285.417C428.898 285.388 428.812 285.303 428.741 285.203L424.367 277.77H424.353ZM436.959 273.582C436.859 273.425 436.902 273.297 437.059 273.197C437.145 273.154 437.217 273.139 437.302 273.154L439.847 273.54C440.018 273.568 440.147 273.611 440.232 273.668C440.318 273.725 440.39 273.811 440.461 273.926L441.933 276.427C442.048 276.613 442.005 276.77 441.805 276.884C441.733 276.927 441.662 276.941 441.576 276.913L438.632 275.841C438.517 275.798 438.403 275.755 438.317 275.698C438.217 275.641 438.131 275.541 438.046 275.383L436.974 273.568L436.959 273.582Z" fill="#CEEA4D"/>
<path d="M432.157 293.193C431.742 292.178 431.528 291.235 431.528 290.348C431.528 289.462 431.757 288.662 432.228 287.976C432.686 287.275 433.4 286.704 434.358 286.261C434.787 286.075 435.259 285.875 435.759 285.66C436.259 285.46 436.745 285.26 437.202 285.089C438.174 284.731 439.089 284.646 439.918 284.817C440.747 284.989 441.476 285.389 442.119 286.032C442.748 286.661 443.277 287.476 443.677 288.447C443.963 289.148 444.163 289.848 444.249 290.52C444.335 291.206 444.306 291.849 444.177 292.478C444.034 293.093 443.777 293.65 443.405 294.122C443.034 294.593 442.519 294.979 441.862 295.265C441.762 295.308 441.662 295.308 441.576 295.265C441.476 295.222 441.404 295.151 441.362 295.065L440.247 292.364C440.175 292.206 440.161 292.078 440.19 291.978C440.218 291.878 440.304 291.763 440.447 291.649C440.847 291.32 441.076 290.992 441.119 290.663C441.162 290.334 441.119 289.977 440.961 289.591C440.761 289.119 440.49 288.805 440.118 288.633C439.747 288.462 439.246 288.49 438.617 288.733C437.731 289.062 436.831 289.434 435.93 289.848C435.316 290.134 434.93 290.463 434.801 290.849C434.658 291.235 434.687 291.649 434.887 292.121C435.044 292.507 435.273 292.793 435.544 292.993C435.816 293.193 436.216 293.264 436.702 293.221C436.888 293.193 437.031 293.221 437.117 293.264C437.202 293.321 437.288 293.421 437.36 293.593L438.474 296.294C438.517 296.394 438.517 296.48 438.474 296.58C438.446 296.68 438.374 296.737 438.274 296.78C437.603 297.038 436.974 297.138 436.359 297.066C435.744 296.995 435.173 296.78 434.644 296.451C434.115 296.108 433.629 295.665 433.215 295.122C432.8 294.579 432.443 293.95 432.157 293.25" fill="#CEEA4D"/>
<path d="M436.087 304.141C436.059 304.012 436.073 303.898 436.13 303.798C436.187 303.698 436.288 303.626 436.402 303.598L444.592 301.511L443.863 298.624C443.834 298.495 443.848 298.381 443.906 298.281C443.963 298.181 444.063 298.109 444.192 298.081L446.435 297.509C446.564 297.48 446.664 297.495 446.779 297.552C446.879 297.609 446.95 297.709 446.979 297.823L449.38 307.257C449.408 307.385 449.394 307.5 449.337 307.6C449.28 307.7 449.18 307.771 449.051 307.8L446.807 308.372C446.678 308.4 446.578 308.372 446.464 308.329C446.364 308.272 446.293 308.172 446.264 308.043L445.521 305.156L437.331 307.243C437.202 307.271 437.088 307.257 436.988 307.2C436.888 307.142 436.816 307.042 436.788 306.928L436.073 304.141H436.087Z" fill="#CEEA4D"/>
<path d="M438.274 313.832C438.274 313.717 438.289 313.603 438.374 313.503C438.446 313.403 438.546 313.346 438.674 313.331L449.823 312.102C449.952 312.102 450.066 312.117 450.152 312.202C450.252 312.288 450.309 312.388 450.309 312.502L450.852 317.405C451.024 318.963 450.809 320.235 450.195 321.193C449.58 322.15 448.637 322.708 447.365 322.851C446.564 322.936 445.864 322.836 445.249 322.522C444.649 322.222 444.149 321.779 443.763 321.221L439.947 323.908C439.947 323.908 439.818 323.98 439.761 323.98C439.661 323.98 439.561 323.965 439.489 323.908C439.403 323.851 439.361 323.765 439.346 323.665L439.032 320.75C439.003 320.535 439.032 320.364 439.146 320.235C439.246 320.106 439.332 320.021 439.418 319.978L442.777 317.862L442.634 316.619L439.075 317.005C438.946 317.005 438.832 316.99 438.746 316.905C438.646 316.833 438.589 316.733 438.574 316.605L438.26 313.803L438.274 313.832ZM445.478 316.333L445.664 317.962C445.707 318.363 445.85 318.648 446.093 318.82C446.336 318.991 446.621 319.063 446.964 319.02C447.307 318.977 447.593 318.863 447.808 318.634C448.022 318.405 448.122 318.105 448.065 317.691L447.879 316.061L445.464 316.333H445.478Z" fill="#CEEA4D"/>
<path d="M439.361 327.438C439.361 327.324 439.403 327.224 439.489 327.124C439.575 327.038 439.689 326.995 439.818 326.995L451.038 327.181C451.167 327.181 451.267 327.224 451.352 327.324C451.438 327.424 451.481 327.524 451.481 327.639L451.438 330.583C451.438 330.712 451.395 330.812 451.309 330.897C451.224 330.983 451.109 331.026 450.995 331.026L439.775 330.84C439.646 330.84 439.546 330.797 439.461 330.697C439.375 330.611 439.332 330.497 439.332 330.368L439.375 327.424L439.361 327.438Z" fill="#CEEA4D"/>
<path d="M438.546 339.545C438.675 338.458 438.946 337.529 439.375 336.743C439.804 335.971 440.39 335.385 441.133 334.999C441.876 334.613 442.777 334.456 443.834 334.528C444.306 334.571 444.806 334.628 445.349 334.685C445.892 334.742 446.407 334.814 446.893 334.885C447.922 335.042 448.751 335.4 449.394 335.957C450.037 336.514 450.48 337.215 450.723 338.072C450.966 338.93 451.038 339.888 450.924 340.945C450.838 341.703 450.666 342.403 450.409 343.032C450.152 343.675 449.823 344.233 449.394 344.704C448.965 345.176 448.479 345.533 447.922 345.776C447.365 346.019 446.721 346.105 446.007 346.034C445.907 346.034 445.821 345.976 445.75 345.891C445.678 345.805 445.649 345.719 445.664 345.605L445.993 342.703C446.007 342.532 446.064 342.403 446.135 342.332C446.207 342.26 446.336 342.203 446.521 342.16C447.036 342.074 447.393 341.889 447.593 341.617C447.793 341.345 447.922 341.017 447.979 340.602C448.036 340.102 447.951 339.673 447.708 339.344C447.479 339.016 447.022 338.801 446.35 338.701C445.406 338.558 444.449 338.444 443.463 338.373C442.791 338.315 442.291 338.43 441.991 338.687C441.69 338.959 441.505 339.344 441.447 339.845C441.404 340.259 441.447 340.617 441.605 340.931C441.762 341.245 442.062 341.503 442.505 341.688C442.677 341.76 442.805 341.831 442.848 341.931C442.891 342.032 442.92 342.16 442.891 342.332L442.562 345.233C442.562 345.333 442.505 345.419 442.434 345.49C442.362 345.562 442.262 345.59 442.162 345.576C441.447 345.476 440.847 345.262 440.347 344.89C439.847 344.533 439.446 344.075 439.146 343.518C438.846 342.961 438.646 342.346 438.546 341.66C438.446 340.974 438.432 340.259 438.517 339.502" fill="#CEEA4D"/>
<path d="M435.987 352.994C436.273 351.922 436.688 351.036 437.231 350.35C437.774 349.65 438.446 349.164 439.246 348.892C440.047 348.621 440.947 348.606 441.962 348.835C442.434 348.949 442.92 349.078 443.42 349.207C443.92 349.335 444.406 349.478 444.892 349.621C445.878 349.921 446.65 350.393 447.207 351.022C447.765 351.651 448.122 352.408 448.251 353.294C448.394 354.181 448.322 355.152 448.036 356.21C447.751 357.254 447.336 358.125 446.764 358.826C446.207 359.526 445.521 360.012 444.72 360.284C443.92 360.555 443.02 360.57 442.019 360.327C441.519 360.212 441.019 360.098 440.533 359.969C440.032 359.841 439.561 359.698 439.089 359.555C438.089 359.255 437.317 358.783 436.774 358.154C436.216 357.525 435.887 356.768 435.759 355.896C435.63 355.024 435.716 354.052 436.002 352.994M438.832 353.752C438.703 354.223 438.746 354.638 438.946 355.024C439.146 355.395 439.561 355.681 440.19 355.853C440.661 356.01 441.133 356.139 441.576 356.267C442.033 356.382 442.491 356.496 442.962 356.596C443.377 356.696 443.734 356.71 444.049 356.639C444.349 356.567 444.606 356.439 444.792 356.224C444.978 356.024 445.121 355.753 445.192 355.453C445.278 355.138 445.292 354.838 445.235 354.566C445.178 354.295 445.035 354.038 444.806 353.838C444.577 353.623 444.249 353.466 443.849 353.337C443.391 353.194 442.92 353.066 442.476 352.951C442.033 352.837 441.562 352.708 441.076 352.594C440.447 352.451 439.947 352.48 439.589 352.708C439.232 352.923 438.975 353.28 438.846 353.752" fill="#CEEA4D"/>
<path d="M431.585 365.672C432.071 364.557 432.614 363.7 433.243 363.099C433.872 362.499 434.515 362.128 435.187 361.97C435.845 361.827 436.459 361.856 437.031 362.085C437.131 362.128 437.188 362.185 437.231 362.285C437.274 362.37 437.26 362.471 437.231 362.571L436.145 365.1C436.073 365.243 436.002 365.358 435.916 365.415C435.83 365.472 435.73 365.544 435.602 365.601C435.444 365.644 435.287 365.715 435.13 365.801C434.973 365.887 434.83 366.015 434.673 366.187C434.53 366.358 434.401 366.587 434.287 366.844C434.072 367.33 433.986 367.73 434.001 368.059C434.015 368.388 434.144 368.588 434.372 368.688C434.558 368.759 434.73 368.759 434.916 368.659C435.087 368.559 435.301 368.374 435.544 368.073C435.787 367.773 436.088 367.359 436.445 366.816C436.931 366.058 437.445 365.443 437.974 364.958C438.503 364.486 439.06 364.186 439.661 364.071C440.261 363.957 440.89 364.043 441.576 364.343C442.262 364.643 442.791 365.1 443.148 365.715C443.506 366.33 443.691 367.044 443.691 367.873C443.691 368.688 443.491 369.56 443.091 370.489C442.762 371.261 442.376 371.89 441.919 372.39C441.462 372.89 440.99 373.276 440.49 373.533C439.99 373.791 439.518 373.962 439.046 374.005C438.589 374.062 438.189 374.005 437.831 373.876C437.731 373.833 437.674 373.762 437.631 373.662C437.588 373.562 437.588 373.476 437.631 373.39L438.775 370.732C438.832 370.603 438.889 370.503 438.975 370.446C439.06 370.375 439.161 370.317 439.289 370.274C439.461 370.274 439.646 370.217 439.861 370.046C440.075 369.889 440.247 369.631 440.39 369.317C440.547 368.96 440.604 368.659 440.561 368.416C440.518 368.173 440.39 368.002 440.147 367.902C439.99 367.83 439.832 367.83 439.661 367.902C439.489 367.973 439.303 368.131 439.089 368.388C438.875 368.645 438.589 369.017 438.26 369.503C437.674 370.446 437.117 371.161 436.573 371.661C436.03 372.161 435.473 372.461 434.901 372.561C434.33 372.661 433.715 372.561 433.043 372.276C432.286 371.947 431.742 371.461 431.385 370.789C431.028 370.117 430.871 369.345 430.914 368.459C430.956 367.573 431.171 366.644 431.6 365.672" fill="#CEEA4D"/>
<path d="M383.69 275.569H318.7C317.013 275.569 316.17 276.584 316.17 278.628V310.887L321.401 303.569C321.83 302.74 322.744 302.297 324.188 302.297H382.632C384.947 302.297 386.091 301.097 386.091 298.695V278.357C386.091 276.499 385.29 275.555 383.69 275.555" fill="#CEEA4D"/>
<path d="M383.69 374.462H318.7C317.013 374.462 316.17 373.447 316.17 371.404V339.144L321.401 346.462C321.83 347.291 322.744 347.72 324.188 347.72H382.632C384.947 347.72 386.091 348.921 386.091 351.322V371.661C386.091 373.519 385.29 374.462 383.69 374.462Z" fill="#CEEA4D"/>
<path d="M377.501 327.781L328.819 313.145C328.59 313.088 328.376 313.26 328.376 313.489V323.494C328.376 323.665 328.262 323.808 328.09 323.837L291.372 323.193C291 323.265 291 323.808 291.372 323.879L338.252 337.815C338.467 337.858 338.667 337.686 338.667 337.472V328.61C338.667 328.382 338.881 328.21 339.096 328.267L377.301 328.225C377.515 328.282 377.73 328.11 377.73 327.881V328.11C377.744 327.953 377.629 327.81 377.487 327.767" fill="#CEEA4D"/>
<defs>
<filter id="filter0_d_1530_1684" x="-230.797" y="-447.446" width="612.227" height="811.66" filterUnits="userSpaceOnUse" color-interpolation-filters="sRGB">
<feFlood flood-opacity="0" result="BackgroundImageFix"/>
<feColorMatrix in="SourceAlpha" type="matrix" values="0 0 0 0 0 0 0 0 0 0 0 0 0 0 0 0 0 0 127 0" result="hardAlpha"/>
<feOffset dy="4"/>
<feGaussianBlur stdDeviation="2"/>
<feComposite in2="hardAlpha" operator="out"/>
<feColorMatrix type="matrix" values="0 0 0 0 0 0 0 0 0 0 0 0 0 0 0 0 0 0 0.25 0"/>
<feBlend mode="normal" in2="BackgroundImageFix" result="effect1_dropShadow_1530_1684"/>
<feBlend mode="normal" in="SourceGraphic" in2="effect1_dropShadow_1530_1684" result="shape"/>
</filter>
<filter id="filter1_f_1530_1684" x="-752.153" y="-964.964" width="1584.39" height="1412.2" filterUnits="userSpaceOnUse" color-interpolation-filters="sRGB">
<feFlood flood-opacity="0" result="BackgroundImageFix"/>
<feBlend mode="normal" in="SourceGraphic" in2="BackgroundImageFix" result="shape"/>
<feGaussianBlur stdDeviation="80" result="effect1_foregroundBlur_1530_1684"/>
</filter>
<filter id="filter2_df_1530_1684" x="73.3478" y="23.2788" width="530.176" height="572.817" filterUnits="userSpaceOnUse" color-interpolation-filters="sRGB">
<feFlood flood-opacity="0" result="BackgroundImageFix"/>
<feColorMatrix in="SourceAlpha" type="matrix" values="0 0 0 0 0 0 0 0 0 0 0 0 0 0 0 0 0 0 127 0" result="hardAlpha"/>
<feOffset/>
<feGaussianBlur stdDeviation="100"/>
<feComposite in2="hardAlpha" operator="out"/>
<feColorMatrix type="matrix" values="0 0 0 0 0.388235 0 0 0 0 0.270588 0 0 0 0 0.815686 0 0 0 0.4 0"/>
<feBlend mode="normal" in2="BackgroundImageFix" result="effect1_dropShadow_1530_1684"/>
<feBlend mode="normal" in="SourceGraphic" in2="effect1_dropShadow_1530_1684" result="shape"/>
<feGaussianBlur stdDeviation="80" result="effect2_foregroundBlur_1530_1684"/>
</filter>
</defs>
</svg>
